<?xml version="1.0" encoding="utf-8"?>
<!-- Generator: Adobe Illustrator 23.0.3, SVG Export Plug-In . SVG Version: 6.00 Build 0)  -->
<svg version="1.1" id="图层_1" xmlns="http://www.w3.org/2000/svg" xmlns:xlink="http://www.w3.org/1999/xlink" x="0px" y="0px"
	 viewBox="0 0 1266 344" style="enable-background:new 0 0 1266 344;" xml:space="preserve">
<style type="text/css">
	.st0{fill:#FFFFFF;}
	.st1{fill-rule:evenodd;clip-rule:evenodd;fill:#044D9C;}
	.st2{fill-rule:evenodd;clip-rule:evenodd;fill:#B27B4C;}
	.st3{fill:none;stroke:#231815;stroke-width:0.3245;stroke-miterlimit:22.926;}
	.st4{fill-rule:evenodd;clip-rule:evenodd;fill:#FFFFFF;}
	.st5{fill:#B27B4C;}
	.st6{fill:#0551A9;}
</style>
<g>
	<path class="st0" d="M387.3,69"/>
	<g>
		<path class="st1" d="M119.9,95.1h139.3v107.1c0,0,2.7,30.3-24.2,50.4c0,0-18,14.2-45.2,25.4c0,0-35.8-14.2-50.6-28.1
			c0,0-18.7-14.5-19.5-47.2L119.9,95.1z"/>
		<path class="st2" d="M280.3,308.2c0,0-3.7,10.4-25,10.6l-32.1-1c0,0-16.6-0.6-36.5-0.8c-19.7-0.2-39,1.2-58.5,1.8
			c-11.5,0.3-28-1-32.7-10.3l-9.1,18.9c0,0-1.1,12.7,18.2,14.9c0,0,13,2.9,54,1.1c0,0,65.1,0.1,86.3,0.5c0.4,0,0.7,0,1.1,0
			c7-0.4,13.6,0,20.6-0.9c9.4-1.3,20.1-4.6,22.4-11.7c0,0,0.9-2.6,0.4-4.4l-6.2-12.9L280.3,308.2z"/>
		<path class="st2" d="M95.9,303.1c-15-0.4-27.9-3.7-40.5-11.3l9.2,17.5l-12.8,9.4c0,0,7.9,5.5,33,6.8L95.9,303.1z"/>
		<path class="st2" d="M280,303.3c15-0.4,27.9-3.7,40.5-11.3l-9.2,17.5l12.8,9.4c0,0-7.9,5.5-33,6.8L280,303.3z"/>
		<path class="st2" d="M274.4,301.5c1.6-0.1,3.2,0.4,3.8,2c0.9,2.2,0,4.2-1.3,5.9c-4.9,6-13.5,7-20.6,7.1l-7.3,0.3l-2.9-9
			c0,0,1.7,0.7,4.8,0.9c5.9,0.5,12.1-1.5,17-4.6C270,302.8,272.3,301.6,274.4,301.5"/>
		<path class="st2" d="M246.3,299.9c-0.8,0.5-1.8,1.5-1.5,3.3c0.4,2.4,3.1,3.1,6,3.1c2,0,4.2-0.1,6.2-0.5c4.5-0.8,8-2.7,10.8-4.1
			c0,0.1-6.3-0.2-10.6-1.3C254.4,299.6,249,298.2,246.3,299.9"/>
		<path class="st3" d="M235.9,182.5L235.9,182.5c-0.2-0.1-0.2-0.4-0.1-0.6c0.1-0.2,0.4-0.3,0.6-0.2l0,0l2.6,1.8l0,0c0,0,0,0,0,0
			c0.2,0.1,0.2,0.4,0.1,0.6c-0.1,0.2-0.4,0.3-0.6,0.1c0,0,0,0,0,0l0,0L235.9,182.5z"/>
		<path class="st3" d="M235.9,186L235.9,186c-0.2-0.1-0.2-0.4-0.1-0.6c0.1-0.2,0.4-0.3,0.6-0.1l0,0l2.6,1.8l0,0c0,0,0,0,0,0
			c0.2,0.1,0.2,0.4,0.1,0.6c-0.1,0.2-0.4,0.3-0.6,0.1c0,0,0,0,0,0l0,0L235.9,186z"/>
		<path class="st4" d="M234.2,179.7L234.2,179.7c0.2-1.6,1.6-2.8,3.2-2.8c1.6,0,2.9,1.2,3.1,2.8h0v0.4v0v0v10c0,0,0,0,0,0
			c0.2,0,3.3,0,3.9,0h0h0h0.1c1.5,0,2.8,1.3,2.8,2.8c0,1.6-1.3,2.8-2.8,2.8c-1.6,0-2.8-1.3-2.8-2.8c0-0.1,0-0.2,0-0.2
			c-0.5-0.3-0.9-0.2-1.1-0.1v43.6l-4.1-4.1v-37l-1.2-0.8v34.6l-1.1-1.1v-35.3c-0.3-0.1-0.7-0.2-1.2,0.2c0,0.1,0,0.1,0,0.2
			c0,1.6-1.3,2.8-2.8,2.8c-1.6,0-2.8-1.3-2.8-2.8c0-1.6,1.3-2.8,2.8-2.8c0,0,3.8,0,4,0v-10l0,0l0,0V179.7z M235.9,182.5l2.6,1.8l0,0
			c0,0,0,0,0,0c0.2,0.1,0.5,0.1,0.6-0.2c0.1-0.2,0.1-0.5-0.1-0.6c0,0,0,0,0,0l0,0l-2.6-1.8l0,0c-0.2-0.1-0.5-0.1-0.6,0.1
			C235.7,182.1,235.7,182.4,235.9,182.5 M235.9,186l2.6,1.8l0,0c0,0,0,0,0,0c0.2,0.1,0.5,0.1,0.6-0.1c0.1-0.2,0.1-0.5-0.1-0.6
			c0,0,0,0,0,0l0,0l-2.6-1.8l0,0c-0.2-0.1-0.5-0.1-0.6,0.2C235.7,185.6,235.7,185.9,235.9,186z"/>
		<path class="st2" d="M94.4,264.1c0,0-4.2-4.3-1-11.5c0,0,1.9-4.4,8.8-3.2c0,0,6.8-10.4,13.1-3.5c0,0,1.2,1.1,1,4.4
			c0,0,5.3-0.8,7.9,4.7c0.7,1.6,0.7,3,0.7,4.6c0,2.2,0.5,3.1,2.2,4.4c2.2,1.8,2.5,3.4,2.2,6.5c-0.4,4.3-0.7,5.2,0.1,6.9
			c1,2,2.8,2.4,4.7,3.5c3.7,2.2,9.4,5.8,14,10.1c1.7,1.6,5.6,5.1,5.9,7.6c0.1,0.4,0,1-0.3,1.7c0,0-0.3,1.2-1.2,0.8
			c0,0-3.9-2.6-8.4-2.3c0,0-0.6,0.2-0.7-1.1c-0.5-4.9-4.5-8-8.2-10.8c-3.4-2.6-8.4-5.5-16-6.3c0,0-3.9,0.2-7.9,1.3
			c0,0-3.3,0.6-4.7-3.2c0,0-16.7,1.6-12.5-12.6C94.3,265.6,94.8,264.5,94.4,264.1 M98,271.4c1.6-0.6,2.7-1.3,4.1-1.8
			c2.2-0.8,4.6-1.3,6.9-1.4c4.1-0.2,7.2,0.8,8.3,1.1c2.9,3.2,4.4,5.7,4.4,5.7l0.5-0.4c-1.1-3-2.6-5.4-4.2-7.5
			c-0.6-2.8-1.8-8.5,2-11.3c-4,1-4.1,6-4,9c-1.5-1.5-3-2.7-4.6-3.7c-0.7-1.6-2.9-7.3-1.8-12c-2,2.5-0.9,8.4-0.1,10.9
			c-6.1-3.2-11.8-3.1-11.8-3.1l2.5,0.9c6.4,2.1,11.5,5.9,15.1,9.3C106.1,263.6,98,271.4,98,271.4"/>
		<path class="st2" d="M82.6,225.5c0,0,11-3.4,13,6.9c0,0,0.2,2.3,1.9,1.4c1.7-0.8,9.7-2.6,11.7,7.4c0,0-5,0.4-7.6,5.2
			c0,0-7.5-0.8-10.2,5c-1.8-1-7.6-3.7-12.3-9.4c-2.5-3-5.7-7-6.9-10.6c0.2,0.9,1.2,7.4,6.7,13.2h0c-5.9,0.2-10.9-4-10.9-4l-0.1-0.1
			l0.1,0.2c0.8,2,3.5,4.2,6.4,4.9c2.7,0.6,4.7,0.1,5.4-0.1c2.3,2.2,5.2,4.2,9,5.8h0c-3.4,1.4-5.9,2.4-9.6,2
			c-2.7-0.3-4.8-0.9-4.8-0.9l-0.2,0l0.1,0.1c1.2,1.5,4,2.3,6.6,2.3c4.8,0,8.2-2.4,8.9-3.1c0.4,0.2,0.9,0.3,1.3,0.4
			c-0.9,2.7-1,6.5,0.8,12.1l-0.8,5.1c0,0-3-1-3.6-3.6c0,0-17.1,3-15.6-12.4c0,0-9.1-0.6-6.8-12.5c0,0,0.1-1.2-0.3-3.4
			c-0.4-2.1-1.2-17.1,12.4-15.1C79.5,222.9,80.7,224.2,82.6,225.5 M72.1,231.6c0-0.1,0-0.1,0-0.1C72.1,231.5,72.1,231.6,72.1,231.6
			 M88.6,249.3l0.3,0.2l0.3-0.7c-3.5-7-3.9-12.1-1.9-19.7C80.5,241.2,88.6,249.3,88.6,249.3"/>
		<path class="st2" d="M75.4,195.9c0,0-2.1,13.4,5.3,17.9C75.8,208.3,76.1,202.2,75.4,195.9 M55.6,180.1c2.2-1.2,7.7-2.9,10.4,3.2
			c0.5,1.1,0.6,3.4,2.5,2.5c2-1,5.9-3.3,7.8,4.3c0,0,0.2,1.1,1.7,0.2c1.5-0.9,5-2.5,6.4,1.4c0,0,0,5.4,2.7,8.3
			c2.8,2.9,9.3,3.6,10.8,16.3c0,0,0.1,8.1-1.5,11.1c0,0-2.9-4.1-8.2-4.7h0c-1.6-3.7-14.9-10.7-14.9-10.7
			c-13.1-6.7-11.5-18.4-12.1-20.2c-1.2,4.6-0.2,9.6,2.2,13.7c-7.4-1-10.9-10.4-10.9-10.4c0.7,9.5,9.3,11.2,11.6,11.5
			c2,3,4.8,5,8.5,7.3c0.1,0,0.1,0.1,0.2,0.1c-2.7,0.7-12.2,2.6-18-3.4c0,0,1,4.8,10.2,5.7c3.2,0.3,6.5-1.3,9.6-1.3
			c5.3,2.3,10,6.2,11.6,7.7c-0.9,0.1-1.8,0.2-2.8,0.5c0,0-11.2-10.2-19.7,3.8c0,0-18.9-3.8-13.9-21.9c0,0-4.5-6.9,1.4-12.2
			C51.2,188.9,51.7,182.3,55.6,180.1"/>
		<path class="st4" d="M182.7,124.1c1.7-4.8,6.6-8.8,11.9-4c0,0,5.7,0.8,7.2,3.3c-1.8,0.1-7.4,0-6.2,3.1l4.9,9.6
			c0.3,0.6,1.3,1.1,1.9,0.5l4.6-10.4c0,0,1.5-4.5,4.9-4.8h36.8c0,0-2.6,8.5-8.5,8.4h-10.7h-1.2c0,0-4-0.1-4.5,6.9H240
			c-0.5,1.4-2.9,7.4-6.7,7.8h-11.7c-2.1,0-3.7,4.3-3.9,5.5c-0.1,0.5-0.1,0.9-0.2,1.4h0.4l12.5-0.1h1.2c0.3,0-0.4,1.3-0.7,1.8
			c0,0-2.7,5.6-6.2,6.5h-9.3h0.2c0,0-4-0.1-4.6,6.9h0.6h11c0,0-1.3,6.3-6.6,7.9c-2.6,0-4.6,0-7.2,0c-3.1,0-4,4.9-4.2,6.8h0.3h9.2
			c0,2.4-3.1,6.5-5,7.7h-6.5c0,0-3.8,0.6-3.1,4.5c0,0-0.4,0.5,3.7,6.4v1.9l-12.7,17.5l-0.8,1.1l-2.3-3.1l-11.2-15.4v-1.9
			c4.1-5.9,3.7-6.4,3.7-6.4c0.7-3.9-3.1-4.5-3.1-4.5h-6.5c-1.9-1.1-5-5.2-5-7.7h9.2h0.3c-0.2-2-1.1-6.8-4.2-6.8c-2.6,0-4.6,0-7.2,0
			c-5.3-1.5-6.6-7.9-6.6-7.9h11h0.6c-0.7-7-4.7-6.9-4.6-6.9h0.2h-9.3c-3.5-0.9-6.2-6.5-6.2-6.5c-0.3-0.4-1-1.8-0.7-1.8h1.2l12.5,0.1
			h0.4c0-0.5-0.1-0.9-0.2-1.4c-0.3-1.8-2.1-5.2-4-5.5H146c-3.8-0.4-6.2-6.3-6.7-7.8h0l0,0h16c-1.4-3.7-1.8-6.8-6.5-6.8h-9.8
			c-5.9,0.1-8.5-8.4-8.5-8.4h0l0,0h36.8c3.3,0.3,4.9,4.8,4.9,4.8c1.2,2.6,2.2,5.3,3.2,7.9c0.4,1,1.2,2.4,2.7,2
			C179.8,135.5,182,126,182.7,124.1"/>
		<path class="st2" d="M74.1,125.2c1.2,1.2,2.6,3.4,2.8,6.9c0,0,0.6,1.4,2.2,0.3c1.6-1.1,4.7-1.7,6.4,1.3c0,0,1.2,1.7,2.2,0.1
			c1-1.6,5.8-6,10.4-2.1c4.7,3.9,4.8,10.2,4.6,13.1c-0.2,2.9-1.5,18.2-11.8,25.8c0,0,5.8,12.5-3.2,23.4c0,0-2-9.8-9.3-6.4
			c0,0-3.1-7.7-9.6-4.6c0,0-2.7-8.2-11.9-6.3c0,0-3.1-8,2-11.4c0,0-10.4-7-3.3-20c-0.2-3.7-0.6-10.7,1-15.1c1.6-4.4,5.2-7.7,9.6-8
			C68.7,122.1,72.1,123.2,74.1,125.2 M99.4,141.7c0.4-3.1-5.4-6.5-8.3-3C94.1,138.1,97,138.6,99.4,141.7 M90.5,142.2
			c0,0,7.5-0.2,8.7,7.6C99.7,145,95.7,140.1,90.5,142.2 M90.4,168.4c-2-3-3.1-3.4-5.2-8.3c-1.3-3-2-6.5-1.8-8.7
			C80.9,156.1,85.2,165.4,90.4,168.4 M67,163.1c-0.6,7,1.9,13.1,2.9,15.1c-1.8-4.3-1.9-15.9-0.1-20.6c1-2.7,1.8-4.8,1.9-7.7
			c0.2-4.4,0.2-11.1-3.5-14.4c0.5,2,1.2,4,1.6,6c0.7,3.7,0,9.3-2.1,17.5c0,0,0,0.1,0,0.1c-2.5-11.8-10-13.1-10-13.1
			C62.9,148.2,66.1,159.5,67,163.1 M69.9,178.3c0.1,0.3,0.2,0.5,0.4,0.7C70.2,179,70.1,178.7,69.9,178.3 M69.9,171.8
			c1-7.6,8.3-13,8.3-13C72.3,161.3,68.6,165.2,69.9,171.8 M73.2,153.5c0,0.1,1.3-2.1,3.1-4.6c2.2-3.1,5.4-5,8.1-7.5
			C75.4,142.8,73.7,151.6,73.2,153.5"/>
		<path class="st2" d="M74.4,112.3c2.6-0.4,8.8,2.8,6.8,9.9C79.8,116.5,79.4,114.8,74.4,112.3 M92.3,120.2c-3.5,0.2-5.6,2.3-7.4,5.2
			C84.9,121.5,88.3,119.4,92.3,120.2 M75.8,106.6c-5.9,2.1-7.1,7.6-7.5,12.9c5.1,0.7,9.3,5.5,10.9,10.2c0.9-0.4,1.8-0.6,2.6-0.6
			c-0.8-8.7,2.5-13.7,7.4-20.1c5-6.4,4.8-15.7,4.8-15.7c2.6,5.2-2.1,15.3-5.4,19.1c-5.7,6.5-5.5,16.9-5.5,16.9
			c2.1,0.4,3.4,1.8,3.4,1.8c5.2-5.6,11.9-1.9,11.9-1.9c5.7-5.7,4.3-12.7,3.9-13.8c-0.4-1.1-0.7-2.1-0.2-3.2c0.5-1.1,2.4-7.1,1-10.4
			c-0.2-0.6-0.4-1-0.6-1.4c-1.2-2.6-0.9-4.4-1.3-7.1c-0.2-1.1-0.7-2.3-2.4-3.6C95,86.3,90.2,89,89.1,91c-1,2-1.8,1.7-1.8,1.7
			c-6.8,1-9.4,9-9.4,11C78,105.8,75.8,106.6,75.8,106.6 M78.2,107.2c3.5,4.5,4.2,6.4,4,11.7C85.5,113.4,80.1,107.2,78.2,107.2
			 M87.3,96.3c2.6,3.7,2.1,10.8-0.3,12.3C89.3,104.4,86.9,96.2,87.3,96.3 M98.9,104.7c1,5.1-7.4,9.7-10.1,8.3
			C94.2,112.7,99.3,105.1,98.9,104.7"/>
		<path class="st2" d="M281.4,176.7c0,0,18.2,8.6,19.9,29.3c0,0,2.5-6.2,10.8-12.2c8.3-5.9,14.2-13,14.9-16.6c0,0,3.5,9.2-2,19.5
			c-2.1,3.9-5.9,7.1-10,9.9c-4.4,3-12.1,5.3-12.3,11.7c0,0,15.3-16.2,32.5-13.6c-4.5,3.2-8.2,7.5-11.6,11.8
			c-2.2,2.8-4.6,5.8-7.7,6.7c-3.4,1-7,1-10.4,1.9c-2.5,0.7-6,2.8-6.6,5.5c0,0,3.4-2.6,13.7-3.2c10.3-0.6,15.4-4,17.5-6l0.9-0.7
			c0,0-1.4,10-12.5,15.9c-5.4,2.9-11.7,3.7-17.8,3.5c-3.7-0.1-8.7,1.3-11.4,5.7c0,0,0.1-0.9,5.9-2.1c3.3-0.7,7.8-0.5,12.5-0.4
			c6.8,0.2,14-0.6,18.3-3.4c0,0-6.4,14.7-24.2,14.7c-5.4,0-9-0.1-11.5,0c-5.3,0.2-10.9,1-14.2,4.8c0,0,5.9,0.4,19.8-1.5
			c5.4-0.7,10.7-2.2,16.1-2.9c0,0-4.2,4.3-10,8.3c-9.6,6.7-16.3,9.6-28.7,8.4c-3.9-0.4-7.5-1-11,1.3c-0.5,0.3-1.2,0.7-1.8,1.3
			c-2.6,2.3-6.8,5.8-11.6,9.4c-8,6.2-16.3,13.2-26.1,16.2c0,0,0.4-7.2,10.3-15.4c0,0,0.2,1.6,0.8,2.2c0.2,0.3,0.5,0.4,0.8,0.2
			c0,0,7.8-2.6,17.6-12.2c2.5-2.5,4.6-4.5,4.9-8.1c0.4-5.1,1.4-9.8,3.6-14.2c1.1-2.1,2.3-4,3.9-5.6c0.7-0.7,1.6-1.3,2.4-2
			c8.5-6.8,7.8-12.9,8.3-15.2c3,4.8,3.6,21-0.5,25.3c5.2-3.1,6.8-7.8,6.2-13.4c-0.3-3-0.5-7.5,0.4-14.4c1-7.8,1.4-17.9-1.5-25.2
			c0,0,9.7,6.8,11.9,25.3c0,0,4.8-6.8,0.1-13.8c-4.3-7.7-2.8-15.5-5-23.5c-0.5-1.7-1.2-4.1-2.1-6.3
			C283.3,180,281.4,176.8,281.4,176.7 M273.7,244.4c-0.1,0.3-0.3,1-0.8,1.6c-2.1,3-5.9,7.1-7.8,10.1c-1.9,3-3,6.4-2.9,8.1
			C268.6,260,273.7,250.3,273.7,244.4 M291.8,263.4c-0.3,0.1-1,0.3-1.8,0.3c-3.7,0-9.8,0.3-13.3,0.4c-3.6,0.1-7,1.4-8.3,2.4
			c5.7,2,13.5,1.5,19.1-0.5C289.3,265.3,290.5,264.2,291.8,263.4 M311.5,246.9c-4.1,0.4-11.1-0.2-17,0.3c-4,0.4-7.6,1.9-9.2,3
			c6.4,2,14.9,0.8,21.2-1.2C308.8,248.4,310.2,247.7,311.5,246.9 M286,218.9c0.2,0,0.1,2,0,5.3c-0.1,3.4-1,7.1-0.8,10.4
			c0.1,3.5,0.4,5.3-0.2,6.9C290.2,237,289.1,224,286,218.9 M319.2,229.7c-1.3,0.7-3,1.1-4.7,1.5c-3.1,0.7-6.7,1.1-10.5,1.4
			c-4,0.4-7.1,2.1-8.6,3.1c1.7,0.5,2.9,0.9,4.8,0.9C309.5,236.6,317,233.1,319.2,229.7 M322.3,210.7c-1.3,1.3-6.8,2.4-10.9,5
			c-2.7,1.8-7.1,4.4-8.9,6.7c3.6,0,6.4-0.8,9.6-2.3C318,217.4,321.4,213.8,322.3,210.7 M291.4,193.8c0.2,0,0.7,1.9,1.5,5.1
			c0.8,3.3,1.2,7,2.2,10.2c1,3.2,2,4.7,1.9,6.4C300.8,209.8,295.8,197.9,291.4,193.8 M320,192.4c0,0-1.3,3.2-8.2,6.6
			c-6.8,3.4-6.2,7-8.1,10.2c0,0,3.2-2.6,6.5-4.3C314.4,202.7,321,197.9,320,192.4"/>
		<path class="st2" d="M277.2,83.3c-0.9,3.2-3.8,16.3,2.8,27.1c4.1,6.6,15.4,12.5,16.9,19.8c-8.5-4-18.7-13.2-21.1-22.9
			c0,0-3.1,12.1,3.9,22.3c4.3,6.2,12.5,10.2,18.8,14c0,0,1.6,1.6,1.7,5.4c0,0-22-11.9-24.2-21.1c0,0-2.6,15.5,11.3,23.8
			c0,0,12.8,10.6,14.2,20.4c-3.8-5.5-16.9-14.9-18.7-22.1c-0.2,0.5-3.9,12.2,6.9,24.5c4.9,5.6,9.3,9.5,11.4,16.1
			c0.3,0.9,0.3,1.7,0.3,2.7c0.1,1.3,0.1,2.8-0.2,3.4l5.3,0.5l0-1.3c0-0.5,0.1-1,0.1-1.5c0.4-4.2,4.8-7.6,7.8-10.1
			c2.9-2.3,4.9-3.7,6.8-6.3c1.1-1.5,2.2-3,3.1-4.6c4.3-7.4,3.4-13.7,0.8-22.2c-2.4,7.9-7.2,13.7-12.8,19.2c-1.2,1.1-2.2,2.4-3.3,3.6
			c-0.8,0.9-1.4,1.7-2,2.6l-0.8,1.3c-0.1-2.4,1.2-5.2,4.5-8.9c3-3.3,6-6.5,8-10.5c4.4-8.8,2.1-25.8-3.8-32.8c0,0,1,13.7-3.2,23.4
			c0,0-4.1,8.4-5,8.9c0.1-2.7,0.4-4.7,1.5-7.1c2.8-6.4,5.8-14.2,2.5-26.8c-0.4-1.4-1.1-2.7-1.8-4.1l-7.7-14.3l1.3,13.2
			c0.3,3.3,0.3,6.6,0,9.3l-0.6,4.3l-0.4,1.4c-0.4,0.1-0.5-0.9-0.7-1.2c-0.3-0.5-0.5-1.1-0.5-1.8c0-0.6,0-1.3,0.1-2.2
			c0-0.4,0.1-0.7,0.1-1.1c0.6-4.9,0.7-9.8-1.4-14.4c-2.3-5.4-6.6-9.9-11.8-15.8c-4-4.5-7-9.8-9.6-15.5
			C277.4,82.7,277.3,83,277.2,83.3 M288.9,164.2c0.8,1.3,0.6,2.5,7.1,7.8c1.9,1.6,4.1,3.2,5.2,5.5c2,4.4,0.5,7.3,0.4,7.5
			c-0.3-1.7-1.6-4.1-3.9-6.5c-1.3-1.4-3.1-2.3-4.4-3.8C289.4,169.9,288.5,164.2,288.9,164.2 M320.8,167.2c1.5,6.2-4.5,11.4-8.2,13.6
			c-3.2,1.9-5.6,5.3-5.6,5.3c0.9-3.3,0.1-7.1,6.5-11.4C319.8,170.6,320.8,167.2,320.8,167.2 M316.3,146.5c2.8,5.7-1.7,12.1-4.9,15.1
			c-2.7,2.6-4.2,6.5-4.2,6.5c0.8-3-0.3-5.8,4.3-12C316,149.9,316.3,146.5,316.3,146.5 M284.8,143.7l0.2,0.2
			c1.8,1.1,9.8,3.9,12.5,7.9c3.3,4.7,3.1,7.9,3,8.1c-1-2.2-3.3-4.3-8.4-7.9C287,148.3,284.8,143.7,284.8,143.7 M306.7,125.8
			c3.9,5.7,2.6,12.4,1,17.1c-1.2,3.5-2.4,4.7-2.4,4.7c-0.7-3.4-2-3.2-0.1-10.9C307,129,306.7,125.8,306.7,125.8 M281.7,124.5
			l0.2,0.2c2.1,2.4,4.4,3.9,7.1,5.2c2.2,1,4.4,1.7,6.4,3.2c4.7,3.4,3.9,6.3,3.9,6.4c-1.3-2-5.1-3-10.7-5.8
			C283,130.9,281.7,124.5,281.7,124.5 M281.1,99.3l0.2,0.3c1.5,3.3,3.6,5.8,6.2,8c2.1,1.9,4.3,3.3,6,5.6c4.1,5.2,2.3,8.1,2.2,8.3
			c-0.8-2.7-4.6-5.5-9.8-10.4C280.6,106.3,281.1,99.3,281.1,99.3"/>
		<path class="st2" d="M101.8,301.5c-1.6-0.1-3.2,0.4-3.8,2c-0.9,2.2,0,4.2,1.3,5.9c4.9,6,13.5,7,20.6,7.1l7.3,0.3l2.9-9
			c0,0-1.7,0.7-4.8,0.9c-5.9,0.5-12.1-1.5-17-4.6C106.2,302.8,103.9,301.6,101.8,301.5"/>
		<path class="st2" d="M129.9,299.9c0.8,0.5,1.8,1.5,1.5,3.3c-0.4,2.4-3.1,3.1-6,3.1c-2,0-4.2-0.1-6.2-0.5c-4.5-0.8-8-2.7-10.8-4.1
			c0,0.1,6.3-0.2,10.6-1.3C121.8,299.6,127.1,298.2,129.9,299.9"/>
		<path class="st2" d="M120,86.1h139c4.5,0,7,2.3,8.6,6.1v111.6c0,0,3,33.2-27.2,55.3c0,0-20.2,15.6-50.6,27.9
			c0,0-40.2-15.6-56.7-30.8c0,0-20.9-15.9-21.8-51.9l0.2-109.4C111.5,90,114.9,86.1,120,86.1 M124.2,91.1c-9-0.4-8,1.9-8,8.3
			L116,202.8c0.9,34,20.5,49.1,20.5,49.1c15.5,14.4,53.2,29.2,53.2,29.2c28.6-11.6,47.6-26.4,47.6-26.4
			c28.4-20.9,25.5-52.3,25.5-52.3V96.9c0-4.5-0.9-6.2-8-5.8H124.2z"/>
		<path class="st3" d="M141.4,185.8v4c0,0-0.7-0.4-1-1.2c-0.5-1.1-0.1-2.5,1-3V185.8z"/>
		<path class="st3" d="M143.7,196.8v4c0,0,0.7-0.4,1-1.2c0.5-1.1,0.1-2.5-1-3V196.8z"/>
		<path class="st3" d="M141.7,208.2v2.2c0,0-0.4-0.2-0.6-0.7C140.8,209.2,141.1,208.4,141.7,208.2L141.7,208.2z"/>
		<path class="st0" d="M101.9,327.1l-0.3-0.1c0.2-1.5-0.2-2.5-1.2-3c-0.8-0.3-1.4-0.2-1.7,0.5c-0.3,0.5-0.2,1.1,0.5,1.9l1.2,1.5
			c0.6,0.8,0.7,1.7,0.2,2.6c-0.8,1.4-2,1.7-3.8,1c-0.4-0.2-0.9-0.5-1.3-0.9c-0.2-0.2-0.3-0.3-0.4-0.3c-0.2-0.1-0.3,0-0.5,0.1
			l-0.3-0.1l1.2-2.6l0.3,0.1c-0.4,1.7,0,2.8,1.2,3.4c0.9,0.4,1.5,0.2,1.9-0.6c0.3-0.6,0.1-1.2-0.6-1.9l-0.5-0.7
			c-1-1.2-1.3-2.3-0.8-3.2c0.8-1.4,1.9-1.7,3.5-1c0.3,0.2,0.7,0.4,1.1,0.8c0.2,0.2,0.3,0.3,0.4,0.4c0.2,0.1,0.4,0,0.5-0.2l0.3,0.2
			L101.9,327.1z"/>
		<path class="st0" d="M106.5,334l-0.1,0.3l-4.2-1l0.1-0.3c0.8,0.2,1.2,0,1.3-0.6l1.4-5.7c0.2-0.6-0.1-1-0.9-1.1l0.1-0.3l4.2,1
			l-0.1,0.3c0,0-0.1,0-0.1,0c-0.7-0.2-1.2,0-1.3,0.6l-1.4,5.7C105.4,333.4,105.7,333.8,106.5,334"/>
		<path class="st0" d="M112.1,327.9l-0.3,3.1c1.6,0.2,2.4-0.3,2.4-1.7c0.1-1.2-0.3-1.8-1.3-1.9C112.3,327.4,112,327.6,112.1,327.9
			 M116.8,335.4l0,0.3l-2.5-0.2l-2.2-4l-0.3,0l-0.2,2.4c-0.2,0.7,0.2,1.2,0.9,1.2l0,0.3l-4.1-0.3l0-0.3c0.8,0.1,1.2-0.3,1.1-1
			l0.4-5.3c0.1-0.8-0.2-1.2-0.9-1.2l0-0.3l3.9,0.3c2.2,0.2,3.3,1,3.2,2.4c-0.1,1-0.7,1.7-2.1,1.9l2.2,3.7
			C116.5,335.3,116.6,335.4,116.8,335.4"/>
		<path class="st0" d="M123.8,328.4v3.1c1.6,0.1,2.4-0.5,2.2-1.9c0-1.2-0.5-1.8-1.5-1.8C124,327.8,123.7,328,123.8,328.4
			 M129.1,335.4v0.3h-2.5l-2.5-3.8h-0.3v2.4c-0.1,0.8,0.3,1.1,1,1.1v0.3h-4.1v-0.3c0.8,0,1.1-0.3,1-1.1v-5.4c0.1-0.8-0.3-1.2-1-1.1
			v-0.3h3.9c2.2,0,3.4,0.7,3.4,2.1c0,1-0.6,1.7-1.9,2.1l2.5,3.5C128.8,335.3,129,335.4,129.1,335.4"/>
		<path class="st0" d="M138.2,327.4v0.3c-0.7,0-1,0.4-0.9,1v3.9c0,1.1-0.3,1.9-0.7,2.3c-0.5,0.5-1.3,0.8-2.4,0.8
			c-1.1,0-1.9-0.2-2.5-0.7c-0.6-0.4-0.9-1.2-0.9-2.2v-4c0.1-0.8-0.3-1.2-1-1.1v-0.3h4.1v0.3c-0.9-0.1-1.3,0.3-1.2,1.1v4
			c0,1.6,0.6,2.4,1.8,2.4c1.5,0,2.2-0.9,2.1-2.6V329c0.1-0.8-0.3-1.2-1.2-1.2v-0.3H138.2z"/>
		<path class="st0" d="M139.1,335.7v-0.3c0.8,0,1.2-0.4,1.1-1v-5.7c-0.5-0.6-0.9-0.9-1-0.9v-0.3h2.6l4.2,5.2V329
			c0.1-0.8-0.3-1.2-1.1-1.2v-0.3h2.6v0.3c-0.7,0.1-1,0.4-0.9,1v7.1h-0.3l-5.4-6.5v4.8c-0.1,0.8,0.3,1.2,1.1,1.2v0.3H139.1z"/>
		<path class="st0" d="M154.1,328.1v3.1c1.6,0.1,2.4-0.5,2.2-1.8c0-1.2-0.5-1.8-1.5-1.8C154.3,327.5,154,327.7,154.1,328.1
			 M159.4,335.1v0.3h-2.5l-2.5-3.8h-0.3v2.4c-0.1,0.8,0.3,1.1,1,1.1v0.3H151v-0.3c0.8,0,1.1-0.3,1-1.1v-5.4c0.1-0.8-0.3-1.2-1-1.1
			v-0.3h3.9c2.2,0,3.4,0.7,3.4,2.1c0,1-0.6,1.7-1.9,2.1l2.5,3.5C159.1,335,159.2,335.1,159.4,335.1"/>
		<path class="st0" d="M168.5,327.2v0.3c-0.7,0-1,0.4-0.9,1v3.9c0,1.1-0.3,1.9-0.7,2.3c-0.5,0.5-1.3,0.8-2.4,0.8
			c-1.1,0-1.9-0.2-2.5-0.7c-0.6-0.4-0.9-1.2-0.9-2.2v-4c0.1-0.8-0.3-1.2-1-1.1v-0.3h4.1v0.3c-0.9-0.1-1.3,0.3-1.2,1.1v4
			c0,1.6,0.6,2.4,1.8,2.4c1.5,0,2.2-0.9,2.1-2.6v-3.7c0.1-0.8-0.3-1.2-1.2-1.2v-0.3H168.5z"/>
		<path class="st0" d="M169.2,335.4v-0.3c0.8,0,1.2-0.4,1.1-1v-5.7c-0.5-0.6-0.9-0.9-1-0.9v-0.3h2.6l4.2,5.2v-3.7
			c0.1-0.8-0.3-1.2-1.1-1.2v-0.3h2.6v0.3c-0.7,0.1-1,0.4-0.9,1v7.1h-0.3l-5.4-6.5v4.8c-0.1,0.8,0.3,1.2,1.1,1.2v0.3H169.2z"/>
		<path class="st0" d="M186.8,329.1h-0.3c-0.5-1.5-1.3-2.2-2.4-2.2c-0.9,0.1-1.3,0.4-1.3,1.1c-0.1,0.6,0.3,1.1,1.3,1.5l1.8,0.9
			c0.9,0.5,1.3,1.3,1.3,2.2c-0.1,1.6-1.1,2.4-3,2.5c-0.5,0-1-0.1-1.6-0.2c-0.3-0.1-0.4-0.1-0.5-0.1c-0.2,0-0.3,0.1-0.4,0.3h-0.3
			v-2.9h0.3c0.4,1.7,1.2,2.6,2.5,2.6c0.9,0,1.5-0.5,1.5-1.3c0-0.6-0.4-1.1-1.4-1.5l-0.8-0.4c-1.5-0.7-2.1-1.5-2.1-2.6
			c0.1-1.6,1-2.4,2.7-2.4c0.4,0,0.8,0.1,1.4,0.3c0.3,0.1,0.4,0.1,0.5,0.1c0.2,0,0.3-0.1,0.4-0.4h0.4V329.1z"/>
		<path class="st0" d="M197,334.6v0.3h-4.1v-0.3c0.8,0,1.2-0.3,1.1-0.9v-2.7h-2.9v2.7c-0.1,0.6,0.3,0.9,1.1,0.9v0.3h-4.1v-0.3
			c0.8,0,1.1-0.3,1-0.9v-5.8c0-0.6-0.3-0.9-1-0.9v-0.3h4.1v0.3c-0.8,0-1.1,0.3-1.1,0.9v2.5h2.9v-2.5c0-0.6-0.3-0.9-1.1-0.9v-0.3h4.1
			v0.3c-0.7,0-1.1,0.3-1,0.9v5.8C195.9,334.2,196.3,334.5,197,334.6"/>
		<path class="st0" d="M199.7,332h2.4l-1.2-3L199.7,332z M205.8,334.6v0.3h-3.9v-0.3h0.1c0.6,0,0.9-0.2,0.9-0.5
			c0-0.3-0.2-0.9-0.6-1.6h-2.7c-0.4,0.9-0.6,1.4-0.6,1.6c0,0.3,0.3,0.4,0.9,0.5h0v0.3h-2.5v-0.3c0.5,0,0.9-0.5,1.2-1.4l2.7-6.7h0.3
			l2.7,6.4C205,334.2,205.4,334.7,205.8,334.6"/>
		<path class="st0" d="M216.7,326.6v0.3c-0.4,0-0.7,0.3-0.9,0.8l-2.4,7.2h-0.3l-2-5.6h0l-2.2,5.6h-0.3l-2.6-7.2
			c-0.2-0.5-0.4-0.8-0.9-0.8v-0.3h3.6v0.3c-0.5,0-0.8,0.2-0.8,0.5c0,0.1,0,0.3,0.1,0.4l1.4,4.4h0l1.4-3.7l-0.4-1.2
			c-0.2-0.3-0.5-0.4-0.9-0.4v-0.3h3.8v0.3h-0.1c-0.5,0-0.8,0.2-0.8,0.5c0,0.1,0,0.2,0.1,0.4c0,0.1,0,0.2,0,0.3l1.3,4h0l1.3-4.1
			c0.1-0.1,0.1-0.3,0.1-0.5c0-0.3-0.2-0.5-0.7-0.6h-0.1v-0.3H216.7z"/>
		<path class="st0" d="M229,335.3v0.3h-4.1v-0.3c0.8,0,1.2-0.3,1.1-0.9v-2.7H223v2.7c-0.1,0.6,0.3,0.9,1.1,0.9v0.3H220v-0.3
			c0.8,0,1.1-0.3,1-0.9v-5.8c0-0.6-0.3-0.9-1-0.9v-0.3h4.1v0.3c-0.8,0-1.1,0.3-1.1,0.9v2.5h2.9v-2.5c0-0.6-0.3-0.9-1.1-0.9v-0.3h4.1
			v0.3c-0.7,0-1.1,0.3-1,0.9v5.8C227.9,335,228.2,335.3,229,335.3"/>
		<path class="st0" d="M234.1,327.6c-1.4,0.1-2.1,1.4-2.2,3.9c0,2.6,0.7,3.9,2.2,3.9c1.4,0,2.1-1.3,2.1-3.9
			C236.2,329,235.5,327.7,234.1,327.6 M234.1,327.2c2.7,0.2,4.1,1.6,4.3,4.3c-0.2,2.7-1.6,4.1-4.3,4.2c-2.7-0.1-4.2-1.5-4.3-4.2
			C229.9,328.8,231.4,327.4,234.1,327.2"/>
		<path class="st0" d="M244.8,329.8h-0.3c-0.5-1.5-1.3-2.2-2.4-2.2c-0.9,0.1-1.3,0.4-1.3,1.1c-0.1,0.6,0.3,1.1,1.3,1.5l1.8,0.9
			c0.9,0.5,1.3,1.2,1.3,2.2c-0.1,1.6-1.1,2.4-3,2.5c-0.5,0-1-0.1-1.6-0.2c-0.3-0.1-0.4-0.1-0.5-0.1c-0.2,0-0.3,0.1-0.4,0.3h-0.3
			v-2.9h0.3c0.4,1.7,1.2,2.6,2.5,2.6c1,0,1.5-0.5,1.5-1.3c0-0.6-0.4-1.1-1.4-1.5l-0.8-0.4c-1.5-0.7-2.2-1.5-2.1-2.6
			c0.1-1.6,1-2.4,2.7-2.4c0.4,0,0.8,0.1,1.4,0.3c0.3,0.1,0.4,0.1,0.5,0.1c0.2,0,0.3-0.1,0.4-0.4h0.4V329.8z"/>
		<path class="st0" d="M245.9,335.6v-0.3c0.3-0.1,0.6-0.1,0.7-0.2h0c0.2-0.1,0.3-0.4,0.3-0.9v-5.4c0.1-0.8-0.3-1.2-1-1.1v-0.3h3.9
			c2.1,0,3.2,0.8,3.2,2.2c0,0.8-0.4,1.4-1.1,1.9c-0.3,0.2-0.7,0.3-1.1,0.4c-0.3,0-0.9,0-1.9,0v2.3c-0.1,0.8,0.3,1.1,1.1,1.1v0.3
			H245.9z M248.9,328.3v3.2c1.5,0.2,2.1-0.4,2-1.8c0-1.3-0.5-1.9-1.5-1.9C249.1,327.8,248.9,328,248.9,328.3"/>
		<path class="st0" d="M257.9,335.3v0.3h-4.3v-0.3c0.8,0,1.2-0.3,1.1-0.9v-5.8c0-0.6-0.3-0.9-1.1-0.9v-0.3h4.3v0.3h-0.1
			c-0.8,0-1.1,0.3-1.1,0.9v5.8C256.6,335,257,335.3,257.9,335.3"/>
		<path class="st0" d="M264.5,334.7l0,0.3l-4.3,0.3l0-0.3c0.9,0,1.3-0.4,1.1-1.2l-0.4-6.4c-1.4,0.1-2.2,0.8-2.2,2.2l-0.3,0l-0.1-2.4
			l7.2-0.4l0.2,2.4l-0.4,0c-0.2-1.4-1-2-2.4-1.9l0.4,6.4C263.2,334.5,263.7,334.9,264.5,334.7"/>
		<path class="st0" d="M268.2,331.7l2.3-0.4l-1.8-2.7L268.2,331.7z M274.7,333l0.1,0.3l-3.9,0.7l-0.1-0.3c0,0,0.1,0,0.1,0
			c0.6-0.1,0.9-0.4,0.7-0.6c-0.1-0.3-0.4-0.8-0.9-1.5l-2.7,0.5c-0.2,0.9-0.3,1.5-0.3,1.6c0,0.2,0.4,0.4,1,0.3c0,0,0,0,0,0l0.1,0.3
			l-2.4,0.5l-0.1-0.3c0.5-0.1,0.8-0.6,0.9-1.6l1.4-7.1l0.3-0.1l3.9,5.8C273.8,332.8,274.3,333.3,274.7,333"/>
		<path class="st0" d="M282,326.3l1.2,2.5l-5.8,4l-0.2-0.2c0.6-0.5,0.7-0.9,0.4-1.3l-3.3-4.8c-0.3-0.5-0.8-0.6-1.4-0.2l-0.2-0.2
			l3.5-2.4l0.2,0.2c-0.8,0.4-0.9,1-0.4,1.6l3.2,4.7c0.2,0.5,0.7,0.4,1.3-0.1c1.3-0.8,1.7-2,1.2-3.7L282,326.3z"/>
		<path class="st5" d="M71.2,43.5l4.4-3.6l-0.2-2.6c0-0.3,0-0.5,0.2-0.6c0.3-0.2,1.3-0.4,3.2-0.4c1.9-0.1,3,0.1,3.2,0.4
			c0.2,0.2,0.1,0.6-0.3,1c-0.4,0.4-0.6,0.8-0.7,1.2c-0.1,0.4-0.1,1.1,0.1,2.2L83,51.8c6.5-0.9,11,0.3,13.6,3.4
			c0.9,1.1,1.6,2.3,2,3.7c0.4,1.3,0.3,2.7-0.2,4.2c-0.6,1.5-1.1,2.4-1.4,2.7c-0.3,0.3-0.7,0.2-1.2-0.2c-0.8-0.7-1.6-1.1-2.4-1.1
			c-0.8-0.1-2,0.2-3.7,0.9l-0.3-0.9c1.5-0.8,2.6-1.6,3.4-2.2c0.8-0.7,1.2-1.3,1.3-2c0.1-0.7-0.4-1.7-1.5-3c-1.1-1.3-2.5-2.4-4.3-3
			c-1.8-0.7-4-1.1-6.6-1.2c-1.7-4.6-3.3-8.7-4.9-12.1L72,44.8l23.5,28.8c0.2,0.3,0.3,0.6,0.2,0.9c-0.1,0.3-0.4,0.8-0.9,1.4
			c-0.5,0.7-0.9,1.2-1.4,1.5c-0.1,0.1-0.2,0-0.4-0.3l-1.2-1.6c-0.8-1.1-1.7-2.2-2.8-3.5L69.6,48.3c-1.4-1.8-2.5-3-3.3-3.7
			C67.8,44.1,69.4,43.8,71.2,43.5"/>
		<path class="st5" d="M55.1,58.6c3.2,4.4,5.1,8,5.7,10.7c0.6,2.8,0.4,6.1-0.6,10l1,0.4c2.1-5.8,2.9-10,2.6-12.7
			c-0.4-2.7-2.1-6.4-5.3-11.2l4.6-3.7c1.7,2.1,3.1,4.1,4.2,5.8c1.2,1.7,1.8,2.8,1.9,3.3c0.1,0.5-0.1,0.9-0.7,1.4
			c-0.6,0.5-1.9,1.2-3.8,2.2l0.3,0.8c1.2-0.4,2.2-0.6,3.1-0.7c0.8,0,1.6,0.2,2.4,0.7c0.7,0.5,1.2,0.6,1.5,0.4
			c0.3-0.2,0.6-0.8,1.1-1.9c0.5-1.1,0.7-1.9,0.6-2.7c0-0.7-0.2-1.4-0.5-2.1c-0.3-0.6-1-1.7-2-3.2c-1-1.5-2.4-3.5-4.3-6.1
			c0.4-1,0.5-1.6,0.3-1.8c-0.2-0.2-1-0.3-2.6-0.2c-1.6,0-2.5,0.1-2.7,0.3c-0.2,0.2-0.3,0.5-0.3,0.8l0.3,2l-12.1,9.8
			c-0.7,0.6-1.4,1-2,1.3l2,1c0.2-0.5,0.7-1,1.3-1.5L55.1,58.6z"/>
		<path class="st5" d="M87.3,76.6l-0.7-0.7c-0.3-0.3-0.6-0.6-0.9-1L79,66.6c0.5-1,0.6-1.6,0.4-1.8c-0.2-0.2-1.1-0.2-2.7,0
			c-1.6,0.3-2.5,0.5-2.8,0.7c-0.2,0.2-0.3,0.4-0.2,0.8l0.4,2l-5.6,4.6c-1.9,0.4-3.5,0.8-4.7,1.4c0.9,1,1.8,2,2.6,3l7.9,9.7
			c0.8,1,1.5,2,2.1,2.9c0.2,0.3,0.3,0.3,0.5,0.2c0.1-0.1,0.4-0.4,0.8-1c0.4-0.5,0.7-1.1,1-1.6c0.3-0.5,0.4-0.9,0.4-1
			c0-0.1-0.1-0.2-0.2-0.4l-2.2-2.7l6.4-5.2l1.8,2.2c0.2,0.3,0.4,0.3,0.6,0.2c0.2-0.1,0.5-0.6,1-1.4c0.5-0.8,0.8-1.4,1-1.7
			C87.5,77,87.5,76.8,87.3,76.6z M75.7,82.2l-6.6-8l6.4-5.2l6.6,8L75.7,82.2z"/>
		<path class="st5" d="M119.1,49.4l-4.7-13.2l-2.8,1c-0.8,0.3-1.4,0.6-1.8,1l-1.5-1.6c0.7-0.1,1.5-0.3,2.3-0.6l3.3-1.2l0.5-1.9
			c0.1-0.3,0.2-0.4,0.3-0.5c0.3-0.1,1.3,0,2.8,0.3c1.6,0.3,2.4,0.7,2.5,0.9c0.1,0.3-0.4,0.9-1.6,1.7l4.6,12.9l2.2,0.5
			c2.2-3.1,3.8-6,4.6-8.8c0.8-2.7,1.1-5.7,0.7-8.7l-4.1,1.4l0.3,0.9c0.1,0.4,0.1,0.7,0,0.9c-0.1,0.2-0.6,0.6-1.3,1.2
			c-0.7,0.6-1.2,0.9-1.5,1c-0.3,0.1-0.4,0-0.5-0.3c-0.4-1.5-0.7-2.7-1-3.5l-2-5.6c-0.8,1.4-1.7,3-2.8,4.7l-0.8-0.4
			c3-7,4.5-13.9,4.5-20.7c1.3,0.1,2.4,0.1,3.5,0.3c1.1,0.1,1.7,0.2,1.9,0.3c0.2,0.1,0.3,0.2,0.4,0.3c0.1,0.3-0.1,0.6-0.6,0.8
			c-0.5,0.3-0.8,0.5-0.9,0.7c-0.1,0.2-0.3,1.1-0.8,2.7l6-2.2l0.4-1.4c0.1-0.3,0.2-0.5,0.4-0.6c0.3-0.1,1.3,0.1,3,0.5
			c1.7,0.4,2.6,0.8,2.8,1.2c0.1,0.2,0,0.3-0.1,0.4c-0.1,0.1-0.5,0.3-1.1,0.5c-0.6,0.2-1.2,0.7-1.7,1.4c-0.5,0.7-1.4,2.3-2.7,4.8
			l4.2-1.5l0.6-1.7c0.1-0.4,0.3-0.6,0.5-0.7c0.2-0.1,1.1,0,2.6,0.3c1.5,0.3,2.3,0.5,2.4,0.8c0.1,0.2-0.2,0.7-0.9,1.5l2.1,5.8
			c0.2,0.6,0.4,1.1,0.5,1.3c0.1,0.2,0.2,0.4,0.2,0.5c0,0.1,0,0.3-0.2,0.5c-0.2,0.2-0.6,0.6-1.3,1c-0.6,0.5-1.1,0.7-1.4,0.9
			c-0.3,0.1-0.5,0-0.6-0.3l-0.4-1.2l-6.3,2.2c0,0.1,0,0.2,0,0.3c0.7-0.2,1.5-0.3,2.2-0.3c0.7,0,1.1,0.1,1.1,0.2
			c0.1,0.2-0.1,0.5-0.4,0.9l2.8,7.7c0.1,0.4,0.3,0.6,0.5,0.6c0.2,0.1,0.7,0,1.4-0.2c0.7-0.2,2-0.7,4-1.3c0.8-0.3,1.3-0.6,1.6-1
			c0.3-0.4,0.3-1.1,0.2-2.2c-0.1-1.1-0.5-3-1.1-5.7l0.9-0.3c0.7,1.9,1.2,3.2,1.6,4.1c0.4,0.8,0.8,1.3,1.1,1.6
			c0.4,0.2,0.9,0.4,1.6,0.4c0.3,0,0.5,0.1,0.6,0.4c0.1,0.2,0,0.9-0.3,2c-0.2,1.1-1,2-2.3,2.7c-1.3,0.7-3.3,1.6-6,2.5
			c-2.1,0.7-3.6,1.1-4.6,1c-1-0.1-1.8-1.1-2.5-3l-2.5-6.9c-0.1,2.9-0.8,5.6-2.1,8c-1.3,2.5-3.1,5-5.4,7.4c1.8,0.2,3.7,0.1,5.7-0.2
			c2-0.3,5.6-1.5,10.9-3.3c5.2-1.9,10-3.9,14.3-6.1l0.3,0.9c-1.5,1-2.5,1.8-2.9,2.3c-0.4,0.6-0.6,1.3-0.6,2.2c0,0.4-0.2,0.7-0.5,0.8
			c-0.3,0.2-2.2,0.9-5.5,2.1c-3.3,1.2-6.5,2.2-9.4,3.1c-2.9,0.8-5,1.3-6.3,1.5c-1.3,0.1-2.5,0.1-3.6-0.2c-1.1-0.3-2.9-0.9-5.4-1.9
			c-0.5-0.2-1-0.3-1.3-0.1c-0.3,0.1-0.8,1-1.4,2.5c-0.6,1.6-1,3-1.3,4.3c-0.1,0.4-0.2,0.7-0.4,0.7c-0.5,0.2-1.9-0.9-4.3-3.2
			C116.5,52.1,117.9,50.5,119.1,49.4 M123.7,23.7l6.3-2.2c0.6-2.1,1-4.1,1.2-6l-6.5,2.3c-0.6,2.1-1.4,4.1-2.2,5.9
			C123,23.6,123.3,23.6,123.7,23.7 M128.9,23.3l-5.1,1.8l2.2,6.3l4.4-1.6C130,27,129.5,24.8,128.9,23.3 M139.8,26.5l-2.2-6.3l-5,1.8
			c0.7,2.6,1.2,4.8,1.3,6.6L139.8,26.5z M105.9,19l-0.2,0.8c2.4,1.1,4.6,3.1,6.6,6c0.4,0.6,0.7,0.9,1,1.2c0.2,0.2,0.5,0.2,0.9,0.1
			c0.6-0.2,1-0.8,1.2-1.8c0.2-1,0.1-1.8-0.1-2.5c-0.3-1-1.3-1.7-3-2.3C110.6,20,108.5,19.5,105.9,19 M137.8,30.9l-0.3,0.7
			c1.3,0.7,2.2,1.3,2.8,1.8c0.5,0.4,1.1,0.9,1.7,1.6c0.6,0.6,1,1,1.2,1.1c0.2,0.1,0.4,0.1,0.5,0.1c0.5-0.2,0.8-0.7,0.9-1.5
			c0.1-0.8,0-1.6-0.2-2.3c-0.2-0.7-0.8-1.1-1.7-1.4C141.7,30.7,140.1,30.7,137.8,30.9"/>
		<path class="st5" d="M189.3,12.2l-0.5,8.9l13.5-0.3l2.2-3.2c0.2-0.4,0.5-0.5,0.7-0.5c0.3,0,1.2,0.7,2.6,2.1
			c1.4,1.4,2.1,2.3,2.1,2.7c0,0.2-0.3,0.3-0.9,0.3l-17.6,0.4c1.3,4.3,3.4,7.6,6.3,10c2.9,2.3,7.4,4.4,13.5,6.3l-0.1,0.9
			c-0.4,0-0.8,0-1.1,0c-2.1,0-3.8,0.9-5.1,2.5c-0.2,0.2-0.3,0.3-0.5,0.3c-0.4,0-2-1.1-4.7-3.2c-2.7-2.2-4.9-4.6-6.4-7.2
			c-1.6-2.6-2.6-5.8-3.2-9.6l-1.4,0c-0.7,5.4-2.6,9.7-5.8,13c-3.2,3.3-8.2,6.2-15.3,8.9l-0.5-1c6.1-3.4,10.4-6.6,12.8-9.6
			c2.4-3,3.9-6.8,4.4-11.1l-13.8,0.3c-0.9,0-1.5,0.1-2,0.4l-0.9-2c0.7,0.1,1.5,0.2,2.4,0.2l14.4-0.3c0.3-2.9,0.5-5.9,0.6-8.9
			l-11.7,0.2c-0.9,0-1.5,0.1-2,0.4l-0.9-2.2c0.7,0.1,1.5,0.2,2.4,0.2l12.2-0.3c0-1.4,0-3-0.1-4.7c0-1.7-0.1-3.7-0.2-5.9
			c2.7,0.5,4.4,0.9,5.3,1.3c0.9,0.3,1.3,0.6,1.3,0.7c0,0.2-0.2,0.3-0.6,0.5c-0.9,0.3-1.3,1-1.3,2c0,1-0.1,3-0.2,6l9.2-0.2l2-3
			c0.2-0.3,0.4-0.4,0.5-0.4c0.2,0,0.4,0.1,0.5,0.2c0.2,0.1,0.8,0.6,1.8,1.5c1,0.9,1.6,1.5,1.9,1.9c0.3,0.3,0.4,0.6,0.4,0.9
			c0,0.3-0.3,0.4-0.8,0.4L189.3,12.2z"/>
		<path class="st5" d="M243,12.7l22.8,7.8l3.1-2.5c0.4-0.3,0.7-0.4,1-0.2c0.3,0.1,1,1.1,2,2.9c1,1.8,1.4,2.9,1.3,3.2
			c-0.1,0.4-0.5,0.4-1.1,0.2l-30.5-10.4l-10.8,31.7l25.8,8.8l3.3-2.5c0.4-0.3,0.8-0.4,1.1-0.3c0.3,0.1,1,1.1,1.9,3.1
			c1,2,1.4,3.1,1.3,3.4c-0.1,0.3-0.6,0.3-1.3,0.1l-32.9-11.2l-1.4,1.2c-0.4,0.3-0.7,0.4-0.8,0.4c-0.3-0.1-1.4-1.4-3.2-4
			c1-0.4,1.7-0.8,2-1.1c0.3-0.3,0.6-0.8,0.8-1.7l10-29.4c0.4-1.3,0.8-2.6,1.2-3.9C240.2,9.7,241.7,11.2,243,12.7 M247.9,25.7l4,1.4
			c-1.2,3.3-2.2,5.7-2.9,7l-10.3-3.5c-0.6-0.2-1.1-0.4-1.6-0.7l-0.1,2c0.5,0,1,0.1,1.5,0.3l9.8,3.4c-1.3,2.6-3,4.5-4.9,5.7
			c-2,1.3-5.5,2.4-10.6,3.4l0.1,1c4.7-0.2,8.3-0.7,10.8-1.5c2.5-0.8,4.5-2.2,6.1-4.1c1.2,1.6,2.3,3.4,3.3,5.3c0.9,2,1.5,3.5,1.8,4.6
			c0.2,1.1,0.4,1.8,0.5,2c0.1,0.2,0.3,0.4,0.6,0.5c0.3,0.1,0.8-0.1,1.3-0.6c0.6-0.5,1-1.2,1.3-2.1c0.3-0.9,0.3-1.7,0-2.5
			c-0.3-0.8-1-1.8-2.3-3.1c-1.3-1.2-3.3-2.8-6-4.9c0.7-0.9,1.3-1.8,1.7-2.6l13.8,4.7c0.6,0.2,1,0.1,1.2-0.3c0.1-0.4-0.3-1.4-1.4-3.1
			c-1.1-1.7-1.7-2.6-2-2.7c-0.3-0.1-0.6,0-1.1,0.3l-2.5,2.1l-7.2-2.5c1-1.8,2-4.1,3-6.9l10.2,3.5c0.4,0.1,0.7,0,0.8-0.3
			c0.1-0.2,0-0.3,0-0.5c-0.1-0.2-0.4-0.8-1-1.9c-0.6-1-1-1.8-1.3-2.2c-0.3-0.4-0.5-0.6-0.6-0.7c-0.2-0.1-0.4,0-0.7,0.2l-2.6,1.9
			l-11.3-3.9c0.6-0.4,1.3-1,2.1-1.7c0.8-0.7,1.3-1.1,1.6-1.2c0.2-0.1,0.6-0.2,0.9-0.1c0.4,0,0.6,0,0.7-0.2c0.1-0.2,0-0.4-0.1-0.6
			c-0.1-0.2-0.6-0.7-1.4-1.4c-0.8-0.7-1.6-1.4-2.5-2.1c-3.2,5.2-7.1,9.3-11.7,12.1l0.5,0.8C243.1,28.7,245.9,27.1,247.9,25.7"/>
		<path class="st5" d="M314.5,54.3c0.7-1.7,1.1-3,1.3-4.1c0.2-1.1,0.1-2.2-0.2-3.5l0.9-0.5c1.6,1.9,2.7,3.5,3.2,4.7
			c0.6,1.2,0.6,2.2,0,3c-0.3,0.4-0.8,0.8-1.5,1.2c-0.7,0.4-1.5,0.5-2.3,0.4l6.3,4.9l1.8-0.6c0.4-0.1,0.7-0.1,0.9,0
			c0.2,0.1,0.5,1.2,1.1,3c0.5,1.9,0.6,3,0.4,3.3c-0.3,0.3-0.7,0.2-1.4-0.3c-1.4-1.1-4.2-1.4-8.4-0.9c0.3,1.7,0.3,2.7,0.2,2.9
			c-0.1,0.2-0.4,0.1-0.9-0.3l-11.7-9.1c-0.7-0.5-1.3-0.9-1.8-1l0.5-2.1c0.4,0.5,1,1.1,1.7,1.7l7.5,5.9L315,62c0.4-0.1,0.6-0.1,0.8,0
			c0.2,0.1,0.4,0.8,0.6,1.9c2.2-0.9,3.9-1.7,5.1-2.5l-13.8-10.7c-0.3,0.5-0.6,0.9-0.8,1.2c-1,1.3-2.1,2.1-3.3,2.3
			c-1.2,0.3-2.2,0.1-3-0.6c-0.5-0.4-0.8-0.8-0.9-1.3c-0.1-0.5,0-0.9,0.3-1.2c0.3-0.4,1-0.6,2.1-0.7c1.1-0.1,2.1-0.4,3.1-1
			c1-0.6,2-1.4,3.2-2.5l0.9,0.7c-0.3,0.7-0.6,1.3-0.9,1.8L314.5,54.3z M299.9,38.3c-0.5-1.3-1.1-2.7-2.1-4.2
			c-0.5,0.9-1.5,2.3-2.9,4.1l-18.2,23.3c-1.4,1.8-2.4,3-3.1,3.8c-0.7,0.8-1.1,1.2-1.2,1.4c-0.1,0.1-0.1,0.2,0,0.3
			c0.1,0.1,0.7,0.2,1.8,0.5c1.1,0.3,1.7,0.4,1.9,0.3c0.2,0,0.4-0.2,0.6-0.4l22.1-28.3l4,3.2c-2.3,1.8-5.3,3.9-9.2,6.4
			c0.3,1.8,0.2,3.5-0.2,5.2c-0.4,1.7-1.1,3.1-2,4.3c-0.9,1.2-1.6,1.8-2,1.9c-0.5,0.1-1-0.1-1.5-0.5c-0.6-0.4-1.4-1.3-2.4-2.7
			l-0.5,0.7c0.5,1.3,0.8,2.2,0.8,2.7c0,0.6-0.1,1.2-0.5,1.9c-0.3,0.7-0.4,1.2-0.2,1.3c0.4,0.3,1.5,0.5,3.5,0.6
			c2,0.1,3.8-0.7,5.2-2.6c1.5-1.9,2.3-3.8,2.3-5.5c0.1-1.8-0.3-4-1.1-6.5l6.8-2.7c2-0.8,3.1-1.2,3.4-1.2c0.3,0,0.7,0.1,1.2,0.4
			c0.5,0.3,0.9,0.3,1.1,0c0.2-0.2,0.2-0.6,0-1.1c-0.2-0.5-0.4-1.4-0.9-2.5c-0.4-1.2-0.7-1.8-0.8-1.9c-0.2-0.1-0.4-0.2-0.8,0
			l-1.8,0.5L299.9,38.3z M307.6,70.1l7.7,6c0.5,0.4,0.8,0.4,0.9,0.2c0.2-0.2,0-1.3-0.4-3.2c-0.4-1.9-0.7-2.9-0.9-3.1
			c-0.2-0.2-0.5-0.2-1-0.1l-3.2,0.8l-13-10.2c-0.7-0.6-1.3-1.1-1.7-1.7l-0.5,2.1c0.5,0.1,1.1,0.4,1.8,1l1.5,1.1
			c-3.3,4-6.3,6.5-9,7.6c-2.7,1-6.5,1.1-11.5,0.1l-0.3,1c6.2,2,10.8,2.5,13.9,1.6c3.1-0.9,6.4-3.5,10-7.9l2.5,2L296.4,78
			c-1,1.3-1.6,2.3-1.8,3c-0.2,0.7,0,1.4,0.7,2.2c0.6,0.8,1.9,1.9,4,3.5c2,1.6,3.5,2.5,4.5,2.9c1,0.4,1.9,0.5,2.8,0.4
			c0.9-0.1,1.5-0.3,1.7-0.6c0.2-0.3,0.2-0.7,0-1.3c-0.4-1-0.4-1.9,0-2.8c0.4-0.8,1.5-2.5,3.3-5l-0.8-0.6c-3.5,3.6-5.6,5.5-6.4,5.5
			c-0.8,0-2-0.6-3.6-1.8c-0.6-0.5-1-0.9-1.3-1.2c-0.3-0.4-0.4-0.7-0.3-0.9c0.1-0.3,0.3-0.7,0.8-1.3L307.6,70.1z"/>
		<path class="st2" d="M43.6,101.3c3.1,0,5.6,2.5,5.6,5.6c0,3.1-2.5,5.6-5.6,5.6c-3.1,0-5.6-2.5-5.6-5.6
			C38,103.8,40.5,101.3,43.6,101.3"/>
		<path class="st2" d="M338,101.3c3.1,0,5.6,2.5,5.6,5.6c0,3.1-2.5,5.6-5.6,5.6s-5.6-2.5-5.6-5.6C332.4,103.8,334.9,101.3,338,101.3
			"/>
		<path class="st5" d="M19.9,214.4l10.8-1.1l5.2,25.5l-0.7,0.1L4.4,227.8c0.9,3.9,1.4,6.1,1.5,6.6c0.3,0.8,0.6,1.5,1,2.1
			c1.1,1.9,3.6,3.2,7.6,3.8c0.1,0.1,0.3,0.1,0.4,0.1l0.2,1.2l-9.2,1l-4.7-23.1l0.7-0.1l30.8,11c-1-6.2-2.3-10.1-3.8-11.5
			c-1.6-2-4.5-3.2-8.7-3.4L19.9,214.4z"/>
		<path class="st5" d="M1,176.5l1.1,0c0,2.6,1.3,3.8,3.7,3.6l14.3,0.5c4.1,0.3,6.9,1.2,8.5,2.7c1.8,2,2.7,5,2.7,8.8
			c-0.1,4-1,7-2.7,9c-1.7,2.2-4.5,3.1-8.3,2.9l-14.9-0.5c-2.9-0.3-4.3,0.9-4.3,3.5L0,207l0.5-15.2l1,0c-0.5,3.3,0.9,4.8,4,4.5
			l14.9,0.5c5.8,0.3,8.8-1.8,8.9-6.2c0.2-5.5-2.9-8.2-9.4-8.2l-13.6-0.4c-3-0.3-4.6,1.1-4.7,4.2l-1.1,0L1,176.5z"/>
		<path class="st5" d="M41.8,134.9l1,0.3l-4.3,14.2l-1-0.3c0.8-2.8,0.1-4.4-2.2-4.9l-21.6-6.5l0,0.2l22.7,18.5l-0.4,1.2l-28.5,3.1
			l19.9,6c2.8,1.2,4.7,0.3,5.6-2.9l1,0.3l-3,9.9l-1-0.3c0.9-2.9,0.1-4.5-2.4-4.9l-20.3-6.1c-1.9-0.8-3.4,0.1-4.3,2.9l-1-0.3
			l3.3-10.9l22.8-2.5l-17.7-14.6l3.3-10.9l1,0.3c-1.1,2.7-0.1,4.4,2.9,5.1l18.9,5.7C39.3,138.6,41,137.8,41.8,134.9"/>
		<path class="st5" d="M373.5,243.3l-1-0.1c0.2-2.5-0.9-3.9-3.3-4l-14.2-2c-4-0.7-6.7-1.9-8.1-3.6c-1.6-2.2-2.1-5.2-1.7-9.1
			c0.6-3.9,1.8-6.8,3.7-8.7c1.9-2,4.8-2.6,8.6-2l14.7,2.1c2.8,0.6,4.4-0.4,4.7-3l1,0.1l-2.1,15.1l-1-0.1c0.8-3.2-0.4-4.8-3.5-4.9
			l-14.7-2.1c-5.7-0.9-8.9,0.8-9.6,5.2c-0.8,5.4,2,8.5,8.4,9.1l13.5,1.9c3,0.7,4.7-0.6,5.1-3.7l1,0.1L373.5,243.3z"/>
		<path class="st5" d="M364,183.3c0.5-0.1,1.1-0.1,1.8-0.2c0.7-0.1,1.4-0.1,2.1-0.2c0.8-0.1,1.5-0.1,2.2-0.2c0.7-0.1,1.4-0.1,2-0.2
			c0.6,0,1.1-0.1,1.5-0.1c0.4,0,0.7-0.1,0.8-0.1c0.4,0,0.7,0,1,0c0.2,0,0.4,0.2,0.6,0.4c0.1,0.2,0.2,0.5,0.3,1l0.2,2.1
			c0,0.2,0.1,0.3,0.1,0.3c0.1,0.1,0.2,0.1,0.3,0.1l1-0.1c0.2,0,0.3,0,0.3-0.1c0.1-0.1,0.1-0.2,0.1-0.3c0-0.1-0.1-0.4-0.1-1
			c-0.1-0.5-0.2-1.3-0.3-2.4c-0.1-1-0.3-2.4-0.5-4.2c-0.1-1.3-0.2-2.4-0.3-3.3c-0.1-0.8-0.1-1.5-0.1-2c0-0.5,0-0.8-0.1-0.9
			c0-0.1,0-0.2-0.1-0.2c0,0-0.1,0-0.2,0l-1.1,0.1c-0.1,0-0.2,0-0.3,0.1c-0.1,0-0.1,0.1-0.1,0.3l0.2,1.6c0,0.3,0,0.6-0.1,0.8
			c-0.1,0.2-0.2,0.3-0.5,0.5c-0.2,0.1-0.5,0.2-0.9,0.3c-0.1,0-0.4,0.1-0.9,0.1c-0.4,0.1-0.9,0.1-1.5,0.2c-0.6,0.1-1.2,0.2-1.9,0.2
			c-0.7,0.1-1.4,0.2-2.1,0.2c-0.7,0.1-1.3,0.1-1.9,0.2l-2.5,0.3c-0.4,0-0.9,0.1-1.6,0.2c-0.7,0.1-1.5,0.1-2.3,0.2
			c-0.9,0.1-1.8,0.2-2.7,0.3c-0.9,0.1-1.8,0.2-2.7,0.3c-0.9,0.1-1.7,0.2-2.5,0.2c-0.7,0.1-1.4,0.1-1.9,0.2c-0.5,0-0.8,0.1-0.9,0.1
			c-0.2,0-0.3,0-0.5-0.1c-0.2-0.1-0.3-0.2-0.5-0.5c-0.1-0.3-0.2-0.7-0.3-1.2l-0.1-1.4c0-0.1,0-0.2-0.1-0.2c-0.1,0-0.1,0-0.2,0
			l-1.1,0.1c-0.2,0-0.3,0-0.3,0.1c-0.1,0.1-0.1,0.2,0,0.3c0,0.2,0.1,0.5,0.1,1c0.1,0.5,0.2,1.2,0.3,2.1c0.1,0.9,0.3,2.1,0.4,3.5
			c0.1,0.6,0.1,1.3,0.2,2.2c0.1,0.9,0.2,1.9,0.3,2.9c0.1,1.1,0.2,2.2,0.3,3.3c0.1,1.1,0.2,2.2,0.3,3.3c0.1,1.1,0.2,2,0.3,2.9
			c0.1,0.9,0.1,1.6,0.2,2.2c0,0.6,0.1,1,0.1,1.2c0.2,0,0.6,0.1,1.1,0.1c0.5,0.1,1.1,0.1,1.7,0.2c0.7,0.1,1.4,0.2,2.1,0.3
			c0.7,0.1,1.4,0.2,2,0.3c0.6,0.1,1.1,0.2,1.5,0.2c0.4,0.1,0.6,0.1,0.7,0.1c0.1,0,0.2,0,0.3,0c0,0,0.1-0.1,0.1-0.1l0.3-0.9
			c0.1-0.1,0-0.2,0-0.3c-0.1-0.1-0.2-0.1-0.3-0.2c-0.4-0.1-0.8-0.3-1.4-0.5c-0.6-0.2-1.2-0.5-1.9-0.9c-0.7-0.3-1.4-0.7-2-1.2
			c-0.6-0.4-1.2-0.9-1.6-1.3c-0.4-0.5-0.7-0.9-0.8-1.4c-0.2-1.2-0.4-2.3-0.5-3.3c-0.1-1.1-0.3-2.1-0.4-3.1l-0.3-2.5
			c0.3,0,0.7-0.1,1.2-0.2c0.5-0.1,1.1-0.1,1.9-0.2c0.7-0.1,1.5-0.2,2.2-0.3c0.8-0.1,1.6-0.2,2.3-0.3c0.8-0.1,1.5-0.2,2.1-0.2
			c0.6-0.1,1.2-0.1,1.6-0.2c0.4,0,0.7-0.1,0.8-0.1L364,183.3z"/>
		<path class="st5" d="M355.5,142.5c0.5-0.2,1.1-0.3,1.7-0.6c0.6-0.2,1.3-0.4,2.1-0.6c0.7-0.2,1.4-0.4,2.1-0.6
			c0.7-0.2,1.3-0.4,1.9-0.6c0.6-0.2,1.1-0.3,1.5-0.4c0.4-0.1,0.6-0.2,0.7-0.2c0.4-0.1,0.7-0.2,1-0.2c0.2,0,0.5,0.1,0.6,0.3
			c0.2,0.2,0.3,0.5,0.5,0.9l0.6,2c0.1,0.2,0.1,0.3,0.2,0.3c0.1,0,0.2,0,0.3,0l1-0.3c0.2,0,0.3-0.1,0.3-0.2c0-0.1,0-0.2,0-0.4
			c0-0.1-0.2-0.4-0.3-0.9c-0.2-0.5-0.4-1.2-0.8-2.2c-0.3-1-0.8-2.3-1.3-4c-0.4-1.3-0.7-2.3-1-3.2c-0.2-0.8-0.4-1.4-0.5-1.9
			c-0.1-0.4-0.2-0.7-0.2-0.9c0-0.1-0.1-0.2-0.1-0.2c-0.1,0-0.1,0-0.2,0l-1,0.3c-0.1,0-0.2,0.1-0.3,0.1c-0.1,0.1-0.1,0.2-0.1,0.3
			l0.5,1.6c0.1,0.3,0.1,0.6,0.1,0.8c0,0.2-0.2,0.4-0.4,0.5c-0.2,0.2-0.5,0.3-0.8,0.4c-0.1,0.1-0.4,0.2-0.8,0.3
			c-0.4,0.1-0.9,0.3-1.5,0.5c-0.6,0.2-1.2,0.4-1.8,0.6c-0.7,0.2-1.3,0.4-2,0.7c-0.6,0.2-1.2,0.4-1.8,0.6l-2.4,0.8
			c-0.4,0.1-0.9,0.3-1.6,0.5c-0.7,0.2-1.4,0.4-2.2,0.7c-0.8,0.3-1.7,0.5-2.6,0.8c-0.9,0.3-1.8,0.5-2.6,0.8c-0.9,0.3-1.7,0.5-2.4,0.7
			c-0.7,0.2-1.3,0.4-1.8,0.6c-0.5,0.1-0.8,0.2-0.9,0.3c-0.2,0.1-0.3,0.1-0.5,0c-0.2,0-0.4-0.2-0.6-0.4c-0.2-0.2-0.4-0.6-0.5-1.1
			l-0.4-1.3c0-0.1-0.1-0.2-0.1-0.2c-0.1,0-0.1,0-0.2,0l-1.1,0.3c-0.2,0-0.2,0.1-0.3,0.2c0,0.1,0,0.2,0,0.3c0.1,0.2,0.2,0.5,0.3,0.9
			c0.2,0.4,0.4,1.1,0.7,2c0.3,0.9,0.7,2,1.1,3.4c0.2,0.6,0.4,1.3,0.7,2.1c0.3,0.9,0.6,1.8,0.9,2.8c0.3,1,0.7,2.1,1,3.2
			c0.3,1.1,0.7,2.1,1,3.2c0.3,1,0.6,2,0.9,2.8c0.3,0.9,0.5,1.6,0.7,2.1c0.2,0.6,0.3,0.9,0.3,1.1c0.2,0,0.6-0.1,1.1-0.1
			c0.5,0,1.1-0.1,1.8-0.1c0.7-0.1,1.4-0.1,2.1-0.1c0.7-0.1,1.4-0.1,2-0.1c0.6,0,1.1-0.1,1.5-0.1c0.4,0,0.6,0,0.7,0
			c0.1,0,0.2,0,0.3-0.1c0,0,0.1-0.1,0.1-0.1l0.1-1c0-0.1,0-0.2-0.1-0.3c-0.1-0.1-0.2-0.1-0.3-0.1c-0.4,0-0.9-0.1-1.5-0.2
			c-0.6-0.1-1.3-0.3-2.1-0.5c-0.8-0.2-1.5-0.4-2.2-0.7c-0.7-0.3-1.3-0.6-1.9-1c-0.5-0.4-0.9-0.8-1.1-1.2c-0.5-1.1-0.9-2.2-1.2-3.2
			c-0.3-1-0.7-2-1-3l-0.8-2.4c0.2-0.1,0.6-0.2,1.1-0.4c0.5-0.2,1.1-0.4,1.8-0.6c0.7-0.2,1.4-0.5,2.1-0.7c0.8-0.2,1.5-0.5,2.2-0.7
			c0.7-0.2,1.4-0.5,2-0.7c0.6-0.2,1.1-0.4,1.5-0.5c0.4-0.1,0.7-0.2,0.8-0.3L355.5,142.5z"/>
		<path class="st3" d="M143,232.3v2.2c0,0,0.4-0.2,0.6-0.7C143.8,233.3,143.6,232.5,143,232.3L143,232.3z"/>
		<path class="st4" d="M138.6,183.2c-1,0.6-2.1,1.7-2.4,3.4c-0.9,4.9,2.7,6.1,5.5,8.4v7.4c0,0-5.1,2.3-5.3,6.3
			c-0.1,3.1,2.9,5,5.5,6.5l0,5.9c0,0-7.2,5.2,0.3,10.6l0.1,4.5c0,0,0.2,0.1,0.7-0.1c3.1-1.1,3.2-4.4,0.1-6.2v-6.8
			c0,0,7.4-5.5,0.5-10.9l0-6c0,0,14.7-6.5,0.1-14.4l-0.1-6.4c0,0,1.5-0.2,1.6,2.1c0,0.2,0,1.5,0,1.9c0.1-1,0.8-1.7,1.8-1.9
			c0.1,0,0.1,0,0.2,0c0,0,0,0,0.1,0c0,0,0,0,0.1,0c0.6,0,1.1,0.3,1.5,0.7c0.1,0.1,0.3,0.3,0.4,0.5c0,0,0,0.1,0,0.1
			c-0.1-3.3-2.6-5.9-5.5-6.5V180c0.4-0.3,0.7-0.6,0.7-1.3c0-1.8-3.5-2.2-3.5,0c0,0.6,0.2,0.8,0.5,1v2.3
			C140.4,182.3,139.5,182.6,138.6,183.2 M143,232.3L143,232.3c0.6,0.2,0.8,1,0.6,1.6c-0.2,0.4-0.6,0.7-0.6,0.7V232.3z M141.7,208.2
			v2.2c0,0-0.4-0.2-0.6-0.7C140.8,209.2,141.1,208.4,141.7,208.2L141.7,208.2z M143.7,196.8v-0.2c1.1,0.5,1.5,2,1,3
			c-0.4,0.8-1,1.2-1,1.2V196.8z M141.4,185.8v4c0,0-0.7-0.4-1-1.2c-0.5-1.1-0.1-2.5,1-3V185.8z"/>
		<path class="st0" d="M213.4,257.1h-3.1v-3.5h-6.6l0-2.9l6.6-8.1h3.1v8.2h1.6v2.9h-1.6V257.1z M210.3,246l-3.8,4.7h3.8V246z"/>
		<path class="st0" d="M176.5,254.5c3.1,2.2,8.4,0.2,7.1-4.4c-1.4,2.9-6.4,1.9-7.5-0.9c-0.2-0.5-0.3-1-0.3-1.4c0-0.5,0-1,0.1-1.5
			c0.1-0.5,0.2-1,0.4-1.4c0.2-0.4,0.4-0.8,0.8-1.2c0.3-0.3,0.7-0.6,1.1-0.9c0.4-0.3,0.9-0.4,1.4-0.6c5.5-1.3,7.5,3.2,7.6,7.6
			c0,0.6,0,1.2-0.1,1.8c0,0.2,0,0.4-0.1,0.6c-0.3,1.9-1.3,3.5-3.8,4.7c-1.5,0.7-5,0.8-6.7-0.2V254.5z M181.3,244.2
			c-1.2,0-2.1,1.3-2.1,2.8c0,1.6,1,2.8,2.1,2.8c1.2,0,2.1-1.3,2.1-2.8C183.5,245.5,182.5,244.2,181.3,244.2"/>
		<path class="st0" d="M190.6,254.5c3.1,2.2,8.4,0.2,7.1-4.4c-1.4,2.9-6.4,1.9-7.5-0.9c-0.2-0.5-0.3-1-0.3-1.4c0-0.5,0-1,0.1-1.5
			c0.1-0.5,0.2-1,0.4-1.4c0.2-0.4,0.4-0.8,0.8-1.2c0.3-0.3,0.7-0.6,1.1-0.9c0.4-0.3,0.9-0.4,1.4-0.6c5.5-1.3,7.5,3.2,7.6,7.6
			c0,0.6,0,1.2-0.1,1.8c0,0.2,0,0.4-0.1,0.6c-0.3,1.9-1.3,3.5-3.8,4.7c-1.5,0.7-5,0.8-6.7-0.2V254.5z M195.5,244.2
			c-1.2,0-2.1,1.3-2.1,2.8c0,1.6,1,2.8,2.1,2.8c1.2,0,2.1-1.3,2.1-2.8C197.7,245.5,196.7,244.2,195.5,244.2"/>
		<path class="st1" d="M181.3,244.2c1.2,0,2.1,1.3,2.1,2.8c0,1.6-1,2.8-2.1,2.8c-1.2,0-2.1-1.3-2.1-2.8
			C179.2,245.5,180.1,244.2,181.3,244.2"/>
		<path class="st1" d="M195.5,244.2c1.2,0,2.1,1.3,2.1,2.8c0,1.6-1,2.8-2.1,2.8c-1.2,0-2.1-1.3-2.1-2.8
			C193.4,245.5,194.3,244.2,195.5,244.2"/>
		<path class="st0" d="M166.1,245.6h-2.3V243h1c0.2,0,0.4,0,0.5,0c0.2,0,0.3,0,0.5-0.2c0.2-0.1,0.3-0.3,0.4-0.4l0.2-0.4l3,0v15h-3.3
			V245.6z"/>
	</g>
	<g>
		<path class="st0" d="M796.5,157.3c5.4-0.6,7.4,0.4,7.7,4.3c0.3,4-3.6,10.8-7.3,12.5c-6.9,3.1-13.7,6.1-20.6,9.1
			c-5.4,2.4-6.7,7.8-2.9,12.3c4.2,4.8,7.7,5.4,13.8,3.2c1.9-0.7,4.8-0.6,6.3,0.5c1,0.7,1,4.2,0.1,5.7c-3.9,6.4-7.5,13.4-12.8,18.5
			c-5.3,5-12.6,7.9-18.8,12.1c-1.5,1-2.3,3.3-3.4,4.9c2,0.3,4.1,1.3,5.8,0.8c10.7-3.1,20.5-8,27.5-17c4.4-5.6,8.5-11.5,12.4-17.5
			c5.1-7.6,6.3-7.7,11.9-0.7c0.2,0.3,0.4,0.6,0.6,0.9c11.3,12.9,19.8,28.3,34.3,38.4c4.8,3.4,8.7,4.1,13.8,1.6
			c3.5-1.7,7.4-2.6,11-4.1c2.1-0.9,3.9-2.5,5.8-3.8c-1.7-1.8-3.2-4.5-5.3-5.2c-5.5-2-11.5-2.7-17-4.7c-3.4-1.2-6.6-3.5-9.6-5.6
			c-2.2-1.5-4.1-3.4-6-5.4c-8-8.5-16-16.9-23.7-25.7c-3.1-3.6-1.4-8.3,3.2-10c4.4-1.6,8.8-3.1,13.3-4.2c4.2-0.9,5.9-4,5.9-7.4
			c0-2.1-1.9-5-3.8-6.3c-4.9-3.3-10-3.2-15.1,0.2c-4.4,2.9-7.8,2-8.6-1.7c-1.7-7.7,2.1-15.4,9.4-18.8c3.6-1.6,7.4-2.8,11-4.4
			c4.6-2,6.3-6.9,2.9-10.5c-2.6-2.8-6.5-5.2-10.1-6c-4-0.9-6-2.1-6.3-6.4c-0.2-3.1-1.6-6.2-2.7-9.2c-1.6-4.6-5-6-9.5-4.4
			c-5,1.8-3.4,5.3-2.3,8.9c2.9,9-0.6,16.9-9.2,20.6c-4.9,2.1-10,3.9-15.1,5.8c-5.3,1.9-6,4.5-2.4,8.8c1.4,1.6,3.3,3,4.2,4.9
			C787.5,157,791,158,796.5,157.3z"/>
		<path class="st0" d="M524.5,196.1c0.3,1.6,0.2,2.6,0.6,3.3c2.7,4.6,5.2,9.5,8.6,13.6c1,1.3,4.9,1.3,6.9,0.5
			c2.5-1.1,4.4-3.6,6.5-5.6c8.6-7.9,10.2-16,5.7-26.7c-2.7-6.5-6.7-11.8-12.1-16.2c-4.9-4-4.8-5.6-0.6-10.1
			c5.1-5.5,10.3-11,15.3-16.6c3.2-3.6,3.4-7.4,0.2-11.2c-2.2-2.6-4.6-5.1-6.7-7.8c-2.5-3.2-5.4-4.6-9.4-2.7c-2.3,1-4.7,1.9-7.1,2.6
			c-8.3,2.6-14.5,10.3-24.1,10.2c-1.1,0-3.1,3-3.1,4.7c-0.2,7.7,0.5,15.4,0.3,23.2c-0.2,12.7-0.8,25.5-1.3,38.2
			c-0.9,19.6-1.9,39.1-2.8,58.7c0,1.1,0,2.3,0.5,3.1c0.8,1.2,2.1,2.1,3.2,3.2c0.9-1,2.1-1.8,2.7-3c0.6-1.1,0.5-2.4,0.8-3.7
			c1.8-8.6,3.8-17.1,5.2-25.8c1.3-7.6,3.7-15.5,2.5-22.8c-1.7-10,0.5-19.3,1.2-28.9c0.3-4.1,0-8.1,0.1-12.2c0.2-6.4-0.4-13,1.1-19.1
			c1.6-6.3,6.3-11.4,13-13.4c2.1-0.6,5.8-0.9,6.5,0.1c1.1,1.8,1.3,5.2,0.3,7.1c-3.3,6.4-7.3,12.4-11.2,18.4c-3.6,5.6-3.4,8,2.1,11.6
			c6.1,4,10.6,8.8,12.1,16.3c1.1,5.5-1.4,9.5-4.8,12.4c-1.5,1.3-5.7-0.5-8.7-0.9C527,196.5,526.2,196.4,524.5,196.1z"/>
		<path class="st0" d="M604.9,170.5c0,2.1,0.4,3.5-0.1,4.4c-3.7,7.3-1.6,13.4,3.1,19.5c3.1,4.1,1.9,8.3-2.3,11.8
			c-4.9,4-9.9,7.8-14.3,12.2c-1.8,1.8-3.8,5.9-3,7.5c1.9,3.7,5.1,0.6,8-0.1c4.6-1.1,9.5-2.7,14-2.1c8.3,1.1,16.6,3,24.5,5.6
			c12.3,4,24.6,8.3,36.4,13.6c11.4,5.1,22.4,9.6,34.5,3.2c7.6-4,15.2-8.1,22.6-12.5c1.3-0.8,1.7-3.1,2.6-4.8
			c-1.6-0.8-3.4-2.4-4.9-2.2c-3.9,0.5-8,1.2-11.4,2.9c-10.3,5.3-20.4,4-31,1c-11.9-3.4-24-6.4-36-9.2c-10.9-2.5-21.9-4.3-32.8-6.8
			c-5.3-1.2-5.6-2.8-2-6.8c6.8-7.6,6.9-9.9,0.8-18.2c-0.6-0.9-1.3-1.7-1.9-2.6c-2.2-2.9-2.5-5.7-0.1-8.9c3.3-4.4,6.3-9.2,9.5-13.7
			c3-4.2,1.9-7.9-1.2-11.2c-3.3-3.4-7.2-2.3-10.3,0.1c-4.9,3.9-9.5,8.3-13.9,12.8c-1,1-1.3,4-0.6,4.8c1,1.1,3.3,1.4,5.1,1.4
			C601.4,172.3,602.9,171.3,604.9,170.5z"/>
		<path class="st0" d="M453.7,211.7c-0.5-0.1-0.9-0.3-1.4-0.4c0.9-1.9,1.3-4.2,2.7-5.5c5.1-4.7,10.5-9.3,16-13.5
			c2.4-1.8,5.4-4.9,8.5-1.5c3,3.2,0.5,6.4-1.4,9.3c-0.4,0.6-0.8,1.2-1.3,1.8c-4.3,5.7-9,11.2-13,17.2c-2.8,4.2-0.8,7.4,4.2,6.5
			c5.2-0.9,10.3-3,15.3-5c1.4-0.6,2.5-2.6,3.2-4.2c2.7-6.6,5.3-13.2,7.8-19.9c1.7-4.6,1.6-9-2.9-12c-4.3-2.9-8.7-5.8-13.3-8.3
			c-1.3-0.7-3.7-0.7-4.8,0c-4.5,2.9-9.2,5.8-12.9,9.6c-4.1,4.2-7.3,5-11.8,0.9c-2.7-2.4-6-2.9-9.3-0.1c-3.4,2.9-4.6,6.5-2.7,10.1
			c4.2,8,5.9,16.5,6.6,25.4c0.1,1.7,2.6,4.5,3.5,4.4c1.9-0.3,4.3-2.1,5-3.8C452.9,219.2,453.1,215.3,453.7,211.7z"/>
		<path class="st0" d="M1172.6,118c-0.9-9.3-5.5-15.6-14.6-18.4c-2.2-0.7-5.8-0.7-7,0.6c-2.3,2.4-0.8,5.2,1.7,7.4
			c1.1,1,2.2,2.7,2.2,4c-0.1,4.7,2.4,7.9,5.9,10.3c2.1,1.5,5.4,3,7.4,2.4C1170,123.6,1171.1,120.2,1172.6,118z"/>
		<path class="st0" d="M611.3,115c-1,0.7-2.5,1.3-2.7,2.2c-0.3,1.4-0.1,3.3,0.7,4.4c2.4,3.3,5,6.5,7.9,9.3c1.2,1.2,3.5,1.3,5.4,1.9
			c0.3-2,1.5-4.5,0.7-5.8c-2.3-3.7-5.4-7-8.3-10.3C614.2,115.8,612.7,115.6,611.3,115z"/>
		<path class="st6" d="M1144.3,204.6c-3.6,1.9-5.7,3.4-8,4.1c-2.2,0.6-5.7,1.3-6.7,0.2c-2.8-3-4.7-6.9-6.6-10.6
			c-0.2-0.3,2-2.3,3.3-2.9c10.1-5.1,20.2-10.1,30.3-15.1c2.3-1.1,4.5-2.4,6.7-3.6c-2.2-1.5-4.6-2.9-6.7-4.6
			c-2.1-1.7-4.1-3.5-5.8-5.5c-3.7-4-6.2-4.2-8.9,0.4c-2.8,4.8-6.2,7.7-11.9,7.8c-3.1,0.1-4.6,1.9-5.1,5.1c-0.8,5.3-3.1,9.9-8,12.8
			c-5.6,3.3-8.8,2.4-11.4-3.5c-0.9-2.1-1.9-4.3-3.4-6c-0.9-1.1-2.9-2.1-4-1.8c-1.2,0.4-2.3,2.3-2.6,3.7c-0.9,4.4-1.6,8.9-1.8,13.3
			c-0.7,12.7-0.9,25.5-1.7,38.2c-0.1,2.2-2.3,4.3-3.6,6.4c-2.1-1.6-5.7-3.1-5.9-4.9c-1.1-11.8-2.2-23.6-2-35.4
			c0.2-17.3,1.7-34.5,2-51.8c0.1-3.4-1.6-7.4-3.8-10.1c-4.3-5.5-4.4-8.4,1.7-12.1c9.4-5.7,18.8-11.2,28.5-16.3
			c9.7-5.1,14.7-3.8,21.8,4.3c3.7,4.2,4.2,9.8,0.7,14.4c-4.5,6-9.6,11.6-14,17.7c-1.3,1.7-2.6,5.1-1.8,6.5c1.6,2.5,4.6,4.1,7.1,6.1
			c1.7-2.1,3.6-4,5-6.3c2.6-4,4.5-8.5,7.3-12.3c2.5-3.4,5.9-4,9-0.2c2.5,3.1,4.8,2.6,8.4,0.9c10.3-5,20.1-11.6,32-12.1
			c3.2-0.1,6.5,1.1,9.5,2.4c2.6,1.1,5.1,2.9,7,5c1.7,1.8,3.8,4.6,3.4,6.5c-0.5,2.5-2.9,5.7-5.2,6.6c-4.1,1.6-8.8,1.9-13.3,2.3
			c-3.5,0.3-4.1-1.6-2.2-4.4c1.2-1.8,2.9-3.3,3.9-5.1c0.7-1.3,1.1-3.4,0.4-4.4c-0.6-0.9-2.8-1.6-4.1-1.3c-10.2,2-19.3,6.6-28.2,11.7
			c-1,0.6-2.2,2.6-1.9,3.3c0.8,1.8,2.2,3.6,3.8,4.7c3.2,2.2,8.1,3.1,9.8,6c3.2,5.2,6.1,9.9,11.7,13.3c3.4,2.1,0.4,5.3-2.5,7
			c-5.7,3.3-6.1,6-1.5,10.8c1.1,1.2,2.4,2.2,3.6,3.3c3.1,3.1,2.6,5.7-0.5,8.7c-3.4,3.3-6.8,6.9-9.5,10.8c-4.3,6.4-1.6,12.8,5.9,14.8
			c8,2.2,16.1,1.7,24.1-0.1c4.5-1,7.6-6.8,8.2-13.4c0.2-2.5,1.6-4.9,2.5-7.3c1.4,2.3,3,4.6,4.2,7c1.4,2.8,2.1,6.1,3.9,8.6
			c6.8,9.6,4.6,15.5-6.1,19.6c-9.3,3.6-18.7,3.4-28.2,3.4c-15.4-0.1-28.7-17.3-25.8-32.4c0.5-2.8-0.5-5.9-0.8-8.9
			c-2.5,1.8-5.6,3.1-7.4,5.4c-8.2,10.9-15.6,22.5-26.7,30.8c-1.9,1.4-3.6,3.2-5.7,4c-1.7,0.7-3.9,0.1-5.9,0.1c0.5-1.7,0.4-4,1.5-5.2
			c5.8-6.3,12.1-12.2,17.8-18.7c4.6-5.2,8.6-11,12.8-16.6C1143.7,208.9,1143.6,207.5,1144.3,204.6z M1100.5,144.6
			c1.7,2.4,2.7,4.8,3.5,4.7c1.7-0.1,4-1.2,4.7-2.6c2.9-5.7,5.5-11.7,7.6-17.7c0.5-1.5-1.1-3.7-1.7-5.5c-2.1,0.9-5.4,1.3-6.2,2.9
			C1105.4,132.2,1103.1,138.5,1100.5,144.6z M1098,169.1c0,3.9,0.6,8,5.2,8.8c4.9,0.8,6.2-3.4,7.3-7.1c1.9-6.4-2.5-10-6.3-13.8
			c-2.7-2.6-4.8-2-5.4,1.8C1098.1,162.3,1098.2,165.7,1098,169.1z"/>
		<path class="st6" d="M796.5,157.3c-5.5,0.7-9.1-0.3-11.2-4.9c-0.9-1.9-2.8-3.3-4.2-4.9c-3.6-4.3-2.9-6.9,2.4-8.8
			c5.1-1.8,10.1-3.7,15.1-5.8c8.6-3.7,12.1-11.6,9.2-20.6c-1.2-3.6-2.7-7.2,2.3-8.9c4.4-1.6,7.8-0.2,9.5,4.4c1.1,3,2.4,6.1,2.7,9.2
			c0.3,4.3,2.3,5.4,6.3,6.4c3.7,0.9,7.5,3.2,10.1,6c3.4,3.6,1.7,8.5-2.9,10.5c-3.6,1.6-7.4,2.7-11,4.4c-7.3,3.3-11,11.1-9.4,18.8
			c0.8,3.7,4.2,4.6,8.6,1.7c5.2-3.4,10.3-3.5,15.1-0.2c1.9,1.3,3.8,4.1,3.8,6.3c0,3.4-1.7,6.4-5.9,7.4c-4.5,1-8.9,2.6-13.3,4.2
			c-4.6,1.7-6.3,6.4-3.2,10c7.6,8.8,15.7,17.2,23.7,25.7c1.8,1.9,3.8,3.9,6,5.4c3,2.1,6.2,4.4,9.6,5.6c5.5,1.9,11.5,2.7,17,4.7
			c2.1,0.7,3.5,3.4,5.3,5.2c-1.9,1.3-3.7,2.9-5.8,3.8c-3.6,1.6-7.5,2.4-11,4.1c-5.1,2.5-9,1.8-13.8-1.6
			c-14.5-10.2-23-25.5-34.3-38.4c-0.2-0.3-0.4-0.6-0.6-0.9c-5.6-7.1-6.9-6.9-11.9,0.7c-4,6-8.1,11.9-12.4,17.5
			c-7,9-16.8,13.9-27.5,17c-1.7,0.5-3.9-0.5-5.8-0.8c1.1-1.7,1.9-3.9,3.4-4.9c6.2-4.1,13.5-7,18.8-12.1c5.3-5.1,8.9-12.1,12.8-18.5
			c0.9-1.4,0.8-5-0.1-5.7c-1.5-1.1-4.4-1.2-6.3-0.5c-6.1,2.3-9.6,1.7-13.8-3.2c-3.9-4.5-2.5-9.9,2.9-12.3c6.9-3,13.8-6,20.6-9.1
			c3.6-1.6,7.6-8.5,7.3-12.5C804,157.7,801.9,156.8,796.5,157.3z"/>
		<path class="st6" d="M943.3,230.6c-0.3-5.9-0.9-11.9-0.8-17.8c0.2-9.1,4.7-12.2,13.2-9.5c4.8,1.6,7.7-1.2,10.1-4.3
			c2-2.7-0.8-6.5-4.4-5.7c-15.9,3.6-31.8,7.4-47.5,11.6c-4.9,1.3-9.6,0-10.5-4.9c-0.7-3.6,0.6-5.7,4.5-6.5
			c15.2-2.9,30.3-6.1,45.4-9.2c2.5-0.5,5-0.6,7.5-1c6.6-1.1,13.1-2.2,19.6-3.3c4.4-0.7,8.8-1.3,13.1-2.2c1.9-0.4,3.7-1.3,5.6-1.7
			c2.6-0.7,5.1-1.2,7.7-1.7c1.4-0.3,3.1,0.1,4.2-0.6c9-5.8,18.2-2.5,27.1-0.3c2.3,0.6,4.7,3.5,5.7,5.9c1.4,3.3-0.1,6.1-4.1,6.5
			c-1.8,0.2-3.6-0.1-5.4-0.1c-8.7,0-17.5-0.2-26.2,0.2c-2.3,0.1-4.4,2.4-6.6,3.7c1.9,1.8,3.4,4.4,5.7,5.3
			c8.4,3.4,14.3,12.2,13.8,21.3c-0.5,9-1.4,18-1.2,26.9c0.1,8.9-5.5,14.3-10.8,19.6c-3.1,3.1-6.4,0.7-7.5-2.8c-1.9-5.7-5.8-7-11-5.9
			c-8.2,1.6-16.4,3.8-24.7,5.1c-2.3,0.4-5.1-1.4-7.4-2.5c-2.5-1.3-4.5-3.7-7.1-4.4c-4-1.2-6.2-3.4-6.8-7.4
			c-0.6-4.8-1.2-9.6-1.7-14.5C942.9,230.6,943.1,230.6,943.3,230.6z M1004.5,214.3c-0.1,0-0.1,0-0.2,0c0-2.9,0.5-5.9-0.2-8.6
			c-0.4-1.6-2.5-3.8-4-3.9c-4.2-0.3-8.5,7.9-6.5,11.7c2.1,3.9,1.1,6.6-3.3,8.3c-6,2.3-12.1,4.5-18.2,6.6c-1.2,0.4-3.2,0.3-3.9-0.4
			c-0.8-0.7-0.7-2.6-0.5-3.9c0.3-1.6,1.8-3.2,1.5-4.5c-0.5-2.6-1.4-6.4-3.1-7.1c-3.7-1.4-4.5,2.2-5,5.2c-1.5,9.2-3.1,18.4-4.6,27.6
			c-0.7,4.4,1.4,7.3,5.5,6.6c8.8-1.5,17.5-3.6,26.3-5.4c3-0.6,5.9-1.7,8.9-1.8c4.2-0.1,5.9-2.3,6.1-6
			C1003.8,230.5,1004.1,222.4,1004.5,214.3z M976.3,212.5c0.5,0.6,1.5,1.8,2.5,3c1.9-2.8,3.9-5.6,5.6-8.5c0.1-0.2-1.7-2.3-2.6-2.3
			C977.7,205,976.5,207.8,976.3,212.5z M981.4,199.3c2.3-2.2,3.9-3.8,5.5-5.4c-1.3-1.1-2.9-3.3-3.9-3.1c-2.5,0.6-4.8,2.3-7.1,3.6
			C977.5,195.8,979.1,197.2,981.4,199.3z"/>
		<path class="st6" d="M524.5,196.1c1.7,0.3,2.6,0.4,3.4,0.5c3,0.4,7.1,2.2,8.7,0.9c3.4-2.9,5.9-6.9,4.8-12.4
			c-1.5-7.5-6-12.3-12.1-16.3c-5.5-3.6-5.7-5.9-2.1-11.6c3.9-6.1,7.8-12.1,11.2-18.4c1-1.9,0.8-5.3-0.3-7.1c-0.6-1-4.4-0.7-6.5-0.1
			c-6.7,2-11.4,7.1-13,13.4c-1.6,6.1-0.9,12.7-1.1,19.1c-0.1,4.1,0.2,8.2-0.1,12.2c-0.7,9.6-2.9,18.9-1.2,28.9
			c1.2,7.3-1.2,15.2-2.5,22.8c-1.5,8.6-3.5,17.2-5.2,25.8c-0.3,1.2-0.2,2.6-0.8,3.7c-0.6,1.1-1.8,2-2.7,3c-1.1-1-2.4-1.9-3.2-3.2
			c-0.5-0.8-0.6-2.1-0.5-3.1c0.9-19.6,2-39.1,2.8-58.7c0.6-12.7,1.1-25.4,1.3-38.2c0.1-7.7-0.5-15.4-0.3-23.2c0-1.7,2.1-4.7,3.1-4.7
			c9.6,0.1,15.7-7.6,24.1-10.2c2.4-0.7,4.8-1.6,7.1-2.6c4-1.8,6.9-0.4,9.4,2.7c2.1,2.7,4.5,5.1,6.7,7.8c3.2,3.8,3,7.6-0.2,11.2
			c-5,5.6-10.2,11.1-15.3,16.6c-4.2,4.5-4.3,6.1,0.6,10.1c5.5,4.4,9.4,9.7,12.1,16.2c4.4,10.7,2.9,18.8-5.7,26.7
			c-2.1,2-4,4.5-6.5,5.6c-1.9,0.8-5.8,0.8-6.9-0.5c-3.4-4.1-5.8-9-8.6-13.6C524.7,198.7,524.8,197.8,524.5,196.1z"/>
		<path class="st6" d="M644.9,129c1.3-2.5,2.5-5,3.8-7.5c3.7-7,7.1-14.1,11.1-20.8c1.4-2.4,4.1-4.1,6.2-6.1c2.1,2.5,5.9,4.8,6.1,7.4
			c0.4,6.7,3.3,9.8,9.7,11.5c6.1,1.7,6.7,6.8,1.8,11c-4.5,3.8-9.1,7.6-13.5,11.6c-1,0.9-1.3,2.7-1.9,4c1.6,0.5,3.3,1.3,4.9,1.3
			c1.5,0,3.1-1.2,4.6-1.3c3-0.1,6.4-0.4,8.8,0.8c2.4,1.2,5.1,4.2,5.3,6.6c0.2,2-2.6,5.1-4.8,6.3c-4.3,2.3-6.3,5.4-6.9,10.1
			c-0.6,5.2-0.1,9.1,5.7,11.2c2.3,0.8,4.3,3.3,5.7,5.5c0.8,1.2-0.1,3.5-0.3,5.3c-1.7-0.4-3.5-0.6-5.1-1.3c-0.9-0.4-1.2-1.9-2-2.4
			c-1.1-0.7-3.5-1.7-3.7-1.4c-2.4,3.3-5.2,6.6-6.6,10.4c-1.3,3.5,1.4,5.9,4.9,6.3c2.6,0.3,5.2-0.6,7.9-0.6c2.7,0,5.8-0.4,8,0.7
			c1.8,0.9,4.3,4.3,3.8,5.6c-1,2.5-3.5,5.4-5.9,6c-11,3-21-1.9-25.4-12.2c-1-2.3-0.3-5.4,0.1-8.1c0.5-3.2,1.7-6.2,2.2-9.3
			c0.2-1-0.7-2.7-1.4-3c-0.9-0.3-2.6,0.4-3.2,1.2c-2.5,3.1-4.5,6.5-7,9.6c-4.8,6-9.7,11.9-15,17.5c-1.2,1.2-4,0.9-6.1,1.3
			c0.7-1.9,1-4.1,2.2-5.6c3.1-3.7,6.8-7,10.1-10.5c3.7-4,3-6.7-0.7-10.3c-3.1-3-5.8-7-7.3-11c-2.3-6-3.5-12.5-4.7-18.8
			c-0.3-1.6,1-4,2.4-5.2c0.6-0.5,3.6,0.7,4.7,1.9c5.2,5.8,8.5,6.1,12.9-0.1c5.4-7.6,10.4-15.5,15.1-23.5c1-1.7,0.1-4.5,0.1-6.8
			c-2.4,0.5-5.3,0.4-7.2,1.7c-6,4.1-11.6,8.7-17.3,13.1C646.2,130.3,645.5,129.6,644.9,129z M676.6,148c-3.9,0.4-6.9,0.3-9.5,1.2
			c-1.3,0.5-3.3,3.3-2.9,3.9c1.3,2.4,3.2,4.8,5.5,6c0.8,0.4,4-2.3,5.2-4.2C676,153.2,676,150.7,676.6,148z M646.4,164.7
			c2.7,2.6,3.9,4.7,5.6,5.3c2.7,0.8,6.6-5,6.8-10.2c0.1-1.2-1.3-2.4-2.1-3.6C653.6,158.7,650.6,161.3,646.4,164.7z"/>
		<path class="st6" d="M604.9,170.5c-2.1,0.8-3.5,1.8-4.9,1.8c-1.8,0-4.1-0.3-5.1-1.4c-0.7-0.8-0.4-3.8,0.6-4.8
			c4.4-4.5,9-8.8,13.9-12.8c3.1-2.5,7-3.5,10.3-0.1c3.2,3.3,4.3,7,1.2,11.2c-3.3,4.5-6.2,9.2-9.5,13.7c-2.4,3.2-2,5.9,0.1,8.9
			c0.6,0.9,1.3,1.7,1.9,2.6c6.1,8.3,6,10.6-0.8,18.2c-3.5,4-3.2,5.6,2,6.8c10.9,2.4,21.9,4.3,32.8,6.8c12.1,2.8,24.1,5.8,36,9.2
			c10.5,3,20.7,4.2,31-1c3.4-1.8,7.6-2.4,11.4-2.9c1.5-0.2,3.3,1.4,4.9,2.2c-0.8,1.6-1.2,4-2.6,4.8c-7.4,4.4-15,8.5-22.6,12.5
			c-12.2,6.4-23.2,1.9-34.5-3.2c-11.8-5.2-24.1-9.5-36.4-13.6c-8-2.6-16.2-4.5-24.5-5.6c-4.5-0.6-9.4,1-14,2.1
			c-2.8,0.7-6.1,3.8-8,0.1c-0.8-1.6,1.1-5.7,3-7.5c4.4-4.4,9.5-8.2,14.3-12.2c4.2-3.4,5.4-7.7,2.3-11.8c-4.6-6.1-6.8-12.2-3.1-19.5
			C605.4,174,604.9,172.6,604.9,170.5z"/>
		<path class="st6" d="M479.2,102.1c2.6,1.2,6.1,2.2,8.9,4.2c3.9,2.8,7.8,5.9,10.6,9.7c1.6,2.1,2.1,6.2,1.3,8.8
			c-2.9,9.8-5.5,19.8-10.2,28.8c-3.5,6.8-9.7,12.2-15.1,17.9c-0.6,0.7-3.7,0.2-4.6-0.8c-2.3-2.2-4.3-4.9-5.8-7.7
			c-2.9-5.6-5-6-9.5-1.3c-8.7,9.1-17.2,18.3-25.9,27.4c-1.7,1.8-3.5,3.7-5.6,5.1c-1.3,0.8-3.2,0.7-4.8,1c0.2-1.8-0.2-4,0.8-5.2
			c4.1-5,9.3-9.2,12.9-14.4c7.9-11.3,15.3-23,22.5-34.8c2.3-3.8,0.6-5.9-4.1-6.1c-5-0.2-13-9.2-12.4-14.2c0.2-1.6,1.3-3.8,2.6-4.4
			C453.1,110.6,464.8,104.2,479.2,102.1z M487.1,124.1c0.2-5.6-3.7-8.4-9.4-6c-4.9,2.1-9.8,4.6-14.2,7.6c-1.4,0.9-2.4,5.4-1.8,5.9
			c4.5,3.5,4.8,7.9,4.4,13c-0.2,2.1,0.7,4.8,2.1,6.5c1.9,2.2,4.8,5.2,7,5.1c3.8-0.2,5.3-3.9,5.6-8c0.2-3.9,1-7.7,2-11.5
			C484,132.6,485.6,128.7,487.1,124.1z"/>
		<path class="st6" d="M453.7,211.7c-0.6,3.7-0.8,7.5-2,10.9c-0.6,1.7-3.1,3.5-5,3.8c-1,0.2-3.4-2.7-3.5-4.4
			c-0.7-8.9-2.4-17.4-6.6-25.4c-1.9-3.6-0.7-7.2,2.7-10.1c3.3-2.8,6.6-2.3,9.3,0.1c4.5,4,7.7,3.2,11.8-0.9c3.7-3.8,8.4-6.7,12.9-9.6
			c1.2-0.8,3.6-0.7,4.8,0c4.6,2.5,8.9,5.4,13.3,8.3c4.5,3.1,4.6,7.4,2.9,12c-2.5,6.7-5.1,13.3-7.8,19.9c-0.7,1.6-1.8,3.6-3.2,4.2
			c-5,2-10,4.1-15.3,5c-4.9,0.9-6.9-2.4-4.2-6.5c4-6,8.6-11.5,13-17.2c0.4-0.6,0.9-1.1,1.3-1.8c1.8-2.9,4.4-6,1.4-9.3
			c-3.1-3.4-6.1-0.3-8.5,1.5c-5.5,4.3-10.8,8.8-16,13.5c-1.4,1.3-1.9,3.7-2.7,5.5C452.7,211.4,453.2,211.5,453.7,211.7z"/>
		<path class="st6" d="M1011,96.2c0.2,2.9-0.6,6.7,0.9,8.3c1.5,1.6,5.6,0.3,8.1,1.3c2,0.9,4.7,3.3,4.8,5.1c0.3,4.4-1.2,8.4-5.8,10.6
			c-6.4,3.1-6.7,5.4-1.6,9.9c3.9,3.4,2.7,7,0,9.9c-4.6,5-5.8,9.9-2.7,16.2c0.9,1.9,0,4.8-0.1,7.2c-2.3-0.5-4.5-1.1-6.8-1.4
			c-2-0.2-4.2-0.5-6,0.1c-1.6,0.5-2.6,2.6-4.1,3.3c-1.7,0.7-3.7,0.5-5.6,0.7c0.5-1.8,0.8-3.8,1.7-5.5c1.2-2.2,4.5-4.8,4-5.9
			c-1.1-2.4-4-4-6.2-5.8c-1.7-1.3-3.5-2.5-5.2-3.8c1.4-1.7,2.6-3.8,4.3-5.1c2.1-1.6,4.8-2.5,7-4.1c3.6-2.5,3.8-5.7,0.5-8.5
			c-1.9-1.6-4.1-3.2-6.4-4c-4.4-1.6-4.9-3.8-2.8-7.8c3.2-6.2,5.8-12.7,8.9-19c1.2-2.3,2.7-4.8,4.8-6.3c1.4-1,4.2-0.9,6-0.3
			c1.5,0.6,2.5,2.6,3.7,4C1011.9,95.9,1011.4,96,1011,96.2z M1009.2,112.4c-3.1,1.5-5.9,2.6-8.4,4.3c-0.8,0.5-1.1,2.9-0.6,3.8
			c0.7,1.2,2.3,2.4,3.6,2.6c3,0.5,8.1-5.7,7.2-8.6C1010.8,113.7,1009.8,113.1,1009.2,112.4z M1007.3,138.7c-4.1,0.7-7.5,1.4-7.8,5.7
			c0,0.7,1.9,2.4,2.7,2.3C1006.4,146.1,1007.6,143.2,1007.3,138.7z"/>
		<path class="st6" d="M1172.6,118c-1.5,2.2-2.5,5.6-4.5,6.2c-2,0.6-5.3-0.9-7.4-2.4c-3.5-2.4-6-5.6-5.9-10.3c0-1.4-1.1-3.1-2.2-4
			c-2.5-2.2-4-5-1.7-7.4c1.3-1.3,4.9-1.3,7-0.6C1167,102.4,1171.6,108.7,1172.6,118z"/>
		<path class="st6" d="M611.3,115c1.4,0.6,2.9,0.8,3.6,1.6c2.9,3.3,6,6.6,8.3,10.3c0.8,1.3-0.4,3.8-0.7,5.8
			c-1.8-0.6-4.1-0.7-5.4-1.9c-2.9-2.8-5.5-6-7.9-9.3c-0.8-1.1-0.9-3-0.7-4.4C608.8,116.3,610.3,115.7,611.3,115z"/>
		<path class="st6" d="M972.5,243.7c-2.1-1.6-3.9-2.9-5.8-4.3c1.6-1.5,3-3.4,4.9-4.4c2.6-1.4,5.6-2.2,8.5-3.3
			c2.2-0.8,4.4-2.1,6.6-2.2c2-0.1,4.1,1.1,6.2,1.8c-1.2,1.8-1.9,4.4-3.5,5.3C984.1,239.3,978.6,241.2,972.5,243.7z"/>
		<path class="st6" d="M980.4,122.4c-2.4,2.6-4.9,5.2-7.3,7.9c-1,1.1-1.5,2.6-2.3,3.9c1.4,0.4,2.9,0.7,4.3,1.1
			c2.1,0.7,4.1,1.6,6.2,2.4c-1.3,1.9-2.4,4-4.1,5.6c-1.9,1.9-4.3,3.3-6.5,4.9c2.2,2.2,4.4,4.5,6.7,6.5c1.6,1.4,3.6,2.5,5.2,3.8
			c3.1,2.5,3,5.8,0.3,7.9c-3.3,2.6-7.4,6.1-11.1,6c-9.1-0.3-16.6,3.9-24.8,6.2c-9,2.6-12.8,0.5-13.7-8.8c-0.9-9.1-0.6-18.3-0.8-27.5
			c-0.1-2.3-0.5-4.6-0.4-7c0.1-2.7-0.4-6.2,1.1-8c1-1.2,5.6-1,7.3,0.3c2.2,1.7,4.4,5.2,4.4,7.8c-0.1,9.3-1.3,18.6-2,27.9
			c-0.2,3-0.9,6.8,3.2,7.5c3.6,0.6,6-1.6,6.9-5.4c0.3-1.3,1.2-2.6,2.1-3.7c2.7-3.7,1.8-6.1-2.3-8c-1.6-0.7-2.8-2.4-4.1-3.7
			c1.3-1.4,2.4-2.9,3.9-4.1c1.2-1,2.9-1.5,4.1-2.6c3.6-3.4,3.1-5.3-1.6-6.9c-5.6-1.8-6.6-3.8-4.6-9.5c1.3-3.5,0.8-6-2.7-8.2
			c-4.4-2.8-4.5-7,0.1-9.2c9.2-4.5,18.7-8.4,28.2-12.3c1.2-0.5,4,0.2,4.6,1.2c0.8,1.5,0.9,4.4,0,5.4c-2.3,2.6-5.2,4.7-8.2,6.5
			c-4.7,2.8-10.8,4.2-10.4,11.5c0.1,1.5,0.3,3.7,1.2,4.1c1.1,0.5,3-0.2,4.4-0.9c3.7-1.8,7.2-3.8,10.8-5.8
			C979.1,120.6,979.7,121.5,980.4,122.4z M965.6,168.3c1-0.4,2-0.8,3.1-1.2c1.6-1.8,3.7-3.3,4.5-5.4c0.3-0.8-2.7-2.7-4.1-4.2
			c-1.7,2-3.9,3.7-5,6C963.6,164.6,965,166.7,965.6,168.3z"/>
	</g>
	<path class="st6" d="M428.9,43.5c-2.1,10.3-3.7,18.4-4.5,24.5c-2.5-1.4-4.7-2.5-6.6-3.2c1.3-2.9,2.6-6.9,3.9-11.8
		c1.3-4.9,2.1-9,2.4-12.2C425.4,42.2,427.1,43.1,428.9,43.5z M431,29.7l-3.1,5.3c-2.7-2.1-5.7-4.1-9.1-5.9l2.9-4.8
		C424.4,25.7,427.5,27.5,431,29.7z M433,13.7l-3.7,5.3c-2.2-2.2-5-4.4-8.4-6.7l3.5-4.8C427.9,9.9,430.7,11.9,433,13.7z M438.7,39.4
		V26c-2.5,0-4.7,0.2-6.6,0.6v-5.7c1.5,0.3,3.7,0.4,6.6,0.5c0-8-0.2-13.4-0.7-16.2c1.4,0.3,3.3,0.5,5.9,0.5c0.9,0,1.3,0.2,1.3,0.5
		c0,0.4-0.3,0.8-0.9,1.5c-0.6,0.6-0.9,1.4-0.9,2.4v11.3c3.1-0.1,5.3-0.3,6.6-0.5v5.7c-1.3-0.2-3.5-0.4-6.6-0.5v11.4
		c2.5-1.1,4.5-2.2,6.1-3.1c-0.1,1.8,0,3.7,0.5,5.6c-2.8,1.3-5,2.4-6.6,3.1v19.5c0,1.6-0.2,2.7-0.5,3.3c-0.3,0.7-1,1.2-2,1.7
		c-1,0.4-2.9,1-5.6,1.7c-0.1-2.7-0.9-5-2.6-7c1.6,0.2,2.8,0.3,3.7,0.3c0.9,0,1.5-0.2,1.8-0.5c0.3-0.3,0.4-0.9,0.4-1.7V45.5
		c-2,1-3.8,2.1-5.4,3.2c-0.5-2-1.3-4.2-2.6-6.6C433.1,41.3,435.8,40.4,438.7,39.4z M464.3,31h-6.7c-0.1,10.2-0.7,17.7-1.8,22.7
		c-1.1,4.9-3,9.7-5.6,14.4c-1.3-1.5-2.8-2.7-4.5-3.8c2.4-3.5,4.2-7.7,5.3-12.7c1.1-5,1.7-11.9,1.7-20.8S452.4,15,452,10
		c2.1,0.1,5.2-0.2,9.1-1.1c3.9-0.9,7-1.9,9.3-3.1c0.3,0.9,0.9,1.9,1.7,3.1c0.8,1.1,1.4,1.9,1.8,2.4c0.5,0.5,0.7,0.8,0.7,1
		c0,0.2-0.3,0.3-0.9,0.3h-0.8c-0.8,0-2.8,0.3-6,0.9c-3.2,0.6-6.3,1-9.3,1.2v11.3h8c3.8,0,7.1-0.3,9.8-0.8v6.6
		c-1.8-0.4-3.8-0.6-6-0.6v25.5c0,3.6,0.1,7.4,0.4,11.3h-6c0.3-3.9,0.4-7.7,0.4-11.3V31z"/>
	<path class="st6" d="M525.9,29.3l-3.7,6c-2.6-2.1-6.4-4.3-11.4-6.5l3.5-5.9C518.9,25.2,522.8,27.3,525.9,29.3z M527.9,44.3
		c-1.3,2.1-2.9,5.3-4.9,9.6c-2,4.3-3.7,8.7-5.2,13.1c-3.5-3.4-5.6-5.4-6.4-6.2c1.4-2,3.4-5.2,5.9-9.5s4.4-8.2,5.8-11.6
		C524,41.3,525.5,42.9,527.9,44.3z M530.2,13.1l-4.6,5.7c-2.3-2.8-5.9-5.7-10.6-8.7l4.4-4.9C523.7,8.1,527.3,10.8,530.2,13.1z
		 M551.7,13.5v42.9c7.5,0,13.3-0.3,17.4-0.7v6.6c-4.5-0.5-11.2-0.7-20-0.7c-8.8,0-16,0.2-21.5,0.7v-6.6c4.2,0.4,10.2,0.7,18,0.7
		V13.5c-5.6,0-10,0.3-13.2,0.7V7.7c3.8,0.5,9.5,0.7,17.1,0.7c7.6,0,13.3-0.2,17-0.7v6.5C563.1,13.8,558.1,13.6,551.7,13.5z"/>
	<path class="st6" d="M634.1,36.9c-1.3,6.7-3.7,12.5-7.2,17.4c-3.5,4.9-9.2,9.4-16.9,13.6c-1.3-2.2-3.1-4-5.6-5.5
		c6.9-2,12.6-5.5,17.3-10.6c4.7-5.1,7.3-12.7,8-22.9c-9.6,0-17.1,0.3-22.6,0.6v-6.8c5.2,0.4,12.9,0.6,22.9,0.7
		c0.2-3.9,0.3-7.4,0.3-10.4c0-3-0.1-5.6-0.3-7.8c1.8,0.3,3.4,0.4,4.6,0.4c2.5,0,3.7,0.1,3.7,0.3c0,0.2-0.2,0.4-0.6,0.8
		c-0.7,0.6-1.1,1.9-1.2,4l-0.8,12.6c10.7,0,18.7-0.2,24.2-0.7v6.8c-5.9-0.4-14-0.6-24.5-0.6c1.7,8,5,14.9,9.8,20.6
		c4.8,5.7,10.5,9.2,17.1,10.4c-2.4,1.8-4.2,4.3-5.5,7.6c-4.6-2.5-9-6-13.1-10.8C639.4,51.9,636.2,45.4,634.1,36.9z"/>
	<path class="st6" d="M724.7,52.5c-10.5,0-19,0.3-25.5,0.8v-6.7c5.9,0.5,14.4,0.7,25.5,0.7v-5c4-1.6,7.1-3.2,9.1-4.7h-15.2
		c-4,0-7.1,0.1-9.3,0.2v-5.3c3.5,0.3,9.7,0.4,18.4,0.4c8.7,0,14.1-0.1,16.2-0.4v6.4c-1.4-0.1-3.1,0.4-5.3,1.4
		c-2.2,1-4.9,2.5-8.1,4.5v2.5c10.1,0,18-0.3,23.5-0.7v6.7c-6.3-0.5-14.1-0.7-23.5-0.8v10.4c0,1.5-0.3,2.7-0.8,3.4
		c-0.5,0.8-1.6,1.5-3.2,2c-1.6,0.6-4.1,1.2-7.6,1.8c-0.2-2.3-1-4.7-2.2-7.2c1.5,0.1,2.9,0.2,4.1,0.2c1.2,0,2.2-0.2,2.9-0.5
		c0.7-0.3,1-1,1-2.1V52.5z M740,20.4c5.9,0,10.5-0.1,13.8-0.4v13.3h-5.4v-7.7H705v8.2h-5.4V20c3.5,0.3,8.5,0.4,15,0.4h20.1
		c3.5-5.9,6-10.9,7.5-15.2c2.1,1.6,4,2.7,5.9,3.5c0.5,0.2,0.7,0.5,0.7,0.7s-0.3,0.5-1,0.8C746.9,10.7,744.3,14.1,740,20.4z
		 M716.3,16.6l-5.9,2.3c-0.8-2.6-2.1-5.5-3.9-8.9l5.4-2.6C713.4,10,714.8,13.1,716.3,16.6z M730.6,15.4l-6.1,1.6
		c-0.4-3.3-1.1-6.6-1.9-9.9l5.8-1.3C729.3,8.9,730,12.1,730.6,15.4z"/>
	<path class="st6" d="M845.9,63.7c-0.7-0.2-9.3-0.4-25.8-0.4c-16.6,0-25.2,0.1-26,0.4c0.3-2.9,0.4-7,0.4-12.1v-34
		c0-5.3-0.1-9.4-0.4-12.4c2.8,0.6,11.3,0.9,25.7,0.9c14.3,0,22.9-0.3,25.8-0.9v6.2c-3-0.3-8.9-0.4-17.7-0.4h-28.1V58h29.5
		c8.4,0,14-0.3,16.7-0.8V63.7z M825.7,33.5c7.2,0,13.1-0.2,17.8-0.6v6c-4.8-0.4-11.1-0.6-18.9-0.6c-1.1,3.9-2.9,7.1-5.4,9.7
		c-2.5,2.6-6.4,5.1-11.7,7.7c-1.2-1.7-2.6-3.3-4.3-4.7c4.9-1.9,8.6-3.8,11-5.7c2.4-1.9,4.1-4.2,5.1-7c-6.7,0-12.2,0.3-16.6,0.6V33
		c4.3,0.3,10.3,0.5,17.8,0.5c0.5-2.7,0.7-5.8,0.8-9.3h-8.9l-3.3,6c-1.8-0.8-3.5-1.2-5.2-1.4c1.9-1.6,3.6-4,5.1-7
		c1.5-3.1,2.3-6,2.6-8.7c2,0.6,4,1,5.9,1.2c0.3,0,0.4,0.1,0.4,0.2c0,0.1-0.2,0.4-0.7,0.8c-0.4,0.4-1.2,1.8-2.4,4.1
		c16.7,0,25.4-0.1,26.2-0.3v5.5c-2-0.2-5.3-0.3-9.9-0.3h-4.3C826.6,27.4,826.3,30.5,825.7,33.5z M842.5,50.2l-3.5,5.3
		c-4-3.8-8.8-7.2-14.4-10.3l2.5-4C833.7,44.2,838.8,47.3,842.5,50.2z"/>
	<path class="st6" d="M911.4,52.5c-10.5,0-19,0.3-25.5,0.8v-6.7c5.9,0.5,14.4,0.7,25.5,0.7v-5c4-1.6,7.1-3.2,9.1-4.7h-15.2
		c-4,0-7.1,0.1-9.3,0.2v-5.3c3.5,0.3,9.7,0.4,18.4,0.4c8.7,0,14.1-0.1,16.2-0.4v6.4c-1.4-0.1-3.1,0.4-5.3,1.4
		c-2.2,1-4.9,2.5-8.1,4.5v2.5c10.1,0,18-0.3,23.5-0.7v6.7c-6.3-0.5-14.1-0.7-23.5-0.8v10.4c0,1.5-0.3,2.7-0.8,3.4
		c-0.5,0.8-1.6,1.5-3.2,2c-1.6,0.6-4.1,1.2-7.6,1.8c-0.2-2.3-1-4.7-2.2-7.2c1.5,0.1,2.9,0.2,4.1,0.2c1.2,0,2.2-0.2,2.9-0.5
		c0.7-0.3,1-1,1-2.1V52.5z M926.7,20.4c5.9,0,10.5-0.1,13.8-0.4v13.3H935v-7.7h-43.3v8.2h-5.4V20c3.5,0.3,8.5,0.4,15,0.4h20.1
		c3.5-5.9,6-10.9,7.5-15.2c2.1,1.6,4,2.7,5.9,3.5c0.5,0.2,0.7,0.5,0.7,0.7s-0.3,0.5-1,0.8C933.6,10.7,931,14.1,926.7,20.4z
		 M903,16.6l-5.9,2.3c-0.8-2.6-2.1-5.5-3.9-8.9l5.4-2.6C900,10,901.5,13.1,903,16.6z M917.3,15.4l-6.1,1.6c-0.4-3.3-1.1-6.6-1.9-9.9
		l5.8-1.3C916,8.9,916.7,12.1,917.3,15.4z"/>
	<path class="st6" d="M997.2,9.3l-6.4,22.9c3.6,5.3,5.4,10.2,5.4,14.6c0,5.9-3.1,9.3-9.3,10c0-2.6-0.5-4.8-1.6-6.7
		c0.7,0,1.4,0.1,1.9,0.1c1.7,0,2.7-0.4,3.2-1.3c0.5-0.9,0.8-2.1,0.8-3.7c0-4.1-1.6-8.3-4.9-12.5l4.3-17.6h-7v54.8h-5.4
		c0.2-5.1,0.3-10.6,0.3-16.5V16.5c0-3.4-0.1-5.8-0.2-7.2c2.6,0.2,6,0.4,10,0.4C992.3,9.6,995.3,9.5,997.2,9.3z M1005.7,43.3
		c-2.8,0.1-5.5,0.3-7.9,0.5v-6.2c3.3,0.3,8.8,0.5,16.6,0.5c7.8,0,13.2-0.2,16.4-0.5v6.2c-2.9-0.3-6.4-0.5-10.6-0.5v16.3
		c0,1.2,0.2,1.9,0.7,2.2c0.4,0.3,1.4,0.4,2.8,0.4c1.4,0,2.5-0.2,3.2-0.5c0.7-0.3,1.3-1.1,1.7-2.2c0.4-1.1,0.9-3,1.4-5.6
		c1.5,1.7,3.2,2.8,5.2,3.4c-0.7,3-1.4,5.2-2.2,6.6c-0.8,1.4-1.9,2.4-3.2,2.9c-1.3,0.5-3.3,0.8-5.9,0.8c-2.6,0-4.5-0.1-5.7-0.4
		c-1.2-0.3-2-0.8-2.4-1.5c-0.4-0.7-0.6-1.9-0.6-3.5v-19h-4.3c-0.1,7-1.4,12.4-3.8,16.3c-2.4,3.9-6.4,7-12.2,9.1
		c-0.9-1.8-2.3-3.5-4.3-5.1c5.7-1.7,9.6-4.2,11.8-7.2C1004.6,53.4,1005.7,49,1005.7,43.3z M1011.9,13.9c-0.7-2.6-1.4-5.1-2.4-7.4
		l6.1-1.3c0.5,2.6,1.4,5.4,2.6,8.7c7.2,0,11.7-0.2,13.6-0.4v11.7h-5.3v-6.4h-23.6v6.3h-5.3V13.4C999.5,13.7,1004.2,13.8,1011.9,13.9
		z M1026.3,32.3c-2.5-0.3-6.8-0.5-12.9-0.5c-6.1,0-10.1,0.2-12.1,0.5v-6c2.4,0.4,6.6,0.6,12.5,0.6c5.9,0,10.1-0.2,12.4-0.6V32.3z"/>
	<path class="st6" d="M1092,8.1l-7,23.8c1.7,2.7,3,5.3,3.9,7.9c0.9,2.6,1.4,5.2,1.4,8c0,2.7-0.8,5-2.4,6.6c-1.6,1.7-3.9,2.7-7.1,3.1
		c-0.2-2.2-1-4.4-2.5-6.5c0.7,0.1,1.4,0.2,2.1,0.2c3.3,0,4.9-1.7,4.9-5.1c0-1.6-0.5-3.6-1.4-6.2c-0.9-2.6-2.2-4.9-3.6-7.1l4.9-19.2
		h-8.3v55.9h-5.4c0.3-4.5,0.5-10.1,0.5-16.6V19.2c0-4.2-0.2-7.9-0.5-11.1c2.4,0.3,5.9,0.4,10.2,0.4C1086.2,8.5,1089.6,8.3,1092,8.1z
		 M1096.7,29.8c-1.2,2.8-2.7,5.8-4.5,9c-1-1.4-2.2-2.7-3.5-3.7c2.5-3.6,4.5-7.6,6-11.9c1.5-4.3,2.9-10.2,4.2-17.5
		c2.3,0.9,4.2,1.4,5.6,1.6c0.6,0.1,0.9,0.3,0.9,0.7c0,0.4-0.2,0.8-0.7,1.3c-0.5,0.5-1.5,3.1-3.1,7.8v52.2h-5.4
		c0.5-4.4,0.7-9.5,0.7-15.3V29.8z M1121.5,26.3v35.1c0,2.3-0.2,3.9-0.5,4.8c-0.3,0.9-1,1.6-2.2,2c-1.1,0.4-3.2,0.7-6.1,1
		c0-1.7-0.8-4-2.4-6.7c1.6,0.2,2.8,0.4,3.7,0.4c0.9,0,1.5-0.2,1.8-0.5c0.3-0.4,0.4-1,0.4-1.8V26.3c-6,0-10.1,0.3-12.4,0.6v-6.2
		c2.7,0.3,6.8,0.5,12.4,0.5c0-6.2-0.2-11.5-0.6-16c1.9,0.4,3.5,0.6,4.8,0.6c1.3,0,1.9,0.1,1.9,0.4s-0.1,0.5-0.3,0.7
		c-0.2,0.3-0.3,1.1-0.5,2.4c-0.1,1.4-0.2,2.5-0.2,3.3v8.6c2.7,0,4.9-0.2,6.8-0.6v6.1C1126.5,26.5,1124.2,26.3,1121.5,26.3z
		 M1113.3,45.7l-5.4,1.4c-0.4-4.5-1.2-8.8-2.2-12.9l4.7-1.5C1111.6,37.6,1112.6,41.9,1113.3,45.7z"/>
	<path class="st6" d="M1220.4,19.1c-1.5-0.2-5.8-0.4-12.7-0.4h-30.3c0,11.3-0.7,20.6-2,28c-1.3,7.4-3.4,13.5-6.2,18.3
		c-1.2-1.7-2.6-3.1-4.2-4.3c3-4.5,5-10.5,5.9-18c0.9-7.5,1.4-16.7,1.4-27.5c0-3.2-0.1-6.5-0.2-9.9c2.2,0.4,10.2,0.6,24,0.6
		c13.8,0,21.8-0.2,24.1-0.6c-0.2,1.5-0.3,3.6-0.3,6.4C1220.2,14.5,1220.2,16.9,1220.4,19.1z M1215.3,14.6v-4.3h-37.9v4.3H1215.3z
		 M1201.5,41.6v3.7c7.4,0,14.1-0.3,20-0.7c-0.2,1.4-0.3,3.3-0.3,5.8v10.5c0,2-0.6,3.4-1.9,4.4c-1.3,0.9-3.8,1.6-7.5,1.9
		c-0.1-1.8-0.9-3.7-2.2-5.6c1.1,0.3,2.2,0.4,3.2,0.4c1,0,1.9-0.2,2.6-0.7c0.7-0.5,1-1.1,1-1.9v-9.9h-14.9V55l6-0.2
		c-0.5-1-1-2-1.5-2.8l3.5-1.2c1.4,2.2,2.8,4.7,4.1,7.4l-3.8,1.8c-0.1-0.6-0.4-1.4-0.9-2.4l-12.1,1.3c-3.5,0.3-5.9,0.8-7.3,1.4
		c-0.3-1.8-0.7-3.6-1.4-5.4c2,0.2,4.9,0.3,8.7,0.2v-5.7H1185v15.6h-5.4c0.3-2.1,0.5-4.4,0.5-6.8v-7.8c0-2.3-0.1-4.2-0.4-5.8
		c6.6,0.4,12.3,0.6,17,0.6v-3.7c-5.8,0-10.5,0.1-14,0.4c0.3-1.2,0.4-3.3,0.4-6.2c0-2.9-0.1-5.1-0.4-6.6c3.3,0.3,8,0.5,14,0.5v-3.5
		c-4.3,0.3-9.1,0.5-14.4,0.6c-0.3-1.7-0.8-3.1-1.6-4.4c2.2,0.2,5.1,0.3,8.7,0.3c3.6,0,8.5-0.2,14.5-0.7c6-0.4,10.1-1,12.2-1.5
		c0.9,1.4,1.8,2.6,2.9,3.7c0.4,0.4,0.5,0.7,0.5,1.1s-0.5,0.4-1.5,0.3c-1-0.1-2.4-0.2-4.2-0.2c-1.8,0-4.7,0.1-8.7,0.4l-3.4,0.2v3.8
		c7.2,0,12.5-0.2,16-0.5c-0.2,1.6-0.3,3.6-0.3,6.2c0,2.6,0.1,4.8,0.3,6.7C1214,41.8,1208.6,41.6,1201.5,41.6z M1196.7,37.9v-4.5
		h-9.1v4.5H1196.7z M1201.5,33.4v4.5h11v-4.5H1201.5z"/>
	<g>
		<path class="st6" d="M422.1,331.7c2.7,1.7,6.5,3,10.6,3c6.1,0,9.6-3.2,9.6-7.8c0-4.3-2.5-6.8-8.7-9.1c-7.5-2.7-12.2-6.6-12.2-13
			c0-7.2,5.9-12.5,14.9-12.5c4.7,0,8.1,1.1,10.1,2.2l-1.7,4.9c-1.5-0.9-4.5-2.2-8.7-2.2c-6.3,0-8.7,3.7-8.7,6.9
			c0,4.3,2.8,6.4,9.1,8.8c7.8,3.1,11.7,6.8,11.7,13.5c0,7-5.2,13.3-16.1,13.3c-4.4,0-9.3-1.3-11.7-3L422.1,331.7z"/>
		<path class="st6" d="M462.5,292.9v46h-6v-46H462.5z"/>
		<path class="st6" d="M472.8,293.6c3-0.6,7.3-1,11.4-1c6.3,0,10.5,1.2,13.3,3.8c2.3,2,3.6,5.1,3.6,8.7c0,6-3.9,10.1-8.7,11.7v0.2
			c3.5,1.2,5.6,4.5,6.7,9.3c1.5,6.4,2.6,10.8,3.5,12.6h-6.2c-0.7-1.3-1.8-5.2-3-11c-1.4-6.3-3.8-8.7-9.2-8.9h-5.6v19.9h-5.9V293.6z
			 M478.8,314.5h6.1c6.4,0,10.4-3.5,10.4-8.7c0-6-4.3-8.6-10.6-8.6c-2.9,0-4.9,0.3-5.9,0.5V314.5z"/>
		<path class="st6" d="M524,293.6c3-0.6,7.3-1,11.4-1c6.3,0,10.5,1.2,13.3,3.8c2.3,2,3.6,5.1,3.6,8.7c0,6-3.9,10.1-8.7,11.7v0.2
			c3.5,1.2,5.6,4.5,6.7,9.3c1.5,6.4,2.6,10.8,3.5,12.6h-6.2c-0.7-1.3-1.8-5.2-3-11c-1.4-6.3-3.8-8.7-9.2-8.9h-5.6v19.9H524V293.6z
			 M529.9,314.5h6.1c6.4,0,10.4-3.5,10.4-8.7c0-6-4.3-8.6-10.6-8.6c-2.9,0-4.9,0.3-5.9,0.5V314.5z"/>
		<path class="st6" d="M566.5,292.9v27.2c0,10.3,4.5,14.6,10.7,14.6c6.8,0,11.2-4.5,11.2-14.6v-27.2h6v26.8
			c0,14.1-7.4,19.9-17.4,19.9c-9.4,0-16.5-5.4-16.5-19.6v-27.1H566.5z"/>
		<path class="st6" d="M604.6,338.9v-46h6.5l14.7,23.2c3.4,5.4,6,10.2,8.2,15l0.2-0.1c-0.5-6.1-0.6-11.7-0.6-18.9v-19.3h5.6v46h-6
			l-14.6-23.3c-3.2-5.1-6.3-10.4-8.6-15.4l-0.2,0.1c0.4,5.8,0.4,11.4,0.4,19v19.7H604.6z"/>
		<path class="st6" d="M663.9,293.6c3-0.6,7.3-1,11.4-1c6.3,0,10.5,1.2,13.3,3.8c2.3,2,3.6,5.1,3.6,8.7c0,6-3.9,10.1-8.7,11.7v0.2
			c3.5,1.2,5.6,4.5,6.7,9.3c1.5,6.4,2.6,10.8,3.5,12.6h-6.2c-0.7-1.3-1.8-5.2-3-11c-1.4-6.3-3.8-8.7-9.2-8.9h-5.6v19.9h-5.9V293.6z
			 M669.9,314.5h6.1c6.4,0,10.4-3.5,10.4-8.7c0-6-4.3-8.6-10.6-8.6c-2.9,0-4.9,0.3-5.9,0.5V314.5z"/>
		<path class="st6" d="M706.4,292.9v27.2c0,10.3,4.5,14.6,10.7,14.6c6.8,0,11.2-4.5,11.2-14.6v-27.2h6v26.8
			c0,14.1-7.4,19.9-17.4,19.9c-9.4,0-16.5-5.4-16.5-19.6v-27.1H706.4z"/>
		<path class="st6" d="M744.6,338.9v-46h6.5l14.7,23.2c3.4,5.4,6,10.2,8.2,15l0.2-0.1c-0.5-6.1-0.6-11.7-0.6-18.9v-19.3h5.6v46h-6
			l-14.6-23.3c-3.2-5.1-6.3-10.4-8.6-15.4l-0.2,0.1c0.4,5.8,0.4,11.4,0.4,19v19.7H744.6z"/>
		<path class="st6" d="M803.2,331.7c2.7,1.7,6.5,3,10.6,3c6.1,0,9.6-3.2,9.6-7.8c0-4.3-2.5-6.8-8.7-9.1c-7.5-2.7-12.2-6.6-12.2-13
			c0-7.2,5.9-12.5,14.9-12.5c4.7,0,8.1,1.1,10.1,2.2l-1.7,4.9c-1.5-0.9-4.5-2.2-8.7-2.2c-6.3,0-8.7,3.7-8.7,6.9
			c0,4.3,2.8,6.4,9.1,8.8c7.8,3.1,11.7,6.8,11.7,13.5c0,7-5.2,13.3-16.1,13.3c-4.4,0-9.3-1.3-11.7-3L803.2,331.7z"/>
		<path class="st6" d="M843.5,292.9v19.2h22.2v-19.2h6v46h-6v-21.6h-22.2v21.6h-6v-46H843.5z"/>
		<path class="st6" d="M889.5,324.5l-4.7,14.4h-6.2l15.6-46h7.1l15.7,46h-6.3l-4.9-14.4H889.5z M904.6,319.8l-4.5-13.2
			c-1-3-1.7-5.7-2.4-8.4h-0.2c-0.7,2.7-1.4,5.5-2.3,8.3l-4.5,13.3H904.6z"/>
		<path class="st6" d="M927.6,338.9l-11.6-46h6.3l5.5,23.3c1.3,5.7,2.6,11.4,3.4,15.9h0.2c0.7-4.6,2.2-10,3.7-16l6.2-23.2h6.2
			l5.6,23.3c1.3,5.5,2.5,10.9,3.2,15.8h0.1c0.9-5,2.2-10.2,3.6-15.9l6.1-23.2h6.1l-13,46h-6.2l-5.8-23.9c-1.5-5.9-2.4-10.4-3-15
			h-0.1c-0.8,4.6-1.8,9.1-3.5,15l-6.5,23.9H927.6z"/>
		<path class="st6" d="M998.2,292.9v19.2h22.2v-19.2h6v46h-6v-21.6h-22.2v21.6h-6v-46H998.2z"/>
		<path class="st6" d="M1076,315.5c0,15.8-9.6,24.2-21.3,24.2c-12.2,0-20.7-9.4-20.7-23.3c0-14.6,9-24.1,21.3-24.1
			C1067.9,292.2,1076,301.8,1076,315.5z M1040.3,316.2c0,9.8,5.3,18.6,14.7,18.6c9.4,0,14.7-8.7,14.7-19.1c0-9.1-4.8-18.7-14.6-18.7
			C1045.2,297,1040.3,306.1,1040.3,316.2z"/>
		<path class="st6" d="M1082.9,331.7c2.7,1.7,6.5,3,10.6,3c6.1,0,9.6-3.2,9.6-7.8c0-4.3-2.5-6.8-8.7-9.1c-7.5-2.7-12.2-6.6-12.2-13
			c0-7.2,5.9-12.5,14.9-12.5c4.7,0,8.1,1.1,10.1,2.2l-1.7,4.9c-1.5-0.9-4.5-2.2-8.7-2.2c-6.3,0-8.7,3.7-8.7,6.9
			c0,4.3,2.8,6.4,9.1,8.8c7.8,3.1,11.7,6.8,11.7,13.5c0,7-5.2,13.3-16.1,13.3c-4.4,0-9.3-1.3-11.7-3L1082.9,331.7z"/>
		<path class="st6" d="M1117.3,293.5c2.9-0.5,6.6-0.9,11.4-0.9c5.8,0,10.1,1.3,12.9,3.8c2.5,2.2,4,5.5,4,9.6c0,4.2-1.2,7.5-3.6,9.8
			c-3.2,3.4-8.2,5-14,5c-1.8,0-3.4-0.1-4.8-0.4v18.4h-5.9V293.5z M1123.2,315.6c1.3,0.4,3,0.5,4.9,0.5c7.2,0,11.5-3.5,11.5-9.8
			c0-6.1-4.3-9.1-10.9-9.1c-2.6,0-4.6,0.2-5.6,0.5V315.6z"/>
		<path class="st6" d="M1159.6,292.9v46h-6v-46H1159.6z"/>
		<path class="st6" d="M1178.7,298h-14v-5h34v5h-14.1v40.9h-6V298z"/>
		<path class="st6" d="M1206.1,324.5l-4.7,14.4h-6.2l15.6-46h7.1l15.7,46h-6.3l-4.9-14.4H1206.1z M1221.2,319.8l-4.5-13.2
			c-1-3-1.7-5.7-2.4-8.4h-0.2c-0.7,2.7-1.4,5.5-2.3,8.3l-4.5,13.3H1221.2z"/>
		<path class="st6" d="M1240.4,292.9h6v40.9h19.6v5h-25.6V292.9z"/>
	</g>
</g>
</svg>
