<?xml version="1.0" encoding="utf-8"?>
<!-- Generator: Adobe Illustrator 19.0.0, SVG Export Plug-In . SVG Version: 6.00 Build 0)  -->
<svg version="1.1" id="layer" xmlns="http://www.w3.org/2000/svg" xmlns:xlink="http://www.w3.org/1999/xlink" x="0px" y="0px"
	 viewBox="-153 -46 652 652" style="enable-background:new -153 -46 652 652;" xml:space="preserve">
<style type="text/css">
	.st0{fill:#0037B3;}
</style>
<path class="st0" d="M-56.6,223.1v31.3c0,12.2,3.7,21.8,11.3,29.1c0,0,0,0,0,0v-8.2c-2.9-5.2-4.3-11.5-4.3-18.8v-6.1h9.7v31.7
	c0,3.1-0.1,4.7-0.2,5.4c-1.3,17.3-9.9,29.1-26.1,35.9c-16.3-6.8-24.8-18.5-26.1-35.9c11-7.5,16.4-18.4,16.4-33.2v-4h14.2v-7h-37.7
	v37.4c0,0.1,0,0.2,0,0.3c2.9-2,5.2-4.4,7-7.2v-23.4h9.7v6.1c0,10.8-3.2,19.4-9.7,25.7c-2.7,2.6-5.2,4.1-6.7,5c-1.8,1-3,1.6-4.6,2.3
	c-14.1-5.9-21-17-21-32.9v-26.3H-83v7.9h6.9v-15h-55.7v31.3c0,19.2,9,31.9,27.9,39c1.8-0.7,3.5-1.4,5.2-2.2
	c2.9,17.2,13.5,29.1,32.5,36.2c18.9-7.2,29.5-19,32.5-36.2c1.6,0.8,3.3,1.5,5.2,2.2c18.8-7.1,27.9-19.9,27.9-39v-31.3H-56.6z
	 M-7.8,256.5c0,15.9-6.9,27-21,32.9c-1.6-0.7-3.2-1.4-4.6-2.3c0.2-2,0.3-4.2,0.3-6.3v-37.4h-16.6v-13.2h41.9V256.5z"/>
<path d="M398.1,241h2.1l1.7-8.6c-2.8-1.4-7.4-2.3-11.9-2.3c-12.6,0-21.1,8.1-21.1,18.8c0,10.3,7.5,17.5,19.6,17.5
	c6,0,10.9-1.9,14.3-5l-1.5-1.9c-3.1,2.3-7,3.6-10.9,3.6c-8.6,0-15-5.9-15-15.9c0-9,5.1-14.1,13.5-14.1c6.6,0,9.2,2,9.2,6.9V241z
	 M347.8,233.2c4.4,0.2,4.8,0.5,4.8,2.9v24.2c0,2.4-0.4,2.8-4.8,2.9v2.5h15.7v-2.5c-4.4-0.2-4.8-0.5-4.8-2.9v-24.2
	c0-2.4,0.4-2.8,4.8-2.9v-2.5h-15.7V233.2z M337.9,238.8c0-4.7,0.8-5.5,4.8-5.6v-2.5h-12.6v2.5c3.9,0.1,4.8,0.9,4.8,5.6v17.7
	l-22.6-25.7h-10.1v2.3c4.1,0.7,5,1.1,5,4.7v20c0,4.7-0.8,5.5-4.8,5.5v2.5H315v-2.5c-3.9-0.1-4.8-0.9-4.8-5.5v-19.9l25.2,28.4h2.5
	V238.8z M281.1,233.2c4.4,0.2,4.8,0.5,4.8,2.9v24.2c0,2.4-0.4,2.8-4.8,2.9v2.5h15.7v-2.5c-4.4-0.2-4.8-0.5-4.8-2.9v-24.2
	c0-2.4,0.4-2.8,4.8-2.9v-2.5h-15.7V233.2z M278.1,255.7h-2l-0.7,1.6c-2.1,4.6-3.9,5.6-7.9,5.6h-6.5c-2.2,0-2.5-0.9-2.5-4.1v-22.6
	c0-2.5,0.4-2.9,5.5-3v-2.5h-16.1v2.5c4.2,0.2,4.5,0.5,4.5,2.9v22.2c0,4.1-0.3,4.4-4.1,5.1v2.3h28L278.1,255.7z M238.9,241h2.1
	l1.7-8.6c-2.8-1.4-7.4-2.3-11.9-2.3c-12.6,0-21.1,8.1-21.1,18.8c0,10.3,7.5,17.5,19.6,17.5c6,0,10.9-1.9,14.3-5l-1.5-1.9
	c-3.1,2.3-7,3.6-10.9,3.6c-8.6,0-15-5.9-15-15.9c0-9,5.1-14.1,13.5-14.1c6.6,0,9.2,2,9.2,6.9V241z M160.6,247.3
	c0-9.3,4.7-14.3,12.5-14.3c8.1,0,13.2,6,13.2,16.2c0,9.3-4.7,14.3-12.5,14.3C165.8,263.5,160.6,257.6,160.6,247.3 M154.1,248.9
	c0,10.4,7.1,17.5,18.8,17.5c11.9,0,20.1-7.8,20.1-18.8c0-10.5-7.1-17.5-18.8-17.5C162.2,230.1,154.1,237.9,154.1,248.9 M142.5,263.3
	c-4.4-0.2-4.8-0.5-4.8-2.9v-10l9.7-13.9c1.8-2.5,2.3-3.1,4.9-3.2v-2.5h-12v2.4c3.1,0.1,3.8,0.6,3.8,1.7c0,0.7-0.3,1.5-1.1,2.5
	l-6.8,9.7l-7-10c-0.7-0.9-1-1.6-1-2.2c0-1.1,0.8-1.7,4-1.7v-2.4h-15.6v2.5c2.3,0.1,2.9,0.7,4.7,3.2l10,14.2v9.7
	c0,2.4-0.4,2.8-4.8,2.9v2.5h15.7V263.3z M94.8,251.2l5.6-12.8l5.6,12.8H94.8z M95.2,263.3c-3.4-0.1-4.4-0.7-4.4-2.4
	c0-0.5,0.2-1.3,0.6-2.1l2.1-4.8h13.7l2.3,5.4c0.3,0.7,0.5,1.4,0.5,1.9c0,1.4-0.9,2-4,2.1v2.4h14.4v-2.5c-2.6-0.1-3-0.7-4.2-3.4
	l-13.1-29.4h-2.4l-13.1,29.4c-1.2,2.8-1.7,3.3-4.2,3.4v2.5h11.8V263.3z M46.4,263.3c-3.9-0.1-4.8-0.9-4.8-5.5v-20.2l13.8,27.1h1.3
	l13.8-27.1v22.8c0,2.4-0.3,2.8-4.5,2.9v2.5H81v-2.5c-4.2-0.2-4.5-0.5-4.5-2.9v-24.2c0-2.4,0.3-2.8,4.5-2.9v-2.5H70.6l-12.8,25.4
	L45,230.8H33.8v2.4c4,0.4,4.8,0.8,4.8,5.3v19.3c0,4.7-0.8,5.5-4.8,5.5v2.5h12.6V263.3z M448.5,316.6c-4.2-0.2-4.5-0.5-4.5-2.9v-8.5
	l3.7-3.4l7.6,11c0.7,1,1,1.6,1,2.2c0,1.1-0.8,1.7-3.5,1.7v2.4h15.3v-2.5c-2.6-0.2-3.2-0.7-4.9-3.2l-11.1-15.8l8.3-7.6
	c2.9-2.7,4.1-3.3,6.7-3.4v-2.5h-13v2.4c2.4,0.1,3.2,0.4,3.2,1.4c0,0.8-0.7,1.6-2.1,2.9L444,301.3v-11.8c0-2.4,0.3-2.8,4.5-2.9v-2.5
	h-15.2v2.5c4.2,0.2,4.5,0.5,4.5,2.9v24.2c0,2.4-0.3,2.8-4.5,2.9v2.5h15.2V316.6z M412.8,316.6c-4.2-0.2-4.5-0.5-4.5-2.9v-23.5
	c0-2.5,0.2-3.3,2-3.3h3.4c4.9,0,7.6,2.2,7.6,6.7c0,4.6-3.1,7-8,7H411l-0.4,1.4l12.6,17.1h8v-2.5c-2.1-0.2-2.7-0.7-4-2.4l-9.1-12
	c5.8-1.6,9.4-4.8,9.4-9.6c0-6.2-4.5-8.6-11.1-8.6h-18.4v2.3c3.9,0.7,4.2,1.1,4.2,5.1v22.2c0,2.4-0.3,2.8-4.5,2.9v2.5h15.2V316.6z
	 M359.9,300.6c0-9.3,4.7-14.3,12.5-14.3c8.1,0,13.3,6,13.3,16.2c0,9.3-4.7,14.3-12.5,14.3C365.1,316.8,359.9,310.9,359.9,300.6
	 M353.4,302.2c0,10.5,7.1,17.5,18.8,17.5c11.9,0,20.1-7.8,20.1-18.8c0-10.5-7.1-17.5-18.8-17.5C361.5,283.4,353.4,291.2,353.4,302.2
	 M335.2,319.5h3l7.7-27c1.5-5.1,2.1-5.7,5.3-6v-2.5h-12.3v2.4c4.1,0.1,5.1,0.9,3.8,5.6l-5,17.7l-10-25.3h-2.5l-10.1,25.4l-5.4-19.5
	c-0.8-3,0.2-3.9,3.8-3.9v-2.4h-14.1v2.5c2.4,0.3,2.9,0.7,3.8,3.9l8.3,29.1h2.9l10.3-25.7L335.2,319.5z M278.3,286.9v26.5
	c0,2.6-0.4,3.1-5,3.2v2.5h16.1v-2.5c-4.6-0.1-5-0.6-5-3.2v-26.5h4.3c3.7,0,5,1,6.2,5.2l0.4,1.6h2l0.3-9.6h-32.5l0.3,9.6h2l0.4-1.6
	c1.1-4.2,2.5-5.2,6.2-5.2H278.3z M264.2,309.7h-2l-0.6,1.2c-2.1,4.6-4.1,5.4-7.9,5.4H247c-2.2,0-2.5-0.9-2.5-4.1V302h6.6
	c2.8,0,3.5,0.7,4,4.1h2v-10.9h-2c-0.5,3.3-1.2,4.1-4,4.1h-6.6v-8.3c0-3.1,0.3-4.1,2.5-4.1h7.4c3.5,0,4.4,0.9,4.8,3.5l0.2,1.1h2
	l0.5-7.4h-27.9v2.4c4,0.5,4.3,0.8,4.3,4.1v21.1c0,4.1-0.3,4.4-4.2,5.1v2.3h28.1L264.2,309.7z M224.2,292.1c0-4.7,0.8-5.5,4.8-5.6
	v-2.5h-12.6v2.5c3.9,0.1,4.8,0.9,4.8,5.6v17.7l-22.6-25.7h-10.1v2.3c4.1,0.7,5,1.1,5,4.7v20c0,4.7-0.8,5.5-4.8,5.6v2.5h12.6v-2.5
	c-3.9-0.1-4.8-0.9-4.8-5.6v-19.9l25.2,28.4h2.5V292.1z M173.7,309.7h-2l-0.6,1.2c-2.1,4.6-4.1,5.4-7.9,5.4h-6.7
	c-2.2,0-2.5-0.9-2.5-4.1V302h6.6c2.8,0,3.5,0.7,4,4.1h2v-10.9h-2c-0.5,3.3-1.2,4.1-4,4.1h-6.6v-8.3c0-3.1,0.3-4.1,2.5-4.1h7.4
	c3.5,0,4.4,0.9,4.8,3.5l0.2,1.1h2l0.5-7.4h-27.9v2.4c4,0.5,4.3,0.8,4.3,4.1v21.1c0,4.1-0.3,4.4-4.2,5.1v2.3h28.1L173.7,309.7z
	 M123.1,316.6c-4.2-0.2-4.5-0.5-4.5-2.9v-23.5c0-2.5,0.2-3.3,2-3.3h3.4c4.9,0,7.6,2.2,7.6,6.7c0,4.6-3.1,7-8,7h-2.1l-0.4,1.4
	l12.6,17.1h8v-2.5c-2.1-0.2-2.7-0.7-4-2.4l-9.1-12c5.8-1.6,9.4-4.8,9.4-9.6c0-6.2-4.5-8.6-11.1-8.6h-18.4v2.3
	c3.9,0.7,4.2,1.1,4.2,5.1v22.2c0,2.4-0.3,2.8-4.5,2.9v2.5h15.2V316.6z M79.7,304.5l5.6-12.8l5.6,12.8H79.7z M80.1,316.6
	c-3.4-0.1-4.4-0.7-4.4-2.4c0-0.5,0.2-1.3,0.6-2.1l2.1-4.8h13.7l2.3,5.4c0.3,0.7,0.5,1.4,0.5,1.9c0,1.4-0.9,2-4,2.1v2.4h14.4v-2.5
	c-2.6-0.1-3-0.7-4.2-3.5l-13.1-29.4h-2.4l-13.1,29.4c-1.2,2.8-1.7,3.3-4.2,3.5v2.5h11.8V316.6z M62.7,294.3h2.1l1.7-8.6
	c-2.8-1.4-7.4-2.3-11.9-2.3c-12.6,0-21.1,8.1-21.1,18.8c0,10.3,7.5,17.5,19.5,17.5c6,0,10.5-1.9,14-5l-1.5-1.9
	c-3.1,2.3-6.7,3.6-10.5,3.6c-8.4,0-14.8-5.9-14.8-15.9c0-9,5.1-14.1,13.5-14.1c6.6,0,9.2,2,9.2,6.9V294.3z"/>
</svg>
