<svg xmlns="http://www.w3.org/2000/svg" xmlns:xlink="http://www.w3.org/1999/xlink" width="194" height="50" viewBox="0 0 194 50" version="1.1">
    <!-- Generator: Sketch 56.3 (81716) - https://sketch.com -->
    <title>MCCN_Logo_horz_wht</title>
    <desc>Created with Sketch.</desc>
    <defs>
        <polygon id="path-1" points="0.06 0.804 97.977 0.804 97.977 49.818 0.06 49.818"/>
    </defs>
    <g id="MCCN_Logo_horz_wht" stroke="none" stroke-width="1" fill="none" fill-rule="evenodd">
        <polyline id="Fill-1" fill="#FFFFFE" points="61.917 41.464 61.917 49.818 60.801 49.818 60.801 42.852 58.051 48.352 57.039 48.352 54.289 42.852 54.289 49.818 53.226 49.818 53.226 41.464 54.731 41.464 57.571 47.159 60.412 41.464 61.917 41.464"/>
        <path d="M65.218,45.226 C64.92,45.511 64.727,45.897 64.641,46.38 L67.87,46.38 C67.801,45.871 67.632,45.479 67.364,45.207 C67.096,44.934 66.746,44.798 66.314,44.798 C65.882,44.798 65.516,44.941 65.218,45.226 Z M68.986,47.12 L64.602,47.12 C64.645,47.716 64.837,48.195 65.179,48.553 C65.521,48.913 65.955,49.091 66.483,49.091 C66.828,49.091 67.133,49.014 67.397,48.858 C67.661,48.703 67.853,48.487 67.974,48.21 L68.921,48.443 C68.757,48.919 68.45,49.297 68,49.579 C67.55,49.859 67.019,50 66.405,50 C65.834,50 65.332,49.872 64.9,49.617 C64.467,49.362 64.133,49.005 63.895,48.547 C63.657,48.088 63.538,47.561 63.538,46.964 C63.538,46.368 63.655,45.84 63.888,45.382 C64.122,44.923 64.452,44.567 64.881,44.312 C65.309,44.057 65.803,43.929 66.366,43.929 C67.178,43.929 67.818,44.195 68.286,44.727 C68.753,45.258 68.986,45.987 68.986,46.913 L68.986,47.12 L68.986,47.12 Z" id="Fill-2" fill="#FFFFFE"/>
        <path d="M78.909,44.442 C79.22,44.775 79.376,45.244 79.376,45.849 L79.376,49.818 L78.313,49.818 L78.313,46.134 C78.313,45.728 78.209,45.413 78.001,45.187 C77.794,44.962 77.504,44.85 77.132,44.85 C76.665,44.85 76.265,45.014 75.932,45.343 C75.599,45.671 75.433,46.139 75.433,46.744 L75.433,49.818 L74.369,49.818 L74.369,46.134 C74.369,45.728 74.265,45.413 74.058,45.187 C73.85,44.962 73.561,44.85 73.189,44.85 C72.722,44.85 72.322,45.014 71.989,45.343 C71.656,45.671 71.489,46.139 71.489,46.744 L71.489,49.818 L70.426,49.818 L70.426,44.111 L71.464,44.111 L71.464,45.071 C72.112,44.318 72.834,43.942 73.63,43.942 C74.071,43.942 74.434,44.042 74.719,44.241 C75.005,44.439 75.208,44.72 75.329,45.084 C75.675,44.695 76.029,44.407 76.393,44.221 C76.756,44.035 77.15,43.942 77.573,43.942 C78.152,43.942 78.598,44.109 78.909,44.442" id="Fill-3" fill="#FFFFFE"/>
        <path d="M84.785,48.845 C85.079,48.655 85.308,48.391 85.472,48.054 C85.636,47.716 85.719,47.337 85.719,46.913 C85.719,46.29 85.546,45.789 85.2,45.408 C84.854,45.028 84.4,44.837 83.838,44.837 C83.371,44.837 82.973,44.98 82.645,45.265 C82.316,45.55 82.151,45.958 82.151,46.485 L82.151,48.43 C82.385,48.655 82.642,48.828 82.924,48.949 C83.204,49.07 83.492,49.13 83.786,49.13 C84.158,49.13 84.491,49.036 84.785,48.845 Z M85.589,44.286 C85.978,44.524 86.279,44.861 86.491,45.297 C86.702,45.734 86.808,46.238 86.808,46.809 C86.808,47.423 86.683,47.972 86.432,48.457 C86.181,48.941 85.829,49.319 85.375,49.591 C84.921,49.864 84.4,50 83.812,50 C83.155,50 82.541,49.81 81.97,49.429 L81.84,49.818 L81.088,49.818 L81.088,41.101 L82.151,40.868 L82.151,44.967 C82.74,44.275 83.44,43.929 84.253,43.929 C84.755,43.929 85.2,44.048 85.589,44.286 L85.589,44.286 Z" id="Fill-4" fill="#FFFFFE"/>
        <path d="M89.5,45.226 C89.202,45.511 89.009,45.897 88.923,46.38 L92.152,46.38 C92.084,45.871 91.915,45.479 91.647,45.207 C91.379,44.934 91.029,44.798 90.596,44.798 C90.164,44.798 89.799,44.941 89.5,45.226 Z M93.268,47.12 L88.884,47.12 C88.927,47.716 89.119,48.195 89.461,48.553 C89.803,48.913 90.237,49.091 90.765,49.091 C91.11,49.091 91.415,49.014 91.679,48.858 C91.943,48.703 92.135,48.487 92.257,48.21 L93.203,48.443 C93.039,48.919 92.732,49.297 92.282,49.579 C91.833,49.859 91.301,50 90.687,50 C90.116,50 89.614,49.872 89.182,49.617 C88.75,49.362 88.415,49.005 88.177,48.547 C87.939,48.088 87.82,47.561 87.82,46.964 C87.82,46.368 87.937,45.84 88.171,45.382 C88.404,44.923 88.734,44.567 89.163,44.312 C89.591,44.057 90.086,43.929 90.648,43.929 C91.461,43.929 92.101,44.195 92.568,44.727 C93.035,45.258 93.268,45.987 93.268,46.913 L93.268,47.12 L93.268,47.12 Z" id="Fill-5" fill="#FFFFFE"/>
        <g id="Group-9">
            <mask id="mask-2" fill="white">
                <use xlink:href="#path-1"/>
            </mask>
            <g id="Clip-7"/>
            <path d="M97.977,44.007 L97.977,45.071 C97.847,45.062 97.67,45.057 97.445,45.057 C96.987,45.057 96.593,45.207 96.265,45.505 C95.936,45.803 95.772,46.225 95.772,46.77 L95.772,49.818 L94.708,49.818 L94.708,44.111 L95.746,44.111 L95.746,45.265 C96.1,44.816 96.431,44.492 96.738,44.293 C97.045,44.093 97.372,43.994 97.717,43.994 C97.821,43.994 97.908,43.999 97.977,44.007" id="Fill-6" fill="#FFFFFE" mask="url(#mask-2)"/>
            <path d="M40.071,11.589 C40.071,16.715 37.856,20.319 33.3,22.217 C32.771,21.997 32.276,21.754 31.81,21.488 C31.874,20.828 31.906,20.145 31.906,19.441 L31.906,7.356 L26.528,7.356 L26.528,3.087 L40.071,3.087 L40.071,11.589 Z M24.3,0.804 L24.3,10.917 C24.3,14.87 25.49,17.975 27.936,20.303 C27.934,20.299 27.932,20.296 27.931,20.294 L27.931,17.647 C26.993,15.956 26.528,13.931 26.528,11.589 L26.528,9.627 L29.65,9.627 L29.65,19.884 C29.65,20.872 29.61,21.399 29.594,21.62 C29.183,27.223 26.411,31.028 21.15,33.22 C15.894,31.032 13.122,27.23 12.707,21.634 C16.274,19.21 18.001,15.678 18.001,10.917 L18.001,9.627 L22.586,9.627 L22.586,7.356 L10.394,7.356 L10.394,19.441 C10.394,19.472 10.395,19.503 10.395,19.533 C11.325,18.883 12.075,18.106 12.65,17.196 L12.65,9.627 L15.771,9.627 L15.771,11.589 C15.771,15.078 14.744,17.864 12.65,19.884 C11.779,20.725 10.975,21.213 10.489,21.488 C9.923,21.807 9.528,21.997 9,22.217 C4.444,20.319 2.228,16.715 2.228,11.589 L2.228,3.087 L15.771,3.087 L15.771,5.642 L18.001,5.642 L18.001,0.804 L0,0.804 L0,10.917 C0,17.107 2.913,21.217 9,23.522 C9.585,23.301 10.14,23.063 10.666,22.807 C11.609,28.358 15.041,32.194 21.15,34.505 C27.259,32.194 30.692,28.357 31.635,22.806 C32.161,23.061 32.715,23.3 33.3,23.522 C39.388,21.217 42.3,17.107 42.3,10.917 L42.3,0.804 L24.3,0.804 L24.3,0.804 Z" id="Fill-8" fill="#FFFFFE" mask="url(#mask-2)"/>
        </g>
        <path d="M57.588,13.792 C56.322,13.762 56.051,13.506 56.051,11.999 L56.051,5.488 L60.497,14.229 L60.904,14.229 L65.35,5.488 L65.35,12.843 C65.35,13.626 65.244,13.732 63.888,13.792 L63.888,14.591 L68.786,14.591 L68.786,13.792 C67.43,13.732 67.324,13.626 67.324,12.843 L67.324,5.035 C67.324,4.252 67.43,4.146 68.786,4.086 L68.786,3.287 L65.41,3.287 L61.265,11.486 L57.136,3.287 L53.504,3.287 L53.504,4.056 C54.8,4.191 55.041,4.312 55.041,5.759 L55.041,11.999 C55.041,13.506 54.77,13.762 53.504,13.792 L53.504,14.591 L57.588,14.591 L57.588,13.792 Z M73.368,13.807 C72.268,13.777 71.951,13.581 71.951,13.038 C71.951,12.873 72.027,12.617 72.147,12.345 L72.84,10.793 L77.256,10.793 L78.01,12.541 C78.116,12.782 78.176,12.993 78.176,13.144 C78.176,13.611 77.874,13.792 76.894,13.807 L76.894,14.591 L81.552,14.591 L81.552,13.792 C80.723,13.747 80.572,13.566 80.18,12.677 L75.945,3.167 L75.176,3.167 L70.941,12.677 C70.55,13.566 70.399,13.747 69.57,13.792 L69.57,14.591 L73.368,14.591 L73.368,13.807 Z M73.232,9.888 L75.056,5.759 L76.865,9.888 L73.232,9.888 Z M88.65,13.792 C87.233,13.732 87.113,13.626 87.113,12.843 L87.113,9.602 L90.263,5.126 C90.836,4.312 91.016,4.116 91.86,4.086 L91.86,3.287 L87.987,3.287 L87.987,4.071 C88.981,4.101 89.223,4.267 89.223,4.629 C89.223,4.855 89.117,5.111 88.876,5.442 L86.691,8.577 L84.445,5.337 C84.219,5.035 84.128,4.824 84.128,4.629 C84.128,4.267 84.384,4.086 85.41,4.071 L85.41,3.287 L80.376,3.287 L80.376,4.086 C81.129,4.116 81.325,4.312 81.883,5.111 L85.123,9.708 L85.123,12.843 C85.123,13.626 85.002,13.732 83.586,13.792 L83.586,14.591 L88.65,14.591 L88.65,13.792 Z M92.388,9.15 C92.388,12.526 94.678,14.817 98.446,14.817 C102.304,14.817 104.926,12.285 104.926,8.728 C104.926,5.352 102.635,3.061 98.868,3.061 C95.01,3.061 92.388,5.593 92.388,9.15 L92.388,9.15 Z M94.498,8.623 C94.498,5.608 96.005,4.011 98.537,4.011 C101.144,4.011 102.817,5.94 102.817,9.255 C102.817,12.27 101.31,13.867 98.778,13.867 C96.171,13.867 94.498,11.938 94.498,8.623 L94.498,8.623 Z M119.788,6.588 L120.481,6.588 L121.023,3.8 C120.119,3.347 118.627,3.061 117.179,3.061 C113.111,3.061 110.353,5.669 110.353,9.15 C110.353,12.466 112.779,14.817 116.683,14.817 C118.627,14.817 120.195,14.199 121.31,13.189 L120.813,12.571 C119.802,13.325 118.551,13.732 117.3,13.732 C114.527,13.732 112.463,11.833 112.463,8.592 C112.463,5.684 114.12,4.026 116.818,4.026 C118.944,4.026 119.788,4.659 119.788,6.241 L119.788,6.588 Z M132.433,11.335 L131.785,11.335 L131.544,11.848 C130.85,13.325 130.278,13.672 128.996,13.672 L126.885,13.672 C126.177,13.672 126.088,13.37 126.088,12.36 L126.088,5.066 C126.088,4.267 126.222,4.116 127.851,4.086 L127.851,3.287 L122.635,3.287 L122.635,4.086 C123.993,4.146 124.097,4.252 124.097,5.035 L124.097,12.194 C124.097,13.506 124.007,13.611 122.756,13.852 L122.756,14.591 L131.799,14.591 L132.433,11.335 Z M133.412,4.086 C134.829,4.146 134.949,4.252 134.949,5.035 L134.949,12.843 C134.949,13.626 134.829,13.732 133.412,13.792 L133.412,14.591 L138.476,14.591 L138.476,13.792 C137.06,13.732 136.939,13.626 136.939,12.843 L136.939,5.035 C136.939,4.252 137.06,4.146 138.476,4.086 L138.476,3.287 L133.412,3.287 L133.412,4.086 Z M151.784,5.879 C151.784,4.372 152.055,4.116 153.321,4.086 L153.321,3.287 L149.237,3.287 L149.237,4.086 C150.504,4.116 150.775,4.372 150.775,5.879 L150.775,11.592 L143.464,3.287 L140.21,3.287 L140.21,4.026 C141.536,4.237 141.822,4.372 141.822,5.548 L141.822,11.999 C141.822,13.506 141.55,13.762 140.285,13.792 L140.285,14.591 L144.369,14.591 L144.369,13.792 C143.103,13.762 142.832,13.506 142.832,11.999 L142.832,5.578 L150.97,14.742 L151.784,14.742 L151.784,5.879 Z M154.979,4.086 C156.396,4.146 156.517,4.252 156.517,5.035 L156.517,12.843 C156.517,13.626 156.396,13.732 154.979,13.792 L154.979,14.591 L160.043,14.591 L160.043,13.792 C158.626,13.732 158.506,13.626 158.506,12.843 L158.506,5.035 C158.506,4.252 158.626,4.146 160.043,4.086 L160.043,3.287 L154.979,3.287 L154.979,4.086 Z M171.211,6.588 L171.905,6.588 L172.447,3.8 C171.543,3.347 170.05,3.061 168.604,3.061 C164.534,3.061 161.776,5.669 161.776,9.15 C161.776,12.466 164.203,14.817 168.106,14.817 C170.05,14.817 171.618,14.199 172.733,13.189 L172.236,12.571 C171.226,13.325 169.975,13.732 168.725,13.732 C165.951,13.732 163.885,11.833 163.885,8.592 C163.885,5.684 165.544,4.026 168.242,4.026 C170.367,4.026 171.211,4.659 171.211,6.241 L171.211,6.588 L171.211,6.588 Z" id="Fill-10" fill="#FFFFFE"/>
        <path d="M62.863,23.812 L63.556,23.812 L64.099,21.024 C63.194,20.572 61.702,20.286 60.255,20.286 C56.186,20.286 53.428,22.893 53.428,26.375 C53.428,29.69 55.854,32.041 59.713,32.041 C61.657,32.041 63.119,31.424 64.234,30.414 L63.737,29.795 C62.742,30.549 61.582,30.956 60.331,30.956 C57.603,30.956 55.538,29.057 55.538,25.817 C55.538,22.908 57.196,21.25 59.894,21.25 C62.019,21.25 62.863,21.883 62.863,23.466 L62.863,23.812 Z M68.485,31.032 C67.384,31.002 67.068,30.806 67.068,30.263 C67.068,30.097 67.143,29.841 67.264,29.57 L67.957,28.018 L72.373,28.018 L73.127,29.765 C73.232,30.007 73.292,30.218 73.292,30.368 C73.292,30.835 72.991,31.017 72.011,31.032 L72.011,31.815 L76.668,31.815 L76.668,31.017 C75.84,30.971 75.689,30.791 75.297,29.901 L71.062,20.391 L70.293,20.391 L66.058,29.901 C65.666,30.791 65.515,30.971 64.687,31.017 L64.687,31.815 L68.485,31.815 L68.485,31.032 Z M68.349,27.113 L70.172,22.983 L71.981,27.113 L68.349,27.113 Z M82.365,31.017 C81.009,30.956 80.904,30.85 80.904,30.067 L80.904,22.471 C80.904,21.657 80.979,21.416 81.536,21.416 L82.621,21.416 C84.189,21.416 85.063,22.125 85.063,23.586 C85.063,25.063 84.053,25.862 82.486,25.862 L81.793,25.862 L81.672,26.299 L85.741,31.815 L88.319,31.815 L88.319,31.017 C87.625,30.956 87.43,30.775 87.022,30.248 L84.083,26.375 C85.967,25.862 87.113,24.837 87.113,23.284 C87.113,21.265 85.666,20.512 83.526,20.512 L77.573,20.512 L77.573,21.25 C78.823,21.491 78.914,21.597 78.914,22.908 L78.914,30.067 C78.914,30.85 78.809,30.956 77.452,31.017 L77.452,31.815 L82.365,31.815 L82.365,31.017 Z M98.718,28.786 L98.07,28.786 L97.889,29.178 C97.196,30.67 96.578,30.911 95.327,30.911 L93.171,30.911 C92.463,30.911 92.373,30.61 92.373,29.6 L92.373,26.314 L94.513,26.314 C95.402,26.314 95.643,26.555 95.794,27.625 L96.442,27.625 L96.442,24.099 L95.794,24.099 C95.643,25.169 95.402,25.41 94.513,25.41 L92.373,25.41 L92.373,22.727 C92.373,21.717 92.463,21.416 93.171,21.416 L95.568,21.416 C96.698,21.416 96.985,21.702 97.12,22.546 L97.181,22.908 L97.813,22.908 L97.98,20.512 L88.982,20.512 L88.982,21.28 C90.278,21.431 90.384,21.537 90.384,22.592 L90.384,29.419 C90.384,30.73 90.293,30.835 89.042,31.077 L89.042,31.815 L98.131,31.815 L98.718,28.786 Z M115.04,23.104 C115.04,21.597 115.311,21.341 116.577,21.311 L116.577,20.512 L112.493,20.512 L112.493,21.311 C113.759,21.341 114.03,21.597 114.03,23.104 L114.03,28.816 L106.72,20.512 L103.465,20.512 L103.465,21.25 C104.791,21.461 105.077,21.597 105.077,22.772 L105.077,29.223 C105.077,30.73 104.806,30.986 103.54,31.017 L103.54,31.815 L107.625,31.815 L107.625,31.017 C106.359,30.986 106.089,30.73 106.089,29.223 L106.089,22.802 L114.226,31.966 L115.04,31.966 L115.04,23.104 Z M127.956,28.786 L127.308,28.786 L127.127,29.178 C126.434,30.67 125.816,30.911 124.565,30.911 L122.41,30.911 C121.702,30.911 121.611,30.61 121.611,29.6 L121.611,26.314 L123.751,26.314 C124.64,26.314 124.882,26.555 125.033,27.625 L125.681,27.625 L125.681,24.099 L125.033,24.099 C124.882,25.169 124.64,25.41 123.751,25.41 L121.611,25.41 L121.611,22.727 C121.611,21.717 121.702,21.416 122.41,21.416 L124.806,21.416 C125.936,21.416 126.223,21.702 126.359,22.546 L126.42,22.908 L127.052,22.908 L127.218,20.512 L118.22,20.512 L118.22,21.28 C119.516,21.431 119.622,21.537 119.622,22.592 L119.622,29.419 C119.622,30.73 119.531,30.835 118.28,31.077 L118.28,31.815 L127.368,31.815 L127.956,28.786 Z M132.508,21.431 L132.508,29.992 C132.508,30.835 132.372,30.986 130.895,31.017 L130.895,31.815 L136.11,31.815 L136.11,31.017 C134.633,30.986 134.497,30.835 134.497,29.992 L134.497,21.431 L135.883,21.431 C137.074,21.431 137.511,21.747 137.873,23.104 L138.009,23.616 L138.657,23.616 L138.748,20.512 L128.258,20.512 L128.348,23.616 L128.996,23.616 L129.132,23.104 C129.493,21.747 129.93,21.431 131.121,21.431 L132.508,21.431 Z M150.881,31.951 L151.844,31.951 L154.346,23.24 C154.814,21.597 155.025,21.401 156.065,21.311 L156.065,20.512 L152.101,20.512 L152.101,21.295 C153.412,21.326 153.759,21.597 153.338,23.104 L151.724,28.816 L148.484,20.632 L147.671,20.632 L144.414,28.846 L142.666,22.561 C142.395,21.582 142.726,21.311 143.902,21.295 L143.902,20.512 L139.351,20.512 L139.351,21.311 C140.119,21.401 140.3,21.537 140.587,22.561 L143.269,31.951 L144.219,31.951 L147.549,23.647 L150.881,31.951 Z M156.773,26.375 C156.773,29.751 159.064,32.041 162.832,32.041 C166.69,32.041 169.312,29.509 169.312,25.953 C169.312,22.577 167.021,20.286 163.255,20.286 C159.395,20.286 156.773,22.817 156.773,26.375 L156.773,26.375 Z M158.883,25.847 C158.883,22.833 160.39,21.235 162.923,21.235 C165.529,21.235 167.203,23.165 167.203,26.48 C167.203,29.494 165.695,31.092 163.163,31.092 C160.556,31.092 158.883,29.163 158.883,25.847 L158.883,25.847 Z M175.958,31.017 C174.602,30.956 174.497,30.85 174.497,30.067 L174.497,22.471 C174.497,21.657 174.572,21.416 175.13,21.416 L176.214,21.416 C177.782,21.416 178.656,22.125 178.656,23.586 C178.656,25.063 177.646,25.862 176.079,25.862 L175.385,25.862 L175.265,26.299 L179.335,31.815 L181.911,31.815 L181.911,31.017 C181.218,30.956 181.022,30.775 180.616,30.248 L177.677,26.375 C179.561,25.862 180.706,24.837 180.706,23.284 C180.706,21.265 179.259,20.512 177.119,20.512 L171.165,20.512 L171.165,21.25 C172.416,21.491 172.507,21.597 172.507,22.908 L172.507,30.067 C172.507,30.85 172.401,30.956 171.046,31.017 L171.046,31.815 L175.958,31.815 L175.958,31.017 Z M187.505,31.017 C186.147,30.956 186.041,30.85 186.041,30.067 L186.041,27.309 L187.232,26.209 L189.704,29.765 C189.915,30.082 190.02,30.278 190.02,30.474 C190.02,30.835 189.764,31.017 188.89,31.032 L188.89,31.815 L193.848,31.815 L193.848,31.017 C193.005,30.956 192.823,30.791 192.266,29.992 L188.663,24.882 L191.346,22.411 C192.281,21.552 192.673,21.341 193.516,21.311 L193.516,20.512 L189.312,20.512 L189.312,21.295 C190.096,21.326 190.337,21.416 190.337,21.732 C190.337,22.004 190.111,22.26 189.659,22.682 L186.041,26.073 L186.041,22.26 C186.041,21.476 186.147,21.371 187.505,21.311 L187.505,20.512 L182.59,20.512 L182.59,21.311 C183.946,21.371 184.052,21.476 184.052,22.26 L184.052,30.067 C184.052,30.85 183.946,30.956 182.59,31.017 L182.59,31.815 L187.505,31.815 L187.505,31.017 L187.505,31.017 Z" id="Fill-11" fill="#FFFFFE"/>
    </g>
</svg>