<?xml version="1.0" encoding="utf-8"?>
<!-- Generator: Adobe Illustrator 24.2.3, SVG Export Plug-In . SVG Version: 6.00 Build 0)  -->
<svg version="1.1" id="Layer_1" xmlns="http://www.w3.org/2000/svg" xmlns:xlink="http://www.w3.org/1999/xlink" x="0px" y="0px"
	 viewBox="0 0 194 50" style="enable-background:new 0 0 194 50;" xml:space="preserve">
<style type="text/css">
	.st0{fill-rule:evenodd;clip-rule:evenodd;}
	.st1{filter:url(#Adobe_OpacityMaskFilter);}
	.st2{fill-rule:evenodd;clip-rule:evenodd;fill:#FFFFFF;}
	.st3{mask:url(#mask-2_1_);fill-rule:evenodd;clip-rule:evenodd;}
	.st4{filter:url(#Adobe_OpacityMaskFilter_1_);}
	.st5{mask:url(#mask-2_2_);fill-rule:evenodd;clip-rule:evenodd;fill:#0037B3;}
</style>
<desc>Created with Sketch.</desc>
<g id="MCCN_Logo_horz_wht">
	<polyline id="Fill-1" class="st0" points="61.92,41.46 61.92,49.82 60.8,49.82 60.8,42.85 58.05,48.35 57.04,48.35 54.29,42.85 
		54.29,49.82 53.23,49.82 53.23,41.46 54.73,41.46 57.57,47.16 60.41,41.46 61.92,41.46 	"/>
	<path id="Fill-2" class="st0" d="M65.22,45.23c-0.3,0.28-0.49,0.67-0.58,1.15h3.23c-0.07-0.51-0.24-0.9-0.51-1.17
		c-0.27-0.27-0.62-0.41-1.05-0.41S65.52,44.94,65.22,45.23z M68.99,47.12H64.6c0.04,0.6,0.24,1.08,0.58,1.43
		c0.34,0.36,0.78,0.54,1.3,0.54c0.35,0,0.65-0.08,0.91-0.23c0.26-0.16,0.46-0.37,0.58-0.65l0.95,0.23
		c-0.16,0.48-0.47,0.85-0.92,1.14C67.55,49.86,67.02,50,66.4,50c-0.57,0-1.07-0.13-1.5-0.38c-0.43-0.26-0.77-0.61-1.01-1.07
		c-0.24-0.46-0.36-0.99-0.36-1.58c0-0.6,0.12-1.12,0.35-1.58c0.23-0.46,0.56-0.81,0.99-1.07c0.43-0.26,0.92-0.38,1.49-0.38
		c0.81,0,1.45,0.27,1.92,0.8c0.47,0.53,0.7,1.26,0.7,2.19V47.12L68.99,47.12z"/>
	<path id="Fill-3" class="st0" d="M78.91,44.44c0.31,0.33,0.47,0.8,0.47,1.41v3.97h-1.06v-3.68c0-0.41-0.1-0.72-0.31-0.95
		c-0.21-0.22-0.5-0.34-0.87-0.34c-0.47,0-0.87,0.16-1.2,0.49c-0.33,0.33-0.5,0.8-0.5,1.4v3.07h-1.06v-3.68
		c0-0.41-0.1-0.72-0.31-0.95c-0.21-0.22-0.5-0.34-0.87-0.34c-0.47,0-0.87,0.16-1.2,0.49c-0.33,0.33-0.5,0.8-0.5,1.4v3.07h-1.06
		v-5.71h1.04v0.96c0.65-0.75,1.37-1.13,2.17-1.13c0.44,0,0.8,0.1,1.09,0.3c0.29,0.2,0.49,0.48,0.61,0.84
		c0.35-0.39,0.7-0.68,1.06-0.86c0.36-0.19,0.76-0.28,1.18-0.28C78.15,43.94,78.6,44.11,78.91,44.44"/>
	<path id="Fill-4" class="st0" d="M84.79,48.85c0.29-0.19,0.52-0.45,0.69-0.79c0.16-0.34,0.25-0.72,0.25-1.14
		c0-0.62-0.17-1.12-0.52-1.5c-0.35-0.38-0.8-0.57-1.36-0.57c-0.47,0-0.86,0.14-1.19,0.43c-0.33,0.28-0.49,0.69-0.49,1.22v1.94
		c0.23,0.22,0.49,0.4,0.77,0.52c0.28,0.12,0.57,0.18,0.86,0.18C84.16,49.13,84.49,49.04,84.79,48.85z M85.59,44.29
		c0.39,0.24,0.69,0.58,0.9,1.01c0.21,0.44,0.32,0.94,0.32,1.51c0,0.61-0.13,1.16-0.38,1.65c-0.25,0.48-0.6,0.86-1.06,1.13
		C84.92,49.86,84.4,50,83.81,50c-0.66,0-1.27-0.19-1.84-0.57l-0.13,0.39h-0.75V41.1l1.06-0.23v4.1c0.59-0.69,1.29-1.04,2.1-1.04
		C84.75,43.93,85.2,44.05,85.59,44.29L85.59,44.29z"/>
	<path id="Fill-5" class="st0" d="M89.5,45.23c-0.3,0.28-0.49,0.67-0.58,1.15h3.23c-0.07-0.51-0.24-0.9-0.5-1.17
		c-0.27-0.27-0.62-0.41-1.05-0.41C90.16,44.8,89.8,44.94,89.5,45.23z M93.27,47.12h-4.38c0.04,0.6,0.24,1.08,0.58,1.43
		c0.34,0.36,0.78,0.54,1.3,0.54c0.35,0,0.65-0.08,0.91-0.23c0.26-0.16,0.46-0.37,0.58-0.65l0.95,0.23
		c-0.16,0.48-0.47,0.85-0.92,1.14C91.83,49.86,91.3,50,90.69,50c-0.57,0-1.07-0.13-1.5-0.38s-0.77-0.61-1-1.07
		c-0.24-0.46-0.36-0.99-0.36-1.58c0-0.6,0.12-1.12,0.35-1.58c0.23-0.46,0.56-0.81,0.99-1.07c0.43-0.26,0.92-0.38,1.49-0.38
		c0.81,0,1.45,0.27,1.92,0.8c0.47,0.53,0.7,1.26,0.7,2.19V47.12L93.27,47.12z"/>
	<g id="Group-9">
		<g id="Clip-7">
		</g>
		<defs>
			<filter id="Adobe_OpacityMaskFilter" filterUnits="userSpaceOnUse" x="94.71" y="43.99" width="3.27" height="5.82">
				<feColorMatrix  type="matrix" values="1 0 0 0 0  0 1 0 0 0  0 0 1 0 0  0 0 0 1 0"/>
			</filter>
		</defs>
		<mask maskUnits="userSpaceOnUse" x="94.71" y="43.99" width="3.27" height="5.82" id="mask-2_1_">
			<g class="st1">
				<polygon id="path-1_1_" class="st2" points="0.06,0.8 97.98,0.8 97.98,49.82 0.06,49.82 				"/>
			</g>
		</mask>
		<path id="Fill-6" class="st3" d="M97.98,44.01v1.06c-0.13-0.01-0.31-0.01-0.53-0.01c-0.46,0-0.85,0.15-1.18,0.45
			c-0.33,0.3-0.49,0.72-0.49,1.26v3.05h-1.06v-5.71h1.04v1.15c0.35-0.45,0.68-0.77,0.99-0.97c0.31-0.2,0.63-0.3,0.98-0.3
			C97.82,43.99,97.91,44,97.98,44.01"/>
		<defs>
			<filter id="Adobe_OpacityMaskFilter_1_" filterUnits="userSpaceOnUse" x="0" y="0.8" width="42.3" height="33.7">
				<feColorMatrix  type="matrix" values="1 0 0 0 0  0 1 0 0 0  0 0 1 0 0  0 0 0 1 0"/>
			</filter>
		</defs>
		<mask maskUnits="userSpaceOnUse" x="0" y="0.8" width="42.3" height="33.7" id="mask-2_2_">
			<g class="st4">
				<polygon id="path-1_2_" class="st2" points="0.06,0.8 97.98,0.8 97.98,49.82 0.06,49.82 				"/>
			</g>
		</mask>
		<path id="Fill-8" class="st5" d="M40.07,11.59c0,5.13-2.22,8.73-6.77,10.63c-0.53-0.22-1.02-0.46-1.49-0.73
			c0.06-0.66,0.1-1.34,0.1-2.05V7.36h-5.38V3.09h13.54V11.59z M24.3,0.8v10.11c0,3.95,1.19,7.06,3.64,9.39c0,0,0-0.01-0.01-0.01
			v-2.65c-0.94-1.69-1.4-3.72-1.4-6.06V9.63h3.12v10.26c0,0.99-0.04,1.51-0.06,1.74c-0.41,5.6-3.18,9.41-8.44,11.6
			c-5.26-2.19-8.03-5.99-8.44-11.59C16.27,19.21,18,15.68,18,10.92V9.63h4.59V7.36H10.39v12.09c0,0.03,0,0.06,0,0.09
			c0.93-0.65,1.68-1.43,2.25-2.34V9.63h3.12v1.96c0,3.49-1.03,6.28-3.12,8.3c-0.87,0.84-1.67,1.33-2.16,1.6
			C9.92,21.81,9.53,22,9,22.22c-4.56-1.9-6.77-5.5-6.77-10.63v-8.5h13.54v2.56H18V0.8H0v10.11c0,6.19,2.91,10.3,9,12.6
			c0.59-0.22,1.14-0.46,1.67-0.72c0.94,5.55,4.38,9.39,10.48,11.7c6.11-2.31,9.54-6.15,10.49-11.7c0.53,0.26,1.08,0.49,1.66,0.72
			c6.09-2.31,9-6.41,9-12.6V0.8H24.3L24.3,0.8z"/>
	</g>
	<path id="Fill-10" class="st0" d="M57.59,13.79c-1.27-0.03-1.54-0.29-1.54-1.79V5.49l4.45,8.74h0.41l4.45-8.74v7.36
		c0,0.78-0.11,0.89-1.46,0.95v0.8h4.9v-0.8c-1.36-0.06-1.46-0.17-1.46-0.95V5.03c0-0.78,0.11-0.89,1.46-0.95v-0.8h-3.38l-4.15,8.2
		l-4.13-8.2H53.5v0.77c1.3,0.13,1.54,0.26,1.54,1.7V12c0,1.51-0.27,1.76-1.54,1.79v0.8h4.08V13.79z M73.37,13.81
		c-1.1-0.03-1.42-0.23-1.42-0.77c0-0.16,0.08-0.42,0.2-0.69l0.69-1.55h4.42l0.75,1.75c0.11,0.24,0.17,0.45,0.17,0.6
		c0,0.47-0.3,0.65-1.28,0.66v0.78h4.66v-0.8c-0.83-0.05-0.98-0.23-1.37-1.11l-4.24-9.51h-0.77l-4.24,9.51
		c-0.39,0.89-0.54,1.07-1.37,1.11v0.8h3.8V13.81z M73.23,9.89l1.82-4.13l1.81,4.13H73.23z M88.65,13.79
		c-1.42-0.06-1.54-0.17-1.54-0.95V9.6l3.15-4.48c0.57-0.81,0.75-1.01,1.6-1.04v-0.8h-3.87v0.78c0.99,0.03,1.24,0.2,1.24,0.56
		c0,0.23-0.11,0.48-0.35,0.81l-2.18,3.13l-2.25-3.24c-0.23-0.3-0.32-0.51-0.32-0.71c0-0.36,0.26-0.54,1.28-0.56V3.29h-5.03v0.8
		c0.75,0.03,0.95,0.23,1.51,1.03l3.24,4.6v3.14c0,0.78-0.12,0.89-1.54,0.95v0.8h5.06V13.79z M92.39,9.15c0,3.38,2.29,5.67,6.06,5.67
		c3.86,0,6.48-2.53,6.48-6.09c0-3.38-2.29-5.67-6.06-5.67C95.01,3.06,92.39,5.59,92.39,9.15L92.39,9.15z M94.5,8.62
		c0-3.02,1.51-4.61,4.04-4.61c2.61,0,4.28,1.93,4.28,5.24c0,3.02-1.51,4.61-4.04,4.61C96.17,13.87,94.5,11.94,94.5,8.62L94.5,8.62z
		 M119.79,6.59h0.69l0.54-2.79c-0.9-0.45-2.4-0.74-3.84-0.74c-4.07,0-6.83,2.61-6.83,6.09c0,3.32,2.43,5.67,6.33,5.67
		c1.94,0,3.51-0.62,4.63-1.63l-0.5-0.62c-1.01,0.75-2.26,1.16-3.51,1.16c-2.77,0-4.84-1.9-4.84-5.14c0-2.91,1.66-4.57,4.36-4.57
		c2.13,0,2.97,0.63,2.97,2.22V6.59z M132.43,11.34h-0.65l-0.24,0.51c-0.69,1.48-1.27,1.82-2.55,1.82h-2.11c-0.71,0-0.8-0.3-0.8-1.31
		V5.07c0-0.8,0.13-0.95,1.76-0.98v-0.8h-5.22v0.8c1.36,0.06,1.46,0.17,1.46,0.95v7.16c0,1.31-0.09,1.42-1.34,1.66v0.74h9.04
		L132.43,11.34z M133.41,4.09c1.42,0.06,1.54,0.17,1.54,0.95v7.81c0,0.78-0.12,0.89-1.54,0.95v0.8h5.06v-0.8
		c-1.42-0.06-1.54-0.17-1.54-0.95V5.03c0-0.78,0.12-0.89,1.54-0.95v-0.8h-5.06V4.09z M151.78,5.88c0-1.51,0.27-1.76,1.54-1.79v-0.8
		h-4.08v0.8c1.27,0.03,1.54,0.29,1.54,1.79v5.71l-7.31-8.31h-3.25v0.74c1.33,0.21,1.61,0.35,1.61,1.52V12
		c0,1.51-0.27,1.76-1.54,1.79v0.8h4.08v-0.8c-1.27-0.03-1.54-0.29-1.54-1.79V5.58l8.14,9.16h0.81V5.88z M154.98,4.09
		c1.42,0.06,1.54,0.17,1.54,0.95v7.81c0,0.78-0.12,0.89-1.54,0.95v0.8h5.06v-0.8c-1.42-0.06-1.54-0.17-1.54-0.95V5.03
		c0-0.78,0.12-0.89,1.54-0.95v-0.8h-5.06V4.09z M171.21,6.59h0.69l0.54-2.79c-0.9-0.45-2.4-0.74-3.84-0.74
		c-4.07,0-6.83,2.61-6.83,6.09c0,3.32,2.43,5.67,6.33,5.67c1.94,0,3.51-0.62,4.63-1.63l-0.5-0.62c-1.01,0.75-2.26,1.16-3.51,1.16
		c-2.77,0-4.84-1.9-4.84-5.14c0-2.91,1.66-4.57,4.36-4.57c2.13,0,2.97,0.63,2.97,2.22V6.59L171.21,6.59z"/>
	<path id="Fill-11" class="st0" d="M62.86,23.81h0.69l0.54-2.79c-0.9-0.45-2.4-0.74-3.84-0.74c-4.07,0-6.83,2.61-6.83,6.09
		c0,3.32,2.43,5.67,6.28,5.67c1.94,0,3.41-0.62,4.52-1.63l-0.5-0.62c-0.99,0.75-2.15,1.16-3.41,1.16c-2.73,0-4.79-1.9-4.79-5.14
		c0-2.91,1.66-4.57,4.36-4.57c2.13,0,2.97,0.63,2.97,2.22V23.81z M68.49,31.03c-1.1-0.03-1.42-0.23-1.42-0.77
		c0-0.17,0.07-0.42,0.2-0.69l0.69-1.55h4.42l0.75,1.75c0.11,0.24,0.17,0.45,0.17,0.6c0,0.47-0.3,0.65-1.28,0.66v0.78h4.66v-0.8
		c-0.83-0.05-0.98-0.23-1.37-1.12l-4.24-9.51h-0.77l-4.24,9.51c-0.39,0.89-0.54,1.07-1.37,1.12v0.8h3.8V31.03z M68.35,27.11
		l1.82-4.13l1.81,4.13H68.35z M82.36,31.02c-1.36-0.06-1.46-0.17-1.46-0.95v-7.6c0-0.81,0.07-1.06,0.63-1.06h1.08
		c1.57,0,2.44,0.71,2.44,2.17c0,1.48-1.01,2.28-2.58,2.28h-0.69l-0.12,0.44l4.07,5.52h2.58v-0.8c-0.69-0.06-0.89-0.24-1.3-0.77
		l-2.94-3.87c1.88-0.51,3.03-1.54,3.03-3.09c0-2.02-1.45-2.77-3.59-2.77h-5.95v0.74c1.25,0.24,1.34,0.35,1.34,1.66v7.16
		c0,0.78-0.11,0.89-1.46,0.95v0.8h4.91V31.02z M98.72,28.79h-0.65l-0.18,0.39c-0.69,1.49-1.31,1.73-2.56,1.73h-2.16
		c-0.71,0-0.8-0.3-0.8-1.31v-3.29h2.14c0.89,0,1.13,0.24,1.28,1.31h0.65V24.1h-0.65c-0.15,1.07-0.39,1.31-1.28,1.31h-2.14v-2.68
		c0-1.01,0.09-1.31,0.8-1.31h2.4c1.13,0,1.42,0.29,1.55,1.13l0.06,0.36h0.63l0.17-2.4h-9v0.77c1.3,0.15,1.4,0.26,1.4,1.31v6.83
		c0,1.31-0.09,1.42-1.34,1.66v0.74h9.09L98.72,28.79z M115.04,23.1c0-1.51,0.27-1.76,1.54-1.79v-0.8h-4.08v0.8
		c1.27,0.03,1.54,0.29,1.54,1.79v5.71l-7.31-8.3h-3.26v0.74c1.33,0.21,1.61,0.35,1.61,1.52v6.45c0,1.51-0.27,1.76-1.54,1.79v0.8
		h4.08v-0.8c-1.27-0.03-1.54-0.29-1.54-1.79V22.8l8.14,9.16h0.81V23.1z M127.96,28.79h-0.65l-0.18,0.39
		c-0.69,1.49-1.31,1.73-2.56,1.73h-2.15c-0.71,0-0.8-0.3-0.8-1.31v-3.29h2.14c0.89,0,1.13,0.24,1.28,1.31h0.65V24.1h-0.65
		c-0.15,1.07-0.39,1.31-1.28,1.31h-2.14v-2.68c0-1.01,0.09-1.31,0.8-1.31h2.4c1.13,0,1.42,0.29,1.55,1.13l0.06,0.36h0.63l0.17-2.4
		h-9v0.77c1.3,0.15,1.4,0.26,1.4,1.31v6.83c0,1.31-0.09,1.42-1.34,1.66v0.74h9.09L127.96,28.79z M132.51,21.43v8.56
		c0,0.84-0.14,0.99-1.61,1.02v0.8h5.21v-0.8c-1.48-0.03-1.61-0.18-1.61-1.02v-8.56h1.39c1.19,0,1.63,0.32,1.99,1.67l0.14,0.51h0.65
		l0.09-3.1h-10.49l0.09,3.1H129l0.14-0.51c0.36-1.36,0.8-1.67,1.99-1.67H132.51z M150.88,31.95h0.96l2.5-8.71
		c0.47-1.64,0.68-1.84,1.72-1.93v-0.8h-3.96v0.78c1.31,0.03,1.66,0.3,1.24,1.81l-1.61,5.71l-3.24-8.18h-0.81l-3.26,8.21l-1.75-6.28
		c-0.27-0.98,0.06-1.25,1.24-1.27v-0.78h-4.55v0.8c0.77,0.09,0.95,0.23,1.24,1.25l2.68,9.39h0.95l3.33-8.3L150.88,31.95z
		 M156.77,26.38c0,3.38,2.29,5.67,6.06,5.67c3.86,0,6.48-2.53,6.48-6.09c0-3.38-2.29-5.67-6.06-5.67
		C159.4,20.29,156.77,22.82,156.77,26.38L156.77,26.38z M158.88,25.85c0-3.01,1.51-4.61,4.04-4.61c2.61,0,4.28,1.93,4.28,5.24
		c0,3.01-1.51,4.61-4.04,4.61C160.56,31.09,158.88,29.16,158.88,25.85L158.88,25.85z M175.96,31.02c-1.36-0.06-1.46-0.17-1.46-0.95
		v-7.6c0-0.81,0.08-1.06,0.63-1.06h1.08c1.57,0,2.44,0.71,2.44,2.17c0,1.48-1.01,2.28-2.58,2.28h-0.69l-0.12,0.44l4.07,5.52h2.58
		v-0.8c-0.69-0.06-0.89-0.24-1.29-0.77l-2.94-3.87c1.88-0.51,3.03-1.54,3.03-3.09c0-2.02-1.45-2.77-3.59-2.77h-5.95v0.74
		c1.25,0.24,1.34,0.35,1.34,1.66v7.16c0,0.78-0.11,0.89-1.46,0.95v0.8h4.91V31.02z M187.51,31.02c-1.36-0.06-1.46-0.17-1.46-0.95
		v-2.76l1.19-1.1l2.47,3.56c0.21,0.32,0.32,0.51,0.32,0.71c0,0.36-0.26,0.54-1.13,0.56v0.78h4.96v-0.8
		c-0.84-0.06-1.03-0.23-1.58-1.02l-3.6-5.11l2.68-2.47c0.94-0.86,1.33-1.07,2.17-1.1v-0.8h-4.2v0.78c0.78,0.03,1.03,0.12,1.03,0.44
		c0,0.27-0.23,0.53-0.68,0.95l-3.62,3.39v-3.81c0-0.78,0.11-0.89,1.46-0.95v-0.8h-4.92v0.8c1.36,0.06,1.46,0.16,1.46,0.95v7.81
		c0,0.78-0.11,0.89-1.46,0.95v0.8h4.92V31.02L187.51,31.02z"/>
</g>
</svg>
