<svg id="Layer_1" data-name="Layer 1" xmlns="http://www.w3.org/2000/svg" viewBox="0 0 253.76 65.56"><defs><style>.cls-1,.cls-2,.cls-3{fill:#003f87;}.cls-2{stroke:#004087;stroke-miterlimit:10;stroke-width:0.74px;}.cls-3{fill-rule:evenodd;}.cls-4{fill:#003f88;}</style></defs><path class="cls-1" d="M96.53,171.93h4.89v.51H95.69v-.18l4.94-7.47H96.08v-.52h5.42v.15Z" transform="translate(-19.01 -111.14)"/><path class="cls-1" d="M111.29,172.44v-3.92h-4.68v3.92H106v-8.17h.57V168h4.68v-3.74h.55v8.17Z" transform="translate(-19.01 -111.14)"/><path class="cls-1" d="M116.27,172.44v-8.17h3.82v.52h-3.25v3.27h3v.52h-3v3.35h3.44v.51Z" transform="translate(-19.01 -111.14)"/><path class="cls-1" d="M127.1,169.62c0,2-.68,3-2,3a2.57,2.57,0,0,1-.62-.08V172a2.2,2.2,0,0,0,.63.11,1.22,1.22,0,0,0,1.14-.59,3.85,3.85,0,0,0,.35-1.86v-5.34h.55Z" transform="translate(-19.01 -111.14)"/><path class="cls-1" d="M131.5,172.44v-8.17h.56v8.17Z" transform="translate(-19.01 -111.14)"/><path class="cls-1" d="M142.28,172.44l-.93-2.54H137.8l-.93,2.54h-.62l3.08-8.17h.53l3,8.17Zm-2.51-6.84c0-.11-.07-.23-.1-.34s0-.19-.08-.28h0a5,5,0,0,1-.19.61L138,169.38h3.15Z" transform="translate(-19.01 -111.14)"/><path class="cls-1" d="M153.11,172.44l-4.87-6.61c-.09-.13-.18-.26-.26-.4l-.07-.11h0a3.53,3.53,0,0,1,0,.36v6.76h-.57v-8.17h.44l4.83,6.54c.1.15.22.32.34.53h0q0-.41,0-.69v-6.38h.57v8.17Z" transform="translate(-19.01 -111.14)"/><path class="cls-1" d="M164,171.87a5.31,5.31,0,0,1-2.61.71,3.5,3.5,0,0,1-2.7-1.13,4.25,4.25,0,0,1-1-3,4.48,4.48,0,0,1,1.11-3.1,3.78,3.78,0,0,1,3-1.24,5.22,5.22,0,0,1,2.09.43v.62a4.93,4.93,0,0,0-2.17-.54,3.16,3.16,0,0,0-2.48,1.06,4.43,4.43,0,0,0-.06,5.38,3,3,0,0,0,2.38,1,3.79,3.79,0,0,0,1.93-.48v-2.69h-1.92v-.51H164Z" transform="translate(-19.01 -111.14)"/><path class="cls-1" d="M180.76,169.17c0,2.28-1,3.41-2.91,3.41s-2.76-1.09-2.76-3.28v-5h.56v4.95c0,1.9.77,2.84,2.31,2.84s2.24-.92,2.24-2.76v-5h.56Z" transform="translate(-19.01 -111.14)"/><path class="cls-1" d="M190.86,172.44,186,165.83a2.48,2.48,0,0,1-.26-.4l-.08-.11h0c0,.1,0,.22,0,.36v6.76h-.56v-8.17h.43l4.83,6.54c.11.15.22.32.35.53h0q0-.41,0-.69v-6.38h.56v8.17Z" transform="translate(-19.01 -111.14)"/><path class="cls-1" d="M195.65,172.44v-8.17h.56v8.17Z" transform="translate(-19.01 -111.14)"/><path class="cls-1" d="M203.94,172.44h-.43l-3-8.17h.63l2.37,6.58a5.26,5.26,0,0,1,.21.77h0a7.85,7.85,0,0,1,.23-.78l2.52-6.57h.6Z" transform="translate(-19.01 -111.14)"/><path class="cls-1" d="M211.43,172.44v-8.17h3.82v.52H212v3.27h3v.52h-3v3.35h3.44v.51Z" transform="translate(-19.01 -111.14)"/><path class="cls-1" d="M224,172.44l-1.09-2.39a2.48,2.48,0,0,0-.67-1,1.33,1.33,0,0,0-.84-.25h-1v3.64h-.56v-8.17h2.27a2.37,2.37,0,0,1,1.7.58,2,2,0,0,1,.62,1.54,2.2,2.2,0,0,1-.51,1.48,2.38,2.38,0,0,1-1.42.76v0a2.19,2.19,0,0,1,.95,1.17l1.21,2.61Zm-3.62-7.65v3.49h1.41a2.16,2.16,0,0,0,1.49-.49,1.71,1.71,0,0,0,.55-1.34,1.55,1.55,0,0,0-.5-1.22,2,2,0,0,0-1.42-.44Z" transform="translate(-19.01 -111.14)"/><path class="cls-1" d="M229.09,172.15v-.65a3.18,3.18,0,0,0,1.77.56,2.33,2.33,0,0,0,1.46-.39,1.35,1.35,0,0,0,.49-1.11,1.45,1.45,0,0,0-.33-1,6.45,6.45,0,0,0-1.44-1,5.2,5.2,0,0,1-1.58-1.21,2,2,0,0,1,.34-2.6,2.61,2.61,0,0,1,1.8-.6,4.4,4.4,0,0,1,1.46.25V165a3.63,3.63,0,0,0-1.53-.33,1.94,1.94,0,0,0-1.32.42,1.36,1.36,0,0,0-.49,1.08,1.43,1.43,0,0,0,.33,1,6.18,6.18,0,0,0,1.44,1A5.25,5.25,0,0,1,233,169.3a1.87,1.87,0,0,1,.37,1.16,2,2,0,0,1-.65,1.53,2.66,2.66,0,0,1-1.84.59,4.06,4.06,0,0,1-1-.13A3.29,3.29,0,0,1,229.09,172.15Z" transform="translate(-19.01 -111.14)"/><path class="cls-1" d="M237.71,172.44v-8.17h.57v8.17Z" transform="translate(-19.01 -111.14)"/><path class="cls-1" d="M245.39,164.79v7.65h-.56v-7.65h-2.36v-.52h5.28v.52Z" transform="translate(-19.01 -111.14)"/><path class="cls-1" d="M255,169.33v3.11h-.56v-3.1l-2.5-5.07h.63l1.91,3.93c.06.14.15.34.25.61h0a5.08,5.08,0,0,1,.27-.59l2-3.95h.61Z" transform="translate(-19.01 -111.14)"/><line class="cls-2" x1="76.3" y1="32.09" x2="253.76" y2="32.09"/><path class="cls-3" d="M162.14,136.16c-1-.21-.4-.52-.56-1.38s-.8-1.45-.78-2c0-1.47,1.94-1.38,3.08-.91a2.08,2.08,0,0,1,.65.69c.52.76,1.13,1.85.32,2.68a3.14,3.14,0,0,1-2.71.91" transform="translate(-19.01 -111.14)"/><path class="cls-3" d="M150.81,134.63l-.1,0c0-.11,0-.22,0-.31a32.31,32.31,0,0,0,3-2,4.24,4.24,0,0,0,1.72-2.34c-1.94.63-3.78,2-5.79,2.2a12.22,12.22,0,0,1-2.22-1,.49.49,0,0,1,0-.11c-1.07-.7-1.16-1.59,0-2,2,.45,5.12-1,7-1.72a7.5,7.5,0,0,0,2-1c.45-2.67.16-5.35.32-7.91.65-1.84,1.8-.59,2.94.34.08.15.34.32.57.67h.11c.49.77.62,1.12-.13,1.84a9.82,9.82,0,0,0-.69,4.1c1.39-.2,2.23-1.42,3.84-1.44a1.46,1.46,0,0,1-.37,2c-1.17.56-2.45,1.07-3.78,1.67a9.85,9.85,0,0,1-1.79,4.1,9.34,9.34,0,0,1-1,.9,11.24,11.24,0,0,1-2.58,1.37,12.61,12.61,0,0,1-3.11.67" transform="translate(-19.01 -111.14)"/><path class="cls-3" d="M125.85,139.19a7.24,7.24,0,0,1-2.35-2.32c.09-.26.18-.52.28-.76a60.87,60.87,0,0,0,6.55-5.29c.63-1,1.44-2,2.1-2.9l.12,0s0-.07,0-.1c.58-.45.83-.57,1.32.17,0,.62-1.08,1.28-1.43,1.87-.43,1.1-.92,2.23-1.49,3.36a8.11,8.11,0,0,0-.9,1.38,8.24,8.24,0,0,0-1.76,2.45c-.72.42-1,1.68-1.88,2.12a4.63,4.63,0,0,0-.55.06" transform="translate(-19.01 -111.14)"/><path class="cls-3" d="M139.22,131.26c-1.4-.06-1.79-1-2.56-1.77,0-.37.2-.59.23-.84a1.33,1.33,0,0,0,.57-.21,12.75,12.75,0,0,1,1.43-.09c.8-.18,2.86-1.6,3.55-1,.1,1.69-1.74,3.41-3.22,3.9" transform="translate(-19.01 -111.14)"/><path class="cls-3" d="M128.49,128.58c-.53-.47-.63-2.62-.68-3.3.4-1.21,1.61-1.26,2.63-.48.8,1.06,1.35,1.51.5,2.74a3.63,3.63,0,0,1-2.45,1" transform="translate(-19.01 -111.14)"/><path class="cls-3" d="M138.84,127.54c-.15-.66.76-2.06.5-2.4-.34,0-.69.18-1,.2-.84-.41-1.76-1.43-1.43-2.22.62-.71.38-.53,1.36-.59l2.78-1.21c1.57-.29,2.29.57,2.38,2.1A7.2,7.2,0,0,1,141.8,126c-.83.45-1.58,1-2.33,1.44a5.86,5.86,0,0,0-.63.12" transform="translate(-19.01 -111.14)"/><path class="cls-3" d="M130.27,123.1c-.33-.29-.19-.45,0-.74,0-.65-.43-1.17-.47-1.79.21-1.14,0-1.55.94-2.1.73.33,3.28,1.63,2.68,3.06a5.09,5.09,0,0,1-3.13,1.57" transform="translate(-19.01 -111.14)"/><path class="cls-3" d="M97.21,140.25c-1.52-.58-2.84-3.59-1-4.33a.87.87,0,0,1,.5-.61.45.45,0,0,1,0-.11c1.47-1.43,2.44-3.42,3.68-5,.31-.6.49-1.17,1.17-1.35.34.31.22,1,.12,1.51.16.14.68,0,1-.06,1-.88,2.36-1.66,3.38-2.59,0-.46.1-.91.17-1.35-.72.17-3.06.72-2.5-.6a5.33,5.33,0,0,0,2.69-2c.23-1,.1-2,.58-2.72,1-.51,2.16.74,2.35,1.8.4.7,1.64-.17.1,2-.33.24-.31.71-.25,1.2l.34,0a29.75,29.75,0,0,1,2.78-1.84,11.33,11.33,0,0,1,1.15-3.71c1-.66,2.26,0,3.19.8a3.24,3.24,0,0,0,1.81-.82,1.73,1.73,0,0,1,.74-.08,2.5,2.5,0,0,1,.3,1.2c-.46,1.41-4.5,1.87-3.73,3.51.71,0,.95-.81,1.21-1.33.79-.41,2.5.09,3.33.7.92,1.12.2,1.5-.82,2.21l-.29.44c-.07,2.26-.07,2.26,0,5.32a5.41,5.41,0,0,1-1.23,1.89v.1h-.11c-.39.68-1.34,1.35-1.92.71,0-2.51.14-5.11,0-7.5l-.12,0a8.45,8.45,0,0,1-2.46,4.27,2,2,0,0,1-2-1.32c.09-.25.28-.3.48-.48.54-1.11.39-3.16.38-4.25-.78.11-2.1,1.88-2.69,2.54-.4.32-.8.63-1.18.95-.28.93-.5,1.85-.74,2.84l-.64,1.38h-.11c-.36.62-1.55,2.24-2.26,1.22,0-.14,0-.27,0-.4a6.33,6.33,0,0,0,1.06-3.09c-1,.32-1.6,1.19-2.56,1.25a6,6,0,0,1-1.48-.47.34.34,0,0,0,0-.11c-.23-.15-.47-.36-.61-.3-.18.54-.35,1.1-.51,1.66a38.67,38.67,0,0,0-2.37,6.39,1.41,1.41,0,0,1-.87.5" transform="translate(-19.01 -111.14)"/><path class="cls-3" d="M99.11,128.31c-.3-.43.06-1,.08-1.5-.47-1.42-.85-2.47.06-3.67a3.15,3.15,0,0,1,.43,0,12.07,12.07,0,0,1,2.16,2.27c.68,1.69-1.51,2.46-2.73,3" transform="translate(-19.01 -111.14)"/><path class="cls-3" d="M100.47,122.82c-.36-.12-.35-.21-.42-.33.17-.35.33-.55.26-.9-.87-1.33-.82-3.36.68-4,.44,0,.45.42.65,1,1,1,2.79,2.13,1.07,3.42-.73.32-1.52.56-2.24.82" transform="translate(-19.01 -111.14)"/><path class="cls-3" d="M173,128c-1.36-.42-1.1-2.65-.87-3.56,1-.63,2.29.69,2.37,1.86-.26,1.28-.24,1.47-1.5,1.7" transform="translate(-19.01 -111.14)"/><path class="cls-3" d="M180.3,138.32l-.11-.07a12.42,12.42,0,0,1-5-.61.59.59,0,0,1-.08-.35c.91-.53,2.21-.38,2.91-1.35a8,8,0,0,0,.13-2c-1.73.1-2.65,1.32-4,1.81-1.16.08-3.24-1-3.59-1.91,0-1.51.32-.83,1.93-.93a27.18,27.18,0,0,0,5.68-2.25,1.92,1.92,0,0,1,.61-.39c.41-1.24.7-1.47,2-1.72.51-.26.51-.26,2-1.16,0-.14.08-.29.13-.43-2.25.26-4.07,2.09-5.87,3.29a3,3,0,0,1-2.18-.18c-.39.06-2.64.45-1.55-.44.67-.26,1.17-.74,1.88-1,1.69-1.14,3.65-2.11,5.47-3.16a.84.84,0,0,0-.18-.51,2.28,2.28,0,0,1,.19-.87c-.34.12-.44.09-.5.35-1.08.48-1.54,1.46-2.45.42a2.07,2.07,0,0,1-1.87,1.67c-1-.5-1-2.11-1.16-2.86-.07-.09-.2-.72-.47-1.45-.43-.89-1.24-1.88-.7-2.69.68-.42,1-.58,1.54.35a8.13,8.13,0,0,1,1.64,1.56h.11c.3.82,1.05,1.9,1,3,.51-.3,1.23-.88.86-1.53-.84-.45-.36-1.23.22-1.52a3.86,3.86,0,0,0,.95,0,.37.37,0,0,0-.13-.33c-.69-.24-.56-.41-.37-1a1.3,1.3,0,0,1-.81-1.76c2.36-.59,2.36-.59,3.46-.94.73-.92,1.53-3.42,3-3a3.23,3.23,0,0,1,.66,2.29,4.41,4.41,0,0,0-.5,1.11c.14,0,.28,0,.43,0,1-.48,1.44-1.07,2,.4,1,.51,1.3.38.94,1.77-.69,1.39-1.44,2.87-2.21,4.27a.62.62,0,0,0,0,.19,5,5,0,0,1,.53.12,12.45,12.45,0,0,1,.1,2.17c-.59.87-1.34.87-2.28,1-1.2.6-2.28,1.1-3.41,1.77a1.65,1.65,0,0,0,.07.74c.57,0,1.16,0,1.75,0,.64.42.59,1.59.19,2.28a4.13,4.13,0,0,0-1.56.45c-.06.32-.12.64-.18,1,0,1.25.7,4.26-1.16,4.55m3.69-15.4a2.54,2.54,0,0,0,.94-2,2.86,2.86,0,0,0-1.84-.46,5.46,5.46,0,0,1-.65,1.31l.18.09-.17.07,0,.11c.26,0,.4-.17.52-.35.91-.15.93.18.86,1.15l.12.06" transform="translate(-19.01 -111.14)"/><path class="cls-1" d="M51.79,111.14A32.78,32.78,0,1,1,19,143.92a32.84,32.84,0,0,1,32.78-32.78m0,1.3a31.48,31.48,0,1,0,31.47,31.48,31.53,31.53,0,0,0-31.47-31.48" transform="translate(-19.01 -111.14)"/><path class="cls-1" d="M40.27,157.89a18.23,18.23,0,0,1-4.87-6.27,17.92,17.92,0,0,1-1.73-7.7,18.12,18.12,0,1,1,34.51,7.7,18.38,18.38,0,0,1-4.88,6.27l-.42-.5a17.76,17.76,0,0,0,4.71-6,17.47,17.47,0,1,0-31.6,0,17.61,17.61,0,0,0,4.7,6Z" transform="translate(-19.01 -111.14)"/><polygon class="cls-3" points="4.71 43.73 3.47 40.41 4.15 40.17 9.81 41.03 8.95 38.71 9.62 38.47 10.75 41.51 10.08 41.74 4.41 40.88 5.38 43.49 4.71 43.73"/><polygon class="cls-3" points="6.86 48.25 6.53 47.58 9.19 46.21 8.34 44.57 5.68 45.94 5.34 45.27 11.03 42.35 11.38 43.01 8.98 44.24 9.82 45.88 12.22 44.65 12.56 45.31 6.86 48.25"/><polygon class="cls-3" points="9.57 51.85 7.54 49.02 12.88 45.7 14.81 48.4 14.22 48.77 12.75 46.72 11.09 47.74 12.44 49.63 11.85 50 10.5 48.12 8.59 49.29 10.16 51.48 9.57 51.85"/><polygon class="cls-3" points="14.11 56.3 13.43 55.72 17.36 50.89 18.04 51.46 14.11 56.3"/><path class="cls-3" d="M36.16,169.56l.81-1.72-1-.7-1.45,1.41-.67-.51,4.61-4.55.93.56L37,170ZM37.34,167l1-2.21-.09-.07-1.66,1.69Z" transform="translate(-19.01 -111.14)"/><polygon class="cls-3" points="21.77 60.66 20.94 60.27 21.43 55.83 19.61 59.56 18.77 59.18 21.66 53.46 22.41 53.8 22.07 58.03 23.95 54.54 24.64 54.83 21.77 60.66"/><path class="cls-3" d="M45.08,173.08l-.54-.18.05-.5a1,1,0,0,1-.49.2,1.24,1.24,0,0,1-.63-.06,1.57,1.57,0,0,1-1-1,3.58,3.58,0,0,1,.12-2.28,4.71,4.71,0,0,1,1.21-2.2,2,2,0,0,1,1.83-.44c.69.22,1.14,1.06.94,2.23l-.82-.06c.14-.5.07-1.29-.42-1.45a1.09,1.09,0,0,0-1.13.31,5.09,5.09,0,0,0-.82,1.79,3.53,3.53,0,0,0-.22,1.83,1,1,0,0,0,.58.71.8.8,0,0,0,.75-.11,1.7,1.7,0,0,0,.54-.92l.12-.37-1-.32.21-.64,1.61.52Z" transform="translate(-19.01 -111.14)"/><path class="cls-3" d="M53.6,171.66a2,2,0,0,1-.46,1.36,1.59,1.59,0,0,1-1.33.45,1.66,1.66,0,0,1-1.31-.55,2.14,2.14,0,0,1-.37-1.39l.14-4.37.77,0-.14,4.36a1.26,1.26,0,0,0,.24.91.94.94,0,0,0,.69.32.91.91,0,0,0,.71-.27,1.33,1.33,0,0,0,.3-.89l.14-4.36.77,0Z" transform="translate(-19.01 -111.14)"/><polygon class="cls-3" points="38.97 61.69 38.28 61.8 36.12 57.63 36.45 62.1 35.63 62.22 35.16 55.95 36.1 55.86 37.88 58.78 37.55 55.64 38.23 55.52 38.97 61.69"/><polygon class="cls-3" points="41.31 61.03 40.51 61.28 38.84 55.35 39.64 55.1 41.31 61.03"/><polygon class="cls-3" points="43.48 53.52 44.49 60.07 43.7 60.46 40.23 54.9 40.99 54.58 43.41 58.37 42.74 53.84 43.48 53.52"/><polygon class="cls-3" points="49.92 57.23 47 58.81 43.81 53.34 46.59 51.83 46.95 52.44 44.82 53.59 45.81 55.29 47.76 54.23 48.12 54.84 46.16 55.89 47.3 57.85 49.57 56.62 49.92 57.23"/><path class="cls-3" d="M72.27,166l-.64.56-2.27-1.89-.59.54,1.53,2.08-.64.67-3.76-5.27,1.2-.86a2.07,2.07,0,0,1,1.34-.41,1.66,1.66,0,0,1,1.62,1.84,2.88,2.88,0,0,1-.15.86Zm-4-3.71c-.47-.13-.85.24-1.19.5l1.25,1.66a2.18,2.18,0,0,0,.84-.84,1.06,1.06,0,0,0-.9-1.32" transform="translate(-19.01 -111.14)"/><path class="cls-3" d="M74.29,160.93a1.8,1.8,0,0,1-.71,3.28,2.08,2.08,0,0,1-1.24-.22l.29-.66a2.26,2.26,0,0,0,.84.11,1,1,0,0,0,.42-1.85,1.17,1.17,0,0,0-.82-.16c-.75.08-1.23.65-2.07.7a1.55,1.55,0,0,1-1.7-1.39,1.82,1.82,0,0,1,.27-1.3,1.66,1.66,0,0,1,2.26-.42l-.29.69a1.16,1.16,0,0,0-1.4.21.87.87,0,0,0-.14.67.79.79,0,0,0,.92.74c.81-.09,1.36-.76,2.16-.74a2.52,2.52,0,0,1,1.21.34" transform="translate(-19.01 -111.14)"/><polygon class="cls-3" points="58.05 48.99 57.58 49.56 52.18 46.18 52.65 45.6 58.05 48.99"/><polygon class="cls-3" points="55.33 42.16 54.73 43.26 59.83 46.26 59.48 46.9 54.38 43.9 53.79 45.01 53.15 44.63 54.69 41.78 55.33 42.16"/><polygon class="cls-3" points="56.26 37.94 59.37 40.72 61.45 41.61 61.19 42.31 59.27 41.56 54.84 41.46 55.05 40.75 58.15 40.8 55.95 38.79 56.26 37.94"/><path class="cls-3" d="M32.64,164.64a2.44,2.44,0,0,1-1.54.85,1.86,1.86,0,0,1-1.82-1.83,1.55,1.55,0,0,1,.21-.75l.7.43a.79.79,0,0,0-.09.34.86.86,0,0,0,.24.66.91.91,0,0,0,.74.32,1.7,1.7,0,0,0,1-.58L35.15,161l.58.59Z" transform="translate(-19.01 -111.14)"/><path class="cls-3" d="M43.23,163.56l-2.18-1.35.2-.35.81.5,1.3-2.26-.81-.5.17-.3a2.36,2.36,0,0,0,.74.32.45.45,0,0,0,.45-.23l.47.3-1.74,3,.79.5Zm6.51-1.38a.46.46,0,0,0-.18-.47,1.41,1.41,0,0,0-.71-.28,1.5,1.5,0,0,0-.75.06.52.52,0,0,0-.37.38.41.41,0,0,0,.08.35,1.11,1.11,0,0,0,.38.29l.35.18.45.18a1.35,1.35,0,0,0,.54-.29.74.74,0,0,0,.21-.4m-.28,1.95a.47.47,0,0,0-.07-.39,1.51,1.51,0,0,0-.5-.37l-.34-.15-.49-.21a1.5,1.5,0,0,0-.58.28.76.76,0,0,0-.27.45.65.65,0,0,0,.21.63,1.34,1.34,0,0,0,.77.34,1.45,1.45,0,0,0,.85-.09.67.67,0,0,0,.42-.49m-1.35,1a3.48,3.48,0,0,1-.8-.19,2.19,2.19,0,0,1-.57-.33,1.12,1.12,0,0,1-.31-.43.84.84,0,0,1,0-.47.91.91,0,0,1,.38-.55,2,2,0,0,1,.84-.31v0a1.69,1.69,0,0,1-.58-.45.64.64,0,0,1-.12-.52,1,1,0,0,1,.66-.66,2.72,2.72,0,0,1,1.36-.11,2.62,2.62,0,0,1,1.25.46.76.76,0,0,1,.35.77.82.82,0,0,1-.34.49,1.71,1.71,0,0,1-.76.3v0a2.19,2.19,0,0,1,.71.49.73.73,0,0,1,.16.62,1.1,1.1,0,0,1-.73.76,2.9,2.9,0,0,1-1.46.13m7.55-2.39a1.73,1.73,0,0,0-.11-.65,1,1,0,0,0-.31-.39,1,1,0,0,0-.35-.17,1.6,1.6,0,0,0-.39-.05,1.2,1.2,0,0,0-.77.23.81.81,0,0,0-.29.68.86.86,0,0,0,.09.41.84.84,0,0,0,.31.27.91.91,0,0,0,.34.11,2.54,2.54,0,0,0,.41,0,2.7,2.7,0,0,0,.54-.06,2,2,0,0,0,.51-.16s0-.06,0-.1a.66.66,0,0,0,0-.15m-3-.33a1.07,1.07,0,0,1,.15-.56,1.4,1.4,0,0,1,.41-.43,1.85,1.85,0,0,1,.6-.27,2.44,2.44,0,0,1,.71-.1,2.83,2.83,0,0,1,.74.09,1.67,1.67,0,0,1,.57.27,1.43,1.43,0,0,1,.47.56,2.08,2.08,0,0,1,.17.89,2.82,2.82,0,0,1-.16.92,1.78,1.78,0,0,1-.49.73,2.22,2.22,0,0,1-.81.46,3.66,3.66,0,0,1-1.18.16h-.33l-.34,0v-.51h0a1.91,1.91,0,0,0,.31.08c.14,0,.28,0,.43,0a1.88,1.88,0,0,0,1.22-.35,1.3,1.3,0,0,0,.5-1,2.7,2.7,0,0,1-.6.21,2.53,2.53,0,0,1-.63.07,2.71,2.71,0,0,1-.59,0,1.91,1.91,0,0,1-.54-.18,1.16,1.16,0,0,1-.48-.41,1,1,0,0,1-.17-.59M61.19,159l-.14,4.05-.62.39,0-3.82-2.36,1.14-.21-.46,3-1.54Z" transform="translate(-19.01 -111.14)"/><path class="cls-3" d="M62.48,126.28c-.47-.24-.14-.32-.11-.77s-.23-.82-.15-1.09c.21-.73,1.14-.45,1.66-.08a1.13,1.13,0,0,1,.24.43c.17.44.34,1.07-.17,1.38a1.64,1.64,0,0,1-1.47.13" transform="translate(-19.01 -111.14)"/><path class="cls-3" d="M57,124.12l0,0a.53.53,0,0,1,.05-.15,18.23,18.23,0,0,0,1.75-.62,2.2,2.2,0,0,0,1.15-1c-1,.08-2.15.57-3.18.4a5.71,5.71,0,0,1-1-.79s0,0,0,0c-.45-.48-.38-.94.25-1,1,.47,2.69.12,3.74,0a4.43,4.43,0,0,0,1.13-.27A37.7,37.7,0,0,0,62,116.71c.55-.84,1-.07,1.44.54,0,.08.13.2.2.4h.06c.15.45.17.64-.29.91a5,5,0,0,0-.85,2c.72.07,1.29-.43,2.1-.25a.75.75,0,0,1-.43,1c-.66.14-1.36.24-2.1.38a5.1,5.1,0,0,1-1.4,1.83,4.56,4.56,0,0,1-.61.33,6,6,0,0,1-1.47.37,6.6,6.6,0,0,1-1.64,0" transform="translate(-19.01 -111.14)"/><path class="cls-3" d="M41,128.79a3.88,3.88,0,0,1-1.67-.72,3.23,3.23,0,0,1,0-.44,33.36,33.36,0,0,0,2.29-4c.13-.61.34-1.29.49-1.91l0,0,0,0c.21-.35.31-.46.71-.18.14.31-.3.87-.36,1.24,0,.66,0,1.34-.08,2a5.23,5.23,0,0,0-.19.89,4.77,4.77,0,0,0-.41,1.61c-.28.36-.18,1.07-.53,1.47a2.29,2.29,0,0,0-.27.14" transform="translate(-19.01 -111.14)"/><path class="cls-3" d="M46.26,122c-.73.25-1.11-.12-1.66-.38-.09-.19,0-.35-.06-.48a.71.71,0,0,0,.25-.23c.28-.15.4-.18.72-.33s1.14-1.4,1.62-1.23a2.58,2.58,0,0,1-.87,2.65" transform="translate(-19.01 -111.14)"/><path class="cls-3" d="M40.22,122.81c-.36-.13-.85-1.21-1-1.56,0-.69.57-1,1.25-.76.62.38,1,.49.81,1.3a2,2,0,0,1-1.05,1" transform="translate(-19.01 -111.14)"/><path class="cls-3" d="M45.31,120.19c-.2-.31,0-1.21-.22-1.33-.16.09-.32.23-.49.31-.52,0-1.2-.38-1.18-.85s.09-.34.57-.58l1.19-1.18c.74-.46,1.28-.17,1.64.6a3.81,3.81,0,0,1-.3,1.63c-.33.4-.62.81-.91,1.21l-.3.19" transform="translate(-19.01 -111.14)"/><path class="cls-3" d="M40,119.64c-.23-.08-.19-.19-.16-.37-.15-.33-.46-.52-.6-.83-.13-.62-.32-.79,0-1.26.45,0,2,.17,2,1A2.8,2.8,0,0,1,40,119.64" transform="translate(-19.01 -111.14)"/><path class="cls-3" d="M32,141.25c-.68.47-2.32.16-2.1-.82a.4.4,0,0,1-.11-.38l-.05,0a24.19,24.19,0,0,0-1-3c-.16-.3-.35-.54-.23-.87.22-.06.47.18.66.37.11,0,.21-.27.26-.43-.07-.68,0-1.46-.11-2.16-.18-.14-.35-.3-.51-.45-.14.34-.58,1.48-1,.87a2.75,2.75,0,0,0-.09-1.72c-.34-.36-.82-.62-1-1,.07-.57.93-.7,1.43-.48.41,0,.4-.73.86.54,0,.2.21.33.43.45l.11-.14c0-.54,0-1.12,0-1.69a5.8,5.8,0,0,1-1.22-1.55c0-.58.67-.92,1.25-1.1a1.64,1.64,0,0,0,.18-1,.84.84,0,0,1,.18-.33,1.2,1.2,0,0,1,.59.22c.46.59-.51,2.42.4,2.56.19-.3-.07-.63-.21-.89.05-.44.75-1,1.24-1.18.73-.07.69.34.69,1,0,.09.07.17.11.25.92.68.92.68,2.21,1.54a2.84,2.84,0,0,1,.44,1.06l0,0s0,0,0,.06c.17.35.18.95-.25,1-1.06-.72-2.1-1.53-3.13-2.18a.15.15,0,0,0,0,.06,4.39,4.39,0,0,1,1.08,2.25,1,1,0,0,1-1.14.48.65.65,0,0,1-.06-.34,5.76,5.76,0,0,0-1.67-1.38c-.18.36.18,1.42.29,1.86,0,.25,0,.51.05.76.32.39.64.74,1,1.13l.39.66s0,0,0,.05c.15.32.48,1.29-.14,1.29l-.17-.11a3.17,3.17,0,0,0-1-1.33c-.15.49,0,1-.21,1.42a3.06,3.06,0,0,1-.62.49l-.05,0c-.13.06-.29.09-.3.17l.54.69a20,20,0,0,0,2,2.82.71.71,0,0,1,0,.51" transform="translate(-19.01 -111.14)"/><path class="cls-3" d="M27.52,137c-.27,0-.4-.31-.61-.47-.72-.2-1.27-.35-1.51-1.08a1.74,1.74,0,0,1,.1-.19,6.79,6.79,0,0,1,1.57-.25c.9.2.59,1.34.45,2" transform="translate(-19.01 -111.14)"/><path class="cls-3" d="M25.61,134.89c-.15.11-.18.08-.25.08-.1-.17-.14-.3-.3-.37-.81,0-1.64-.62-1.49-1.44.14-.17.3-.07.61,0,.68-.14,1.69-.56,1.73.53a11.32,11.32,0,0,1-.3,1.18" transform="translate(-19.01 -111.14)"/><path class="cls-1" d="M67.18,135.92h-8c-2.32,0-3.51,2.28-4.39,4.35l-1.35-3,2.26-.83c-1.32-1.25-5.44-1.93-6-.05l-1,3.91c-.77-1.77-1.85-4.34-4.28-4.34H36.4c1.05,1.86,2.06,2.53,5.78,2.37l.48,1.28-4.08,0c1.21,2.22,1.9,2.32,5.19,2.22l.69,1.53-3.2.12c.69,1.57,1.41,2.24,4.16,2.12l.54,1.36H43.41c1,1.58,1.43,2.31,3.45,2.13l.54,1.48H45.64a2.84,2.84,0,0,0,2.74,1.95c1,.15,1.11,2,0,2.57l3.43,5.57,3.43-5.58c-1.14-.58-1-2.41,0-2.56a2.83,2.83,0,0,0,2.74-2H56.17l.54-1.48c2,.18,2.5-.54,3.46-2.12H57.61l.54-1.36c2.76.12,3.48-.55,4.17-2.12l-3.21-.12.7-1.53c3.28.09,4,0,5.18-2.22l-4.08,0,.49-1.28c3.72.15,4.72-.51,5.78-2.37" transform="translate(-19.01 -111.14)"/><path class="cls-1" d="M79.32,132.1l0-.06c.11-.29.1-.41.07-.46s-.15-.1-.35-.15a1.08,1.08,0,0,0-.19,0l-.11,0,0-.07-.13-.12-.16-.05,0,0,.2-.15a1.51,1.51,0,0,1,.48-.22v0l.08,0a1.46,1.46,0,0,0,.5-1,.54.54,0,0,0-.45-.17,3.7,3.7,0,0,0-.93.2,3.92,3.92,0,0,1-.61.18l-.08,0c-.51-.24-.53-.25-1.59-.81a.39.39,0,0,0-.17.21.56.56,0,0,0,0,.49l.1.08h0l-.25.13-.06,0h0l-.07.07a.3.3,0,0,0,.06.14l0,.12a.3.3,0,0,1-.11.23l0,.12v0h0l-.16-.12c-.2-.17-.22-.18-.37-.32l-.13,0a.34.34,0,0,0-.25.1.27.27,0,0,0,0,.26l0,.06c0,.15-.16.41-.63.42h-.25a.45.45,0,0,0-.17,0c0,.32.14.35.48.4l.45.08h.09a.39.39,0,0,1,.2.06l.25.1.09,0,0,0-.3.15a.92.92,0,0,0-.32.23.7.7,0,0,1-.13.26l0,.06-.12,0-.69-.18-.35-.09c-.63-.16-1.4-.37-2.13-.5a3.72,3.72,0,0,0-.51-.12l-.35,0,0,.1c.09.06.2.15.38.26l0,.06a1.4,1.4,0,0,0,.64.74c.25.05.52.08.83.12a5.06,5.06,0,0,1,2.59.77l.2.1h0l-.27.14a.78.78,0,0,0-.22.15l-.08,0a11.6,11.6,0,0,1-1.2-.3.82.82,0,0,0-1.16-.06l0,0h0l-.09,0a1.1,1.1,0,0,0-.36-.08l-.77-.25a9.28,9.28,0,0,1-2.19-.94,3.45,3.45,0,0,1-.43-.43s-.06-.07-.08-.07h0l-.06-.08a1,1,0,0,0-.26.23,2.38,2.38,0,0,0,.6,1.77,4.81,4.81,0,0,0,.79.21,2.68,2.68,0,0,1,1.39.55l.12,0h0l-.12.15a5.32,5.32,0,0,1-.52.55l-.09.07a.77.77,0,0,0-.16.15h-.09l-.2,0a1.76,1.76,0,0,1-.88-.31l-.29-.12-.05.09a6.28,6.28,0,0,0,1.48,1.7l.06.09a.46.46,0,0,0,.23.06h0c.46,0,1-.64,1.32-1.11l.24-.28.09-.07c.35-.26.37-.28.36-.28l.09,0a4,4,0,0,1,.76.35.78.78,0,0,0,.52-.69l-.11-.1c-.16-.16-.32-.31-.5-.46h-.08l0-.14a1,1,0,0,1,.27-.36l0-.06.11,0c.49.11.94.25,1.48.41l.47.16.12.08a1.22,1.22,0,0,0,.77.36l.18,0a2.94,2.94,0,0,0,.57-.74h0c-.09-.14-.13-.18-.15-.18l.09-.1a.67.67,0,0,1,.14-.11c.8-.25,1.67-.56,2.31-.79.38-.24.42-.27.29-.63l-.1-.23m-3.12.48.13-.12c.18-.16.26-.24.27-.32s0-.08-.12-.13h-.13a.36.36,0,0,1-.28-.13l-.06,0v-.06l0-.17h0l.17-.05a5,5,0,0,0,.69-.25l0-.08.11.09a1.67,1.67,0,0,1,.6,1l-.06.07a1.45,1.45,0,0,1-1.14.45l-.11,0-.06-.17-.08,0Z" transform="translate(-19.01 -111.14)"/><path class="cls-1" d="M72.79,131.17a.82.82,0,0,1-.49-.16c-.1-.38.19-.79.39-1.09a2.23,2.23,0,0,0,.17-.25l0-.09.07-.13.24-.49c0-.1.06-.19.08-.27.12-.5.22-.81.47-.9s.29.06.33.13,0,.18,0,.36l0,.08a.71.71,0,0,1,0,.23,2.86,2.86,0,0,1,0,.87v.11a2.63,2.63,0,0,1-.08.3,2.18,2.18,0,0,1-.5,1l-.11.1-.07,0a1,1,0,0,1-.55.18Z" transform="translate(-19.01 -111.14)"/><path class="cls-1" d="M72.79,131.16h0a1.12,1.12,0,0,0,.54-.18l.07,0,.11-.1a2.21,2.21,0,0,0,.49-1,2,2,0,0,0,.08-.29l0-.11a3.1,3.1,0,0,0,0-.87,2.4,2.4,0,0,1,0-.24h0l0-.07c0-.18.06-.28,0-.35s-.13-.09-.32-.12-.33.39-.45.85c0,.1,0,.19-.08.3s-.16.34-.24.5l-.07.13,0,.09-.16.25c-.21.3-.49.7-.4,1.07a.84.84,0,0,0,.48.16" transform="translate(-19.01 -111.14)"/><path class="cls-1" d="M71,130.72a.87.87,0,0,1-.4-.18c-.26-.6.7-1.29.81-1.37a.38.38,0,0,1,.3.28,1.08,1.08,0,0,1-.18,1c-.29.21-.41.29-.52.29Z" transform="translate(-19.01 -111.14)"/><path class="cls-1" d="M71,130.71h0a1.44,1.44,0,0,0,.51-.28,1.11,1.11,0,0,0,.17-1,.37.37,0,0,0-.27-.26c-.11.07-1.06.75-.8,1.34a.79.79,0,0,0,.38.18" transform="translate(-19.01 -111.14)"/><path class="cls-4" d="M206.49,120.11h15.64v1.34h-14.2v13h14.4v1.33H206.49Zm2.39,7.56h5.55a12.59,12.59,0,0,0,.3-2.78h-2.9a18.58,18.58,0,0,1-1.72,2.5c-.34-.29-.72-.6-1.14-.91a16,16,0,0,0,3-4.86l1.31.48c-.23.54-.48,1.05-.73,1.53h8.59v1.26h-5a16.39,16.39,0,0,1-.25,2.78h6v1.27h-6.33c-.07.23-.14.45-.21.65q2.88,1.35,6.08,3.2l-.86,1.33c-1.74-1.11-3.68-2.26-5.8-3.44a10.44,10.44,0,0,1-5.17,3.62,11.83,11.83,0,0,0-.95-1.2q4.55-1.69,5.37-4.16h-5.17Z" transform="translate(-19.01 -111.14)"/><path class="cls-4" d="M226.86,130.32h8.22v-1l3.36-1.9h-8.26v-1.28H240.5v1.48l-4,2.3v.38h7.56v1.29h-7.56v2.65a1.84,1.84,0,0,1-2.09,2.08c-.78,0-1.69,0-2.73,0,0-.4-.11-.9-.21-1.49.94.09,1.83.14,2.69.16.61,0,.91-.32.91-1v-2.39h-8.22Zm.59-7.17h16v3.55H242.1v-2.26H228.84v2.26h-1.39Zm1.39-2.86,1-.76c.71.79,1.42,1.64,2.11,2.55l-1.2.84A26.06,26.06,0,0,0,228.84,120.29Zm4.75-.53,1.14-.67c.72.94,1.38,1.89,2,2.87l-1.27.72A31.55,31.55,0,0,0,233.59,119.76Zm5,2.37a27.07,27.07,0,0,0,2.22-2.72l1.26.93c-.76.87-1.57,1.78-2.44,2.72Z" transform="translate(-19.01 -111.14)"/><path class="cls-4" d="M254.15,129.57c.34,2.25-.2,3.51-1.61,3.8a6,6,0,0,1-1.71,0,8,8,0,0,0-.37-1.42v4.46h-1.28V120.22h4.9v1.23q-.72,2.76-1.42,4.78A7.22,7.22,0,0,1,254.15,129.57ZM252,132.06c.79-.15,1.05-1,.78-2.51a7.49,7.49,0,0,0-1.53-3.09q1-3.39,1.4-5h-2.23v10.47A4.09,4.09,0,0,0,252,132.06Zm2.48-3.83h10.72v1.22h-3.51V134c0,.55.2.82.6.82h1.17c.41,0,.66-.27.74-.82s.13-1.33.18-2.34c.38.16.85.34,1.39.54-.1.91-.2,1.68-.3,2.34a1.59,1.59,0,0,1-1.8,1.51h-1.82c-1,0-1.48-.56-1.48-1.69v-4.86h-1.92a8,8,0,0,1-.87,4.18,8.63,8.63,0,0,1-3.68,2.86c-.46-.59-.78-1-1-1.19a7.52,7.52,0,0,0,3.38-2.32,6.12,6.12,0,0,0,.83-3.53h-2.66Zm.07-6.82h4.84c-.31-.54-.66-1.1-1.06-1.7l1.13-.65c.48.69.89,1.32,1.24,1.9l-.79.45h5.1v2.82h-1.34v-1.6h-7.78v1.6h-1.34Zm.74,3.41h9V126h-9Z" transform="translate(-19.01 -111.14)"/><path class="cls-4" d="M95.94,155.75a3.81,3.81,0,0,0,2.49.9,2.12,2.12,0,0,0,1.19-.27.8.8,0,0,0,.4-.7,1,1,0,0,0-.32-.7,6.19,6.19,0,0,0-1.67-.89c-1.41-.6-2.12-1.47-2.12-2.62a2.3,2.3,0,0,1,1-2,4.28,4.28,0,0,1,2.55-.7,6.25,6.25,0,0,1,2.23.35V151a3.71,3.71,0,0,0-2.13-.62,2.25,2.25,0,0,0-1.15.26.8.8,0,0,0-.42.7.88.88,0,0,0,.29.65,5.16,5.16,0,0,0,1.45.8,4.8,4.8,0,0,1,1.86,1.23,2.44,2.44,0,0,1,.5,1.53,2.33,2.33,0,0,1-.92,2,4.35,4.35,0,0,1-2.63.69,5.78,5.78,0,0,1-2.56-.5Z" transform="translate(-19.01 -111.14)"/><path class="cls-4" d="M112.45,157.7a5.79,5.79,0,0,1-2.58.49,4.37,4.37,0,0,1-3.26-1.23,4.48,4.48,0,0,1-1.2-3.27,4.84,4.84,0,0,1,1.34-3.52,4.69,4.69,0,0,1,3.48-1.37,6.23,6.23,0,0,1,2.22.35V151a4,4,0,0,0-2.08-.54,2.77,2.77,0,0,0-2.13.85,3.1,3.1,0,0,0-.8,2.22,3,3,0,0,0,.76,2.15,2.64,2.64,0,0,0,2,.81,4.27,4.27,0,0,0,2.21-.58Z" transform="translate(-19.01 -111.14)"/><path class="cls-4" d="M124.19,158h-1.93v-3.74h-3.87V158h-1.93V149h1.93v3.67h3.87V149h1.93Z" transform="translate(-19.01 -111.14)"/><path class="cls-4" d="M128.14,153.61a4.89,4.89,0,0,1,1.25-3.47,4.3,4.3,0,0,1,3.29-1.34,4,4,0,0,1,3.13,1.3,4.73,4.73,0,0,1,1.19,3.33,4.81,4.81,0,0,1-1.24,3.44,4.59,4.59,0,0,1-6.4,0A4.59,4.59,0,0,1,128.14,153.61Zm2-.1a3.44,3.44,0,0,0,.64,2.16,2.07,2.07,0,0,0,1.75.84,2.11,2.11,0,0,0,1.77-.8,3.44,3.44,0,0,0,.63-2.17,3.61,3.61,0,0,0-.62-2.24,2,2,0,0,0-1.73-.82,2.15,2.15,0,0,0-1.79.84A3.5,3.5,0,0,0,130.18,153.51Z" transform="translate(-19.01 -111.14)"/><path class="cls-4" d="M140.36,153.61a4.89,4.89,0,0,1,1.25-3.47,4.3,4.3,0,0,1,3.29-1.34,4,4,0,0,1,3.13,1.3,4.73,4.73,0,0,1,1.19,3.33,4.81,4.81,0,0,1-1.24,3.44,4.59,4.59,0,0,1-6.4,0A4.59,4.59,0,0,1,140.36,153.61Zm2-.1a3.44,3.44,0,0,0,.64,2.16,2.07,2.07,0,0,0,1.75.84,2.11,2.11,0,0,0,1.77-.8,3.44,3.44,0,0,0,.63-2.17,3.68,3.68,0,0,0-.62-2.24,2,2,0,0,0-1.73-.82,2.15,2.15,0,0,0-1.79.84A3.44,3.44,0,0,0,142.4,153.51Z" transform="translate(-19.01 -111.14)"/><path class="cls-4" d="M158.48,158h-5.33V149h1.94v7.5h3.39Z" transform="translate(-19.01 -111.14)"/><path class="cls-4" d="M167.52,153.61a4.89,4.89,0,0,1,1.25-3.47,4.28,4.28,0,0,1,3.29-1.34,4,4,0,0,1,3.13,1.3,4.73,4.73,0,0,1,1.19,3.33,4.86,4.86,0,0,1-1.24,3.44,4.59,4.59,0,0,1-6.4,0A4.59,4.59,0,0,1,167.52,153.61Zm2-.1a3.51,3.51,0,0,0,.64,2.16,2.3,2.3,0,0,0,3.52,0,3.38,3.38,0,0,0,.64-2.17,3.68,3.68,0,0,0-.62-2.24,2,2,0,0,0-1.73-.82,2.13,2.13,0,0,0-1.79.84A3.44,3.44,0,0,0,169.55,153.51Z" transform="translate(-19.01 -111.14)"/><path class="cls-4" d="M185.48,150.54h-3.24v2.33h3v1.58h-3V158h-1.93V149h5.17Z" transform="translate(-19.01 -111.14)"/><path class="cls-4" d="M203.69,158v-5.51c0-.5,0-1.14.08-1.91h-.05a10.4,10.4,0,0,1-.28,1.16L201.2,158h-1.54l-2.27-6.2c0-.15-.15-.55-.29-1.22h0c0,.76.08,1.52.08,2.29V158h-1.75V149h2.81l2,5.49a6.26,6.26,0,0,1,.34,1.28h0a12.39,12.39,0,0,1,.37-1.29l2-5.48h2.74V158Z" transform="translate(-19.01 -111.14)"/><path class="cls-4" d="M215.5,158h-5.38V149h5.16v1.59h-3.22v2.14h3v1.57h-3v2.2h3.44Z" transform="translate(-19.01 -111.14)"/><path class="cls-4" d="M219.38,158V149h3.14q4.83,0,4.83,4.43a4.44,4.44,0,0,1-1.35,3.38,4.88,4.88,0,0,1-3.49,1.27Zm1.94-7.49v5.91h1.05a2.83,2.83,0,0,0,2.16-.82,3.06,3.06,0,0,0,.79-2.22,2.75,2.75,0,0,0-.82-2.11,3,3,0,0,0-2.13-.76Z" transform="translate(-19.01 -111.14)"/><path class="cls-4" d="M233.21,149V158h-1.93V149Z" transform="translate(-19.01 -111.14)"/><path class="cls-4" d="M244.18,157.7a5.79,5.79,0,0,1-2.58.49,4.35,4.35,0,0,1-3.26-1.23,4.48,4.48,0,0,1-1.2-3.27,4.84,4.84,0,0,1,1.34-3.52A4.68,4.68,0,0,1,242,148.8a6.25,6.25,0,0,1,2.23.35V151a4,4,0,0,0-2.09-.54,2.76,2.76,0,0,0-2.12.85,3.1,3.1,0,0,0-.8,2.22,3,3,0,0,0,.76,2.15,2.64,2.64,0,0,0,2,.81,4.27,4.27,0,0,0,2.21-.58Z" transform="translate(-19.01 -111.14)"/><path class="cls-4" d="M250.11,149V158h-1.93V149Z" transform="translate(-19.01 -111.14)"/><path class="cls-4" d="M262.68,158h-2l-3.84-5.87a6.34,6.34,0,0,1-.44-.74h0a12.61,12.61,0,0,1,.06,1.45V158h-1.84V149h2.11l3.7,5.71c.25.38.4.62.46.72h0a8.34,8.34,0,0,1-.06-1.25V149h1.83Z" transform="translate(-19.01 -111.14)"/><path class="cls-4" d="M272.56,158h-5.37V149h5.16v1.59h-3.23v2.14h3v1.57h-3v2.2h3.44Z" transform="translate(-19.01 -111.14)"/></svg>